<svg width="136" height="108" viewBox="0 0 136 108" fill="none" xmlns="http://www.w3.org/2000/svg">
<g clip-path="url(#clip0_4701_6152)">
<g clip-path="url(#clip1_4701_6152)">
<path d="M92.938 5.06202C93.8227 5.94674 93.8228 7.38134 92.938 8.26606L92.2509 8.95311C92.9995 9.81394 93.7022 10.7155 94.3576 11.6525L95.341 10.669C97.5529 8.45706 97.5529 4.8708 95.341 2.65887C93.1291 0.446938 89.5427 0.446825 87.3308 2.65887L86.3474 3.64226C87.2843 4.29771 88.1859 5.00039 89.0468 5.74895L89.7338 5.0619C90.6186 4.17718 92.0532 4.17718 92.938 5.06202Z" fill="white"/>
<path d="M63.299 31.4526C64.6372 31.8175 65.6827 32.8632 66.0475 34.2014L67.8166 40.6881C68.0671 41.6067 69.3382 41.6885 69.7044 40.8096L78.0659 20.7417C78.4094 19.9175 77.5825 19.0906 76.7583 19.4341L56.6904 27.7957C55.8115 28.1619 55.8933 29.433 56.8119 29.6835L63.299 31.4526Z" fill="white"/>
<path d="M89.9766 30.1133C89.9766 35.5931 87.9701 40.6128 84.6542 44.4777L89.4682 49.2917C94.0096 44.1868 96.7734 37.4673 96.7734 30.1133C96.7734 22.7593 94.0096 16.0398 89.4682 10.9349L84.6542 15.7489C87.9701 19.6138 89.9766 24.6334 89.9766 30.1133Z" fill="white"/>
<path d="M67.8867 8.02344C73.3666 8.02344 78.3862 10.03 82.2511 13.3458L87.0651 8.53184C81.9602 3.9904 75.2407 1.22656 67.8867 1.22656C60.5327 1.22656 53.8132 3.9904 48.7083 8.53184L53.5223 13.3458C57.3874 10.03 62.4068 8.02344 67.8867 8.02344Z" fill="white"/>
<path d="M45.7969 30.1133C45.7969 24.6334 47.8034 19.6138 51.1193 15.7489L46.3053 10.9349C41.7638 16.0398 39 22.7593 39 30.1133C39 37.4673 41.7638 44.1868 46.3053 49.2917L51.1193 44.4777C47.8034 40.6128 45.7969 35.5931 45.7969 30.1133Z" fill="white"/>
<path d="M67.8867 52.2031C62.4068 52.2031 57.3872 50.1966 53.5223 46.8807L48.7083 51.6947C53.8132 56.2362 60.5327 59 67.8867 59C75.2407 59 81.9602 56.2362 87.0651 51.6947L82.2511 46.8807C78.3862 50.1966 73.3666 52.2031 67.8867 52.2031Z" fill="white"/>
</g>
<path d="M3.31808 89V64.5H14.1681C15.7314 64.5 17.1548 64.85 18.4381 65.55C19.7448 66.2267 20.7831 67.1833 21.5531 68.42C22.3231 69.6567 22.7081 71.0917 22.7081 72.725C22.7081 74.3583 22.2998 75.805 21.4831 77.065C20.6898 78.3017 19.6281 79.2583 18.2981 79.935L20.7131 84.52C20.8531 84.7767 21.0164 84.975 21.2031 85.115C21.3898 85.2317 21.6348 85.29 21.9381 85.29H24.0031V89H21.3081C20.3514 89 19.4998 88.7667 18.7531 88.3C18.0064 87.81 17.4114 87.1683 16.9681 86.375L14.0981 80.88C13.8648 80.9033 13.6198 80.915 13.3631 80.915C13.1298 80.915 12.8964 80.915 12.6631 80.915H7.48308V89H3.31808ZM7.48308 77.24H13.6431C14.5298 77.24 15.3464 77.065 16.0931 76.715C16.8398 76.365 17.4231 75.8517 17.8431 75.175C18.2864 74.475 18.5081 73.6583 18.5081 72.725C18.5081 71.7683 18.2864 70.9517 17.8431 70.275C17.3998 69.5983 16.8164 69.085 16.0931 68.735C15.3698 68.3617 14.5648 68.175 13.6781 68.175H7.48308V77.24ZM33.9136 89C31.9069 89 30.1452 88.6267 28.6286 87.88C27.1352 87.11 25.9686 86.06 25.1286 84.73C24.2886 83.3767 23.8686 81.825 23.8686 80.075C23.8686 78.2317 24.2419 76.61 24.9886 75.21C25.7352 73.81 26.7619 72.7133 28.0686 71.92C29.3752 71.1267 30.8802 70.73 32.5836 70.73C34.4969 70.73 36.0719 71.1383 37.3086 71.955C38.5452 72.7717 39.4552 73.8683 40.0386 75.245C40.6452 76.6217 40.9486 78.1617 40.9486 79.865C40.9486 80.0983 40.9369 80.3667 40.9136 80.67C40.8902 80.9733 40.8552 81.2067 40.8086 81.37H28.1386C28.2786 82.3033 28.6169 83.085 29.1536 83.715C29.6902 84.3217 30.3669 84.7883 31.1836 85.115C32.0002 85.4183 32.9102 85.57 33.9136 85.57H38.7086V89H33.9136ZM28.1036 78.64H36.9236C36.9002 78.1967 36.8302 77.7533 36.7136 77.31C36.6202 76.8667 36.4569 76.4467 36.2236 76.05C36.0136 75.6533 35.7336 75.315 35.3836 75.035C35.0569 74.7317 34.6602 74.4983 34.1936 74.335C33.7269 74.1483 33.1902 74.055 32.5836 74.055C31.8836 74.055 31.2652 74.195 30.7286 74.475C30.1919 74.7317 29.7369 75.0817 29.3636 75.525C28.9902 75.945 28.6986 76.435 28.4886 76.995C28.3019 77.5317 28.1736 78.08 28.1036 78.64ZM51.9178 89C50.0744 89 48.4294 88.6033 46.9828 87.81C45.5361 87.0167 44.3928 85.955 43.5528 84.625C42.7128 83.2717 42.2928 81.755 42.2928 80.075C42.2928 78.395 42.7128 76.89 43.5528 75.56C44.3928 74.2067 45.5361 73.1333 46.9828 72.34C48.4294 71.5467 50.0744 71.15 51.9178 71.15H54.0878V74.58H51.8478C50.7744 74.58 49.8178 74.825 48.9778 75.315C48.1611 75.7817 47.5194 76.435 47.0528 77.275C46.5861 78.115 46.3528 79.0483 46.3528 80.075C46.3528 81.1017 46.5861 82.035 47.0528 82.875C47.5194 83.715 48.1611 84.38 48.9778 84.87C49.8178 85.3367 50.7744 85.57 51.8478 85.57H54.0878V89H51.9178ZM56.0549 89V76.225C56.0549 74.6383 56.4982 73.4017 57.3849 72.515C58.2949 71.605 59.5432 71.15 61.1299 71.15H65.4349V74.58H61.8649C61.3049 74.58 60.8615 74.7433 60.5349 75.07C60.2315 75.3967 60.0799 75.84 60.0799 76.4V89H56.0549ZM75.3661 89.42C73.6395 89.42 72.1345 89.0817 70.8511 88.405C69.5678 87.705 68.5761 86.7483 67.8761 85.535C67.1761 84.3217 66.8261 82.9567 66.8261 81.44V71.15H70.8511V81.405C70.8511 82.315 71.0495 83.12 71.4461 83.82C71.8661 84.4967 72.4145 85.0333 73.0911 85.43C73.7911 85.8033 74.5495 85.99 75.3661 85.99C76.1828 85.99 76.9295 85.8033 77.6061 85.43C78.3061 85.0333 78.8545 84.4967 79.2511 83.82C79.6711 83.12 79.8811 82.315 79.8811 81.405V71.15H83.9061V81.44C83.9061 82.9567 83.5561 84.3217 82.8561 85.535C82.1561 86.7483 81.1645 87.705 79.8811 88.405C78.5978 89.0817 77.0928 89.42 75.3661 89.42ZM87.3353 89V71.15H91.3603V89H87.3353ZM89.3303 68.665C88.6303 68.665 88.0236 68.4083 87.5103 67.895C86.997 67.3817 86.7403 66.775 86.7403 66.075C86.7403 65.375 86.997 64.7683 87.5103 64.255C88.0236 63.7417 88.6303 63.485 89.3303 63.485C90.0536 63.485 90.6603 63.7417 91.1503 64.255C91.6636 64.7683 91.9203 65.375 91.9203 66.075C91.9203 66.775 91.6636 67.3817 91.1503 67.895C90.6603 68.4083 90.0536 68.665 89.3303 68.665ZM100.948 89C99.3612 89 98.1128 88.545 97.2028 87.635C96.3162 86.725 95.8728 85.4883 95.8728 83.925V66.67H99.8628V83.75C99.8628 84.2867 100.026 84.73 100.353 85.08C100.68 85.4067 101.111 85.57 101.648 85.57H105.393V89H100.948ZM92.7928 74.58V71.15H105.428V74.58H92.7928ZM116.226 89C114.22 89 112.458 88.6267 110.941 87.88C109.448 87.11 108.281 86.06 107.441 84.73C106.601 83.3767 106.181 81.825 106.181 80.075C106.181 78.2317 106.555 76.61 107.301 75.21C108.048 73.81 109.075 72.7133 110.381 71.92C111.688 71.1267 113.193 70.73 114.896 70.73C116.81 70.73 118.385 71.1383 119.621 71.955C120.858 72.7717 121.768 73.8683 122.351 75.245C122.958 76.6217 123.261 78.1617 123.261 79.865C123.261 80.0983 123.25 80.3667 123.226 80.67C123.203 80.9733 123.168 81.2067 123.121 81.37H110.451C110.591 82.3033 110.93 83.085 111.466 83.715C112.003 84.3217 112.68 84.7883 113.496 85.115C114.313 85.4183 115.223 85.57 116.226 85.57H121.021V89H116.226ZM110.416 78.64H119.236C119.213 78.1967 119.143 77.7533 119.026 77.31C118.933 76.8667 118.77 76.4467 118.536 76.05C118.326 75.6533 118.046 75.315 117.696 75.035C117.37 74.7317 116.973 74.4983 116.506 74.335C116.04 74.1483 115.503 74.055 114.896 74.055C114.196 74.055 113.578 74.195 113.041 74.475C112.505 74.7317 112.05 75.0817 111.676 75.525C111.303 75.945 111.011 76.435 110.801 76.995C110.615 77.5317 110.486 78.08 110.416 78.64ZM125.481 89V76.225C125.481 74.6383 125.924 73.4017 126.811 72.515C127.721 71.605 128.969 71.15 130.556 71.15H134.861V74.58H131.291C130.731 74.58 130.287 74.7433 129.961 75.07C129.657 75.3967 129.506 75.84 129.506 76.4V89H125.481Z" fill="white"/>
<path d="M29.138 95.704V99.288C29.782 98.42 30.6547 97.986 31.756 97.986C32.4 97.986 32.9927 98.1447 33.534 98.462C34.0753 98.7793 34.5047 99.2133 34.822 99.764C35.1393 100.305 35.298 100.893 35.298 101.528C35.298 102.163 35.1393 102.755 34.822 103.306C34.5047 103.847 34.0753 104.277 33.534 104.594C32.9927 104.911 32.4 105.07 31.756 105.07C30.692 105.07 29.8193 104.613 29.138 103.698V105H28.2V95.704H29.138ZM29.166 101.528C29.166 101.995 29.2827 102.429 29.516 102.83C29.7493 103.222 30.062 103.535 30.454 103.768C30.8553 104.001 31.2893 104.118 31.756 104.118C32.2227 104.118 32.652 104.001 33.044 103.768C33.436 103.535 33.7487 103.222 33.982 102.83C34.2153 102.429 34.332 101.995 34.332 101.528C34.332 101.061 34.2153 100.632 33.982 100.24C33.7487 99.848 33.436 99.5353 33.044 99.302C32.652 99.0687 32.2227 98.952 31.756 98.952C31.2893 98.952 30.8553 99.0687 30.454 99.302C30.062 99.5353 29.7493 99.848 29.516 100.24C29.2827 100.632 29.166 101.061 29.166 101.528ZM42.4895 98V104.944C42.4895 105.495 42.3542 106.003 42.0835 106.47C41.8128 106.937 41.4442 107.305 40.9775 107.576C40.5108 107.847 40.0022 107.982 39.4515 107.982C38.9195 107.982 38.4295 107.856 37.9815 107.604C37.5335 107.352 37.1695 107.011 36.8895 106.582L37.7295 106.106C37.9162 106.386 38.1588 106.61 38.4575 106.778C38.7655 106.946 39.0968 107.03 39.4515 107.03C39.8248 107.03 40.1702 106.937 40.4875 106.75C40.8142 106.563 41.0708 106.307 41.2575 105.98C41.4442 105.663 41.5375 105.317 41.5375 104.944V104.202C41.2575 104.463 40.9402 104.669 40.5855 104.818C40.2308 104.958 39.8528 105.028 39.4515 105.028C38.9102 105.028 38.4062 104.897 37.9395 104.636C37.4822 104.365 37.1135 104.006 36.8335 103.558C36.5628 103.11 36.4228 102.615 36.4135 102.074V98H37.3655V101.99C37.3655 102.363 37.4588 102.713 37.6455 103.04C37.8322 103.357 38.0842 103.609 38.4015 103.796C38.7282 103.983 39.0782 104.076 39.4515 104.076C39.8248 104.076 40.1702 103.983 40.4875 103.796C40.8142 103.609 41.0708 103.357 41.2575 103.04C41.4442 102.713 41.5375 102.363 41.5375 101.99V98H42.4895ZM51.136 95.704V99.288C51.78 98.42 52.6527 97.986 53.754 97.986C54.398 97.986 54.9907 98.1447 55.532 98.462C56.0734 98.7793 56.5027 99.2133 56.82 99.764C57.1374 100.305 57.296 100.893 57.296 101.528C57.296 102.163 57.1374 102.755 56.82 103.306C56.5027 103.847 56.0734 104.277 55.532 104.594C54.9907 104.911 54.398 105.07 53.754 105.07C52.69 105.07 51.8174 104.613 51.136 103.698V105H50.198V95.704H51.136ZM51.164 101.528C51.164 101.995 51.2807 102.429 51.514 102.83C51.7474 103.222 52.06 103.535 52.452 103.768C52.8534 104.001 53.2874 104.118 53.754 104.118C54.2207 104.118 54.65 104.001 55.042 103.768C55.434 103.535 55.7467 103.222 55.98 102.83C56.2134 102.429 56.33 101.995 56.33 101.528C56.33 101.061 56.2134 100.632 55.98 100.24C55.7467 99.848 55.434 99.5353 55.042 99.302C54.65 99.0687 54.2207 98.952 53.754 98.952C53.2874 98.952 52.8534 99.0687 52.452 99.302C52.06 99.5353 51.7474 99.848 51.514 100.24C51.2807 100.632 51.164 101.061 51.164 101.528ZM59.1816 96.054C59.3496 96.054 59.4942 96.1147 59.6156 96.236C59.7369 96.3573 59.7976 96.502 59.7976 96.67C59.7976 96.8473 59.7369 96.9967 59.6156 97.118C59.4942 97.2393 59.3496 97.3 59.1816 97.3C59.0042 97.3 58.8549 97.2393 58.7336 97.118C58.6122 96.9967 58.5516 96.8473 58.5516 96.67C58.5516 96.502 58.6122 96.3573 58.7336 96.236C58.8549 96.1147 59.0042 96.054 59.1816 96.054ZM59.6576 98V105H58.6916V98H59.6576ZM63.9759 98C64.4799 98 64.9419 98.126 65.3619 98.378C65.7912 98.6207 66.1319 98.9567 66.3839 99.386C66.6359 99.806 66.7619 100.268 66.7619 100.772V105H65.7959V100.772C65.7959 100.445 65.7119 100.147 65.5439 99.876C65.3852 99.596 65.1659 99.3767 64.8859 99.218C64.6059 99.05 64.3026 98.966 63.9759 98.966C63.6492 98.966 63.3459 99.05 63.0659 99.218C62.7859 99.3767 62.5619 99.596 62.3939 99.876C62.2352 100.147 62.1559 100.445 62.1559 100.772V105H61.2039V98.182H62.1559V98.798C62.3892 98.5367 62.6599 98.3407 62.9679 98.21C63.2852 98.07 63.6212 98 63.9759 98ZM74.9842 105H74.0462V103.698C73.3648 104.613 72.4922 105.07 71.4282 105.07C70.7842 105.07 70.1915 104.911 69.6502 104.594C69.1088 104.277 68.6795 103.847 68.3622 103.306C68.0448 102.755 67.8862 102.163 67.8862 101.528C67.8862 100.893 68.0448 100.305 68.3622 99.764C68.6795 99.2133 69.1088 98.7793 69.6502 98.462C70.1915 98.1447 70.7842 97.986 71.4282 97.986C72.5295 97.986 73.4022 98.42 74.0462 99.288V95.704H74.9842V105ZM74.0182 101.528C74.0182 101.061 73.9015 100.632 73.6682 100.24C73.4348 99.848 73.1175 99.5353 72.7162 99.302C72.3242 99.0687 71.8948 98.952 71.4282 98.952C70.9615 98.952 70.5322 99.0687 70.1402 99.302C69.7482 99.5353 69.4355 99.848 69.2022 100.24C68.9688 100.632 68.8522 101.061 68.8522 101.528C68.8522 101.995 68.9688 102.429 69.2022 102.83C69.4355 103.222 69.7482 103.535 70.1402 103.768C70.5322 104.001 70.9615 104.118 71.4282 104.118C71.8948 104.118 72.3242 104.001 72.7162 103.768C73.1175 103.535 73.4348 103.222 73.6682 102.83C73.9015 102.429 74.0182 101.995 74.0182 101.528ZM86.6837 98L83.9257 105H82.9177L81.4757 101.374L80.0337 105H79.0257L76.2397 98H77.2757L79.5297 103.67L80.9577 100.086L80.1317 98H81.1677L83.4217 103.67L85.6617 98H86.6837ZM94.0421 98.182V105H93.0761V103.712C92.4321 104.617 91.5734 105.07 90.5001 105.07C89.8561 105.07 89.2634 104.916 88.7221 104.608C88.1808 104.291 87.7514 103.861 87.4341 103.32C87.1261 102.779 86.9721 102.191 86.9721 101.556C86.9721 100.912 87.1261 100.319 87.4341 99.778C87.7514 99.2367 88.1808 98.812 88.7221 98.504C89.2634 98.1867 89.8561 98.028 90.5001 98.028C91.1628 98.028 91.7041 98.168 92.1241 98.448C92.5534 98.7187 92.8708 99.0127 93.0761 99.33V98.182H94.0421ZM90.5001 104.118C90.9668 104.118 91.3961 104.006 91.7881 103.782C92.1801 103.549 92.4881 103.236 92.7121 102.844C92.9454 102.452 93.0621 102.023 93.0621 101.556C93.0621 101.089 92.9454 100.66 92.7121 100.268C92.4881 99.8667 92.1801 99.554 91.7881 99.33C91.3961 99.0967 90.9668 98.98 90.5001 98.98C90.0334 98.98 89.5994 99.0967 89.1981 99.33C88.8061 99.554 88.4934 99.8667 88.2601 100.268C88.0361 100.66 87.9241 101.089 87.9241 101.556C87.9241 102.023 88.0361 102.452 88.2601 102.844C88.4934 103.236 88.8061 103.549 89.1981 103.782C89.5994 104.006 90.0334 104.118 90.5001 104.118ZM101.374 98V104.944C101.374 105.495 101.239 106.003 100.968 106.47C100.698 106.937 100.329 107.305 99.8623 107.576C99.3956 107.847 98.8869 107.982 98.3363 107.982C97.8043 107.982 97.3143 107.856 96.8663 107.604C96.4183 107.352 96.0543 107.011 95.7743 106.582L96.6143 106.106C96.8009 106.386 97.0436 106.61 97.3423 106.778C97.6503 106.946 97.9816 107.03 98.3363 107.03C98.7096 107.03 99.0549 106.937 99.3723 106.75C99.6989 106.563 99.9556 106.307 100.142 105.98C100.329 105.663 100.422 105.317 100.422 104.944V104.202C100.142 104.463 99.8249 104.669 99.4703 104.818C99.1156 104.958 98.7376 105.028 98.3363 105.028C97.7949 105.028 97.2909 104.897 96.8243 104.636C96.3669 104.365 95.9983 104.006 95.7183 103.558C95.4476 103.11 95.3076 102.615 95.2983 102.074V98H96.2503V101.99C96.2503 102.363 96.3436 102.713 96.5303 103.04C96.7169 103.357 96.9689 103.609 97.2863 103.796C97.6129 103.983 97.9629 104.076 98.3363 104.076C98.7096 104.076 99.0549 103.983 99.3723 103.796C99.6989 103.609 99.9556 103.357 100.142 103.04C100.329 102.713 100.422 102.363 100.422 101.99V98H101.374ZM103.483 103.124C103.558 103.385 103.675 103.591 103.833 103.74C104.095 103.983 104.477 104.104 104.981 104.104C105.42 104.104 105.775 104.001 106.045 103.796C106.316 103.591 106.451 103.325 106.451 102.998C106.451 102.69 106.391 102.461 106.269 102.312C106.148 102.163 105.989 102.069 105.793 102.032C105.607 101.985 105.345 101.957 105.009 101.948C104.524 101.92 104.127 101.869 103.819 101.794C103.511 101.71 103.231 101.528 102.979 101.248C102.671 100.865 102.517 100.445 102.517 99.988C102.517 99.876 102.522 99.792 102.531 99.736C102.606 99.148 102.853 98.7 103.273 98.392C103.693 98.0747 104.258 97.916 104.967 97.916H104.981C105.504 97.916 105.929 98.014 106.255 98.21C106.582 98.406 106.834 98.644 107.011 98.924C107.198 99.232 107.315 99.554 107.361 99.89H106.381C106.363 99.7593 106.302 99.6053 106.199 99.428C105.966 99.0733 105.56 98.8867 104.981 98.868C104.393 98.868 104.006 98.966 103.819 99.162C103.633 99.358 103.521 99.5867 103.483 99.848C103.474 99.8853 103.469 99.9367 103.469 100.002C103.469 100.226 103.549 100.427 103.707 100.604C103.838 100.763 104.006 100.87 104.211 100.926C104.417 100.973 104.711 101.01 105.093 101.038C105.401 101.057 105.663 101.085 105.877 101.122C106.101 101.159 106.311 101.229 106.507 101.332C107.114 101.659 107.417 102.214 107.417 102.998C107.417 103.269 107.361 103.53 107.249 103.782C107.147 104.025 106.997 104.239 106.801 104.426C106.363 104.855 105.761 105.07 104.995 105.07C104.249 105.07 103.642 104.86 103.175 104.44C102.811 104.085 102.587 103.647 102.503 103.124H103.483Z" fill="white"/>
</g>
<defs>
<clipPath id="clip0_4701_6152">
<rect width="136" height="108" fill="white"/>
</clipPath>
<clipPath id="clip1_4701_6152">
<rect width="58" height="58" fill="white" transform="translate(39 1)"/>
</clipPath>
</defs>
</svg>
