<svg width="256" height="60" viewBox="0 0 256 60" fill="none" xmlns="http://www.w3.org/2000/svg">
<g clip-path="url(#clip0_4719_6705)">
<g clip-path="url(#clip1_4719_6705)">
<path d="M55.9379 5.06202C56.8227 5.94674 56.8228 7.38134 55.9379 8.26606L55.2509 8.95311C55.9995 9.81394 56.7021 10.7155 57.3576 11.6525L58.341 10.669C60.5529 8.45706 60.5529 4.8708 58.341 2.65887C56.129 0.446938 52.5427 0.446825 50.3307 2.65887L49.3474 3.64226C50.2843 4.29771 51.1859 5.00039 52.0467 5.74895L52.7338 5.0619C53.6186 4.17718 55.0532 4.17718 55.9379 5.06202Z" fill="#4D4D4D"/>
<path d="M26.299 31.4526C27.6372 31.8175 28.6827 32.8632 29.0475 34.2014L30.8166 40.6881C31.0671 41.6067 32.3382 41.6885 32.7044 40.8096L41.0659 20.7417C41.4094 19.9175 40.5825 19.0906 39.7583 19.4341L19.6904 27.7957C18.8115 28.1619 18.8933 29.433 19.8119 29.6835L26.299 31.4526Z" fill="#4D4D4D"/>
<path d="M52.9766 30.1133C52.9766 35.5931 50.9701 40.6128 47.6542 44.4777L52.4682 49.2917C57.0096 44.1868 59.7735 37.4673 59.7735 30.1133C59.7735 22.7593 57.0096 16.0398 52.4682 10.9349L47.6542 15.7489C50.9701 19.6138 52.9766 24.6334 52.9766 30.1133Z" fill="#4D4D4D"/>
<path d="M30.8867 8.02344C36.3666 8.02344 41.3862 10.03 45.2511 13.3458L50.0651 8.53184C44.9602 3.9904 38.2407 1.22656 30.8867 1.22656C23.5327 1.22656 16.8132 3.9904 11.7083 8.53184L16.5223 13.3458C20.3874 10.03 25.4068 8.02344 30.8867 8.02344Z" fill="#4D4D4D"/>
<path d="M8.79687 30.1133C8.79687 24.6334 10.8034 19.6138 14.1193 15.7489L9.30528 10.9349C4.76384 16.0398 2 22.7593 2 30.1133C2 37.4673 4.76384 44.1868 9.30528 49.2917L14.1193 44.4777C10.8034 40.6128 8.79687 35.5931 8.79687 30.1133Z" fill="#4D4D4D"/>
<path d="M30.8867 52.2031C25.4068 52.2031 20.3872 50.1966 16.5223 46.8807L11.7083 51.6947C16.8132 56.2362 23.5327 59 30.8867 59C38.2407 59 44.9602 56.2362 50.0651 51.6947L45.2511 46.8807C41.3862 50.1966 36.3666 52.2031 30.8867 52.2031Z" fill="#4D4D4D"/>
</g>
<path d="M70.577 36V1.7H85.767C87.9557 1.7 89.9483 2.19 91.745 3.17C93.5743 4.11733 95.028 5.45667 96.106 7.188C97.184 8.91933 97.723 10.9283 97.723 13.215C97.723 15.5017 97.1513 17.527 96.008 19.291C94.8973 21.0223 93.411 22.3617 91.549 23.309L94.93 29.728C95.126 30.0873 95.3547 30.365 95.616 30.561C95.8773 30.7243 96.2203 30.806 96.645 30.806H99.536V36H95.763C94.4237 36 93.2313 35.6733 92.186 35.02C91.1407 34.334 90.3077 33.4357 89.687 32.325L85.669 24.632C85.3423 24.6647 84.9993 24.681 84.64 24.681C84.3133 24.681 83.9867 24.681 83.66 24.681H76.408V36H70.577ZM76.408 19.536H85.032C86.2733 19.536 87.4167 19.291 88.462 18.801C89.5073 18.311 90.324 17.5923 90.912 16.645C91.5327 15.665 91.843 14.5217 91.843 13.215C91.843 11.8757 91.5327 10.7323 90.912 9.785C90.2913 8.83767 89.4747 8.119 88.462 7.629C87.4493 7.10633 86.3223 6.845 85.081 6.845H76.408V19.536ZM113.411 36C110.601 36 108.135 35.4773 106.012 34.432C103.921 33.354 102.288 31.884 101.112 30.022C99.9357 28.1273 99.3477 25.955 99.3477 23.505C99.3477 20.9243 99.8703 18.654 100.916 16.694C101.961 14.734 103.398 13.1987 105.228 12.088C107.057 10.9773 109.164 10.422 111.549 10.422C114.227 10.422 116.432 10.9937 118.164 12.137C119.895 13.2803 121.169 14.8157 121.986 16.743C122.835 18.6703 123.26 20.8263 123.26 23.211C123.26 23.5377 123.243 23.9133 123.211 24.338C123.178 24.7627 123.129 25.0893 123.064 25.318H105.326C105.522 26.6247 105.995 27.719 106.747 28.601C107.498 29.4503 108.445 30.1037 109.589 30.561C110.732 30.9857 112.006 31.198 113.411 31.198H120.124V36H113.411ZM105.277 21.496H117.625C117.592 20.8753 117.494 20.2547 117.331 19.634C117.2 19.0133 116.971 18.4253 116.645 17.87C116.351 17.3147 115.959 16.841 115.469 16.449C115.011 16.0243 114.456 15.6977 113.803 15.469C113.149 15.2077 112.398 15.077 111.549 15.077C110.569 15.077 109.703 15.273 108.952 15.665C108.2 16.0243 107.563 16.5143 107.041 17.135C106.518 17.723 106.11 18.409 105.816 19.193C105.554 19.9443 105.375 20.712 105.277 21.496ZM138.617 36C136.036 36 133.733 35.4447 131.708 34.334C129.682 33.2233 128.082 31.737 126.906 29.875C125.73 27.9803 125.142 25.857 125.142 23.505C125.142 21.153 125.73 19.046 126.906 17.184C128.082 15.2893 129.682 13.7867 131.708 12.676C133.733 11.5653 136.036 11.01 138.617 11.01H141.655V15.812H138.519C137.016 15.812 135.677 16.155 134.501 16.841C133.357 17.4943 132.459 18.409 131.806 19.585C131.152 20.761 130.826 22.0677 130.826 23.505C130.826 24.9423 131.152 26.249 131.806 27.425C132.459 28.601 133.357 29.532 134.501 30.218C135.677 30.8713 137.016 31.198 138.519 31.198H141.655V36H138.617ZM144.409 36V18.115C144.409 15.8937 145.029 14.1623 146.271 12.921C147.545 11.647 149.292 11.01 151.514 11.01H157.541V15.812H152.543C151.759 15.812 151.138 16.0407 150.681 16.498C150.256 16.9553 150.044 17.576 150.044 18.36V36H144.409ZM171.444 36.588C169.027 36.588 166.92 36.1143 165.123 35.167C163.327 34.187 161.938 32.8477 160.958 31.149C159.978 29.4503 159.488 27.5393 159.488 25.416V11.01H165.123V25.367C165.123 26.641 165.401 27.768 165.956 28.748C166.544 29.6953 167.312 30.4467 168.259 31.002C169.239 31.5247 170.301 31.786 171.444 31.786C172.588 31.786 173.633 31.5247 174.58 31.002C175.56 30.4467 176.328 29.6953 176.883 28.748C177.471 27.768 177.765 26.641 177.765 25.367V11.01H183.4V25.416C183.4 27.5393 182.91 29.4503 181.93 31.149C180.95 32.8477 179.562 34.187 177.765 35.167C175.969 36.1143 173.862 36.588 171.444 36.588ZM188.201 36V11.01H193.836V36H188.201ZM190.994 7.531C190.014 7.531 189.165 7.17166 188.446 6.453C187.727 5.73433 187.368 4.885 187.368 3.905C187.368 2.925 187.727 2.07566 188.446 1.357C189.165 0.638332 190.014 0.278998 190.994 0.278998C192.007 0.278998 192.856 0.638332 193.542 1.357C194.261 2.07566 194.62 2.925 194.62 3.905C194.62 4.885 194.261 5.73433 193.542 6.453C192.856 7.17166 192.007 7.531 190.994 7.531ZM207.259 36C205.037 36 203.29 35.363 202.016 34.089C200.774 32.815 200.154 31.0837 200.154 28.895V4.738H205.74V28.65C205.74 29.4013 205.968 30.022 206.426 30.512C206.883 30.9693 207.487 31.198 208.239 31.198H213.482V36H207.259ZM195.842 15.812V11.01H213.531V15.812H195.842ZM228.649 36C225.839 36 223.373 35.4773 221.25 34.432C219.159 33.354 217.526 31.884 216.35 30.022C215.174 28.1273 214.586 25.955 214.586 23.505C214.586 20.9243 215.108 18.654 216.154 16.694C217.199 14.734 218.636 13.1987 220.466 12.088C222.295 10.9773 224.402 10.422 226.787 10.422C229.465 10.422 231.67 10.9937 233.402 12.137C235.133 13.2803 236.407 14.8157 237.224 16.743C238.073 18.6703 238.498 20.8263 238.498 23.211C238.498 23.5377 238.481 23.9133 238.449 24.338C238.416 24.7627 238.367 25.0893 238.302 25.318H220.564C220.76 26.6247 221.233 27.719 221.985 28.601C222.736 29.4503 223.683 30.1037 224.827 30.561C225.97 30.9857 227.244 31.198 228.649 31.198H235.362V36H228.649ZM220.515 21.496H232.863C232.83 20.8753 232.732 20.2547 232.569 19.634C232.438 19.0133 232.209 18.4253 231.883 17.87C231.589 17.3147 231.197 16.841 230.707 16.449C230.249 16.0243 229.694 15.6977 229.041 15.469C228.387 15.2077 227.636 15.077 226.787 15.077C225.807 15.077 224.941 15.273 224.19 15.665C223.438 16.0243 222.801 16.5143 222.279 17.135C221.756 17.723 221.348 18.409 221.054 19.193C220.792 19.9443 220.613 20.712 220.515 21.496ZM241.605 36V18.115C241.605 15.8937 242.225 14.1623 243.467 12.921C244.741 11.647 246.488 11.01 248.71 11.01H254.737V15.812H249.739C248.955 15.812 248.334 16.0407 247.877 16.498C247.452 16.9553 247.24 17.576 247.24 18.36V36H241.605Z" fill="#4D4D4D"/>
<path d="M72.2752 40.392V46.024C73.2872 44.66 74.6585 43.978 76.3892 43.978C77.4012 43.978 78.3325 44.2273 79.1832 44.726C80.0338 45.2247 80.7085 45.9067 81.2072 46.772C81.7058 47.6227 81.9552 48.5467 81.9552 49.544C81.9552 50.5413 81.7058 51.4727 81.2072 52.338C80.7085 53.1887 80.0338 53.8633 79.1832 54.362C78.3325 54.8607 77.4012 55.11 76.3892 55.11C74.7172 55.11 73.3458 54.3913 72.2752 52.954V55H70.8012V40.392H72.2752ZM72.3192 49.544C72.3192 50.2773 72.5025 50.9593 72.8692 51.59C73.2358 52.206 73.7272 52.6973 74.3432 53.064C74.9738 53.4307 75.6558 53.614 76.3892 53.614C77.1225 53.614 77.7972 53.4307 78.4132 53.064C79.0292 52.6973 79.5205 52.206 79.8872 51.59C80.2538 50.9593 80.4372 50.2773 80.4372 49.544C80.4372 48.8107 80.2538 48.136 79.8872 47.52C79.5205 46.904 79.0292 46.4127 78.4132 46.046C77.7972 45.6793 77.1225 45.496 76.3892 45.496C75.6558 45.496 74.9738 45.6793 74.3432 46.046C73.7272 46.4127 73.2358 46.904 72.8692 47.52C72.5025 48.136 72.3192 48.8107 72.3192 49.544ZM93.2561 44V54.912C93.2561 55.7773 93.0435 56.5767 92.6181 57.31C92.1928 58.0433 91.6135 58.6227 90.8801 59.048C90.1468 59.4733 89.3475 59.686 88.4821 59.686C87.6461 59.686 86.8761 59.488 86.1721 59.092C85.4681 58.696 84.8961 58.1607 84.4561 57.486L85.7761 56.738C86.0695 57.178 86.4508 57.53 86.9201 57.794C87.4041 58.058 87.9248 58.19 88.4821 58.19C89.0688 58.19 89.6115 58.0433 90.1101 57.75C90.6235 57.4567 91.0268 57.0533 91.3201 56.54C91.6135 56.0413 91.7601 55.4987 91.7601 54.912V53.746C91.3201 54.1567 90.8215 54.4793 90.2641 54.714C89.7068 54.934 89.1128 55.044 88.4821 55.044C87.6315 55.044 86.8395 54.8387 86.1061 54.428C85.3875 54.0027 84.8081 53.438 84.3681 52.734C83.9428 52.03 83.7228 51.2527 83.7081 50.402V44H85.2041V50.27C85.2041 50.8567 85.3508 51.4067 85.6441 51.92C85.9375 52.4187 86.3335 52.8147 86.8321 53.108C87.3455 53.4013 87.8955 53.548 88.4821 53.548C89.0688 53.548 89.6115 53.4013 90.1101 53.108C90.6235 52.8147 91.0268 52.4187 91.3201 51.92C91.6135 51.4067 91.7601 50.8567 91.7601 50.27V44H93.2561ZM106.844 40.392V46.024C107.856 44.66 109.227 43.978 110.958 43.978C111.97 43.978 112.901 44.2273 113.752 44.726C114.602 45.2247 115.277 45.9067 115.776 46.772C116.274 47.6227 116.524 48.5467 116.524 49.544C116.524 50.5413 116.274 51.4727 115.776 52.338C115.277 53.1887 114.602 53.8633 113.752 54.362C112.901 54.8607 111.97 55.11 110.958 55.11C109.286 55.11 107.914 54.3913 106.844 52.954V55H105.37V40.392H106.844ZM106.888 49.544C106.888 50.2773 107.071 50.9593 107.438 51.59C107.804 52.206 108.296 52.6973 108.912 53.064C109.542 53.4307 110.224 53.614 110.958 53.614C111.691 53.614 112.366 53.4307 112.982 53.064C113.598 52.6973 114.089 52.206 114.456 51.59C114.822 50.9593 115.006 50.2773 115.006 49.544C115.006 48.8107 114.822 48.136 114.456 47.52C114.089 46.904 113.598 46.4127 112.982 46.046C112.366 45.6793 111.691 45.496 110.958 45.496C110.224 45.496 109.542 45.6793 108.912 46.046C108.296 46.4127 107.804 46.904 107.438 47.52C107.071 48.136 106.888 48.8107 106.888 49.544ZM119.486 40.942C119.75 40.942 119.978 41.0373 120.168 41.228C120.359 41.4187 120.454 41.646 120.454 41.91C120.454 42.1887 120.359 42.4233 120.168 42.614C119.978 42.8047 119.75 42.9 119.486 42.9C119.208 42.9 118.973 42.8047 118.782 42.614C118.592 42.4233 118.496 42.1887 118.496 41.91C118.496 41.646 118.592 41.4187 118.782 41.228C118.973 41.0373 119.208 40.942 119.486 40.942ZM120.234 44V55H118.716V44H120.234ZM127.02 44C127.812 44 128.538 44.198 129.198 44.594C129.873 44.9753 130.408 45.5033 130.804 46.178C131.2 46.838 131.398 47.564 131.398 48.356V55H129.88V48.356C129.88 47.8427 129.748 47.3733 129.484 46.948C129.235 46.508 128.89 46.1633 128.45 45.914C128.01 45.65 127.534 45.518 127.02 45.518C126.507 45.518 126.03 45.65 125.59 45.914C125.15 46.1633 124.798 46.508 124.534 46.948C124.285 47.3733 124.16 47.8427 124.16 48.356V55H122.664V44.286H124.16V45.254C124.527 44.8433 124.952 44.5353 125.436 44.33C125.935 44.11 126.463 44 127.02 44ZM144.319 55H142.845V52.954C141.774 54.3913 140.403 55.11 138.731 55.11C137.719 55.11 136.788 54.8607 135.937 54.362C135.086 53.8633 134.412 53.1887 133.913 52.338C133.414 51.4727 133.165 50.5413 133.165 49.544C133.165 48.5467 133.414 47.6227 133.913 46.772C134.412 45.9067 135.086 45.2247 135.937 44.726C136.788 44.2273 137.719 43.978 138.731 43.978C140.462 43.978 141.833 44.66 142.845 46.024V40.392H144.319V55ZM142.801 49.544C142.801 48.8107 142.618 48.136 142.251 47.52C141.884 46.904 141.386 46.4127 140.755 46.046C140.139 45.6793 139.464 45.496 138.731 45.496C137.998 45.496 137.323 45.6793 136.707 46.046C136.091 46.4127 135.6 46.904 135.233 47.52C134.866 48.136 134.683 48.8107 134.683 49.544C134.683 50.2773 134.866 50.9593 135.233 51.59C135.6 52.206 136.091 52.6973 136.707 53.064C137.323 53.4307 137.998 53.614 138.731 53.614C139.464 53.614 140.139 53.4307 140.755 53.064C141.386 52.6973 141.884 52.206 142.251 51.59C142.618 50.9593 142.801 50.2773 142.801 49.544ZM162.704 44L158.37 55H156.786L154.52 49.302L152.254 55H150.67L146.292 44H147.92L151.462 52.91L153.706 47.278L152.408 44H154.036L157.578 52.91L161.098 44H162.704ZM174.267 44.286V55H172.749V52.976C171.737 54.3987 170.388 55.11 168.701 55.11C167.689 55.11 166.758 54.868 165.907 54.384C165.057 53.8853 164.382 53.2107 163.883 52.36C163.399 51.5093 163.157 50.5853 163.157 49.588C163.157 48.576 163.399 47.6447 163.883 46.794C164.382 45.9433 165.057 45.276 165.907 44.792C166.758 44.2933 167.689 44.044 168.701 44.044C169.743 44.044 170.593 44.264 171.253 44.704C171.928 45.1293 172.427 45.5913 172.749 46.09V44.286H174.267ZM168.701 53.614C169.435 53.614 170.109 53.438 170.725 53.086C171.341 52.7193 171.825 52.228 172.177 51.612C172.544 50.996 172.727 50.3213 172.727 49.588C172.727 48.8547 172.544 48.18 172.177 47.564C171.825 46.9333 171.341 46.442 170.725 46.09C170.109 45.7233 169.435 45.54 168.701 45.54C167.968 45.54 167.286 45.7233 166.655 46.09C166.039 46.442 165.548 46.9333 165.181 47.564C164.829 48.18 164.653 48.8547 164.653 49.588C164.653 50.3213 164.829 50.996 165.181 51.612C165.548 52.228 166.039 52.7193 166.655 53.086C167.286 53.438 167.968 53.614 168.701 53.614ZM185.789 44V54.912C185.789 55.7773 185.577 56.5767 185.151 57.31C184.726 58.0433 184.147 58.6227 183.413 59.048C182.68 59.4733 181.881 59.686 181.015 59.686C180.179 59.686 179.409 59.488 178.705 59.092C178.001 58.696 177.429 58.1607 176.989 57.486L178.309 56.738C178.603 57.178 178.984 57.53 179.453 57.794C179.937 58.058 180.458 58.19 181.015 58.19C181.602 58.19 182.145 58.0433 182.643 57.75C183.157 57.4567 183.56 57.0533 183.853 56.54C184.147 56.0413 184.293 55.4987 184.293 54.912V53.746C183.853 54.1567 183.355 54.4793 182.797 54.714C182.24 54.934 181.646 55.044 181.015 55.044C180.165 55.044 179.373 54.8387 178.639 54.428C177.921 54.0027 177.341 53.438 176.901 52.734C176.476 52.03 176.256 51.2527 176.241 50.402V44H177.737V50.27C177.737 50.8567 177.884 51.4067 178.177 51.92C178.471 52.4187 178.867 52.8147 179.365 53.108C179.879 53.4013 180.429 53.548 181.015 53.548C181.602 53.548 182.145 53.4013 182.643 53.108C183.157 52.8147 183.56 52.4187 183.853 51.92C184.147 51.4067 184.293 50.8567 184.293 50.27V44H185.789ZM189.104 52.052C189.221 52.4627 189.404 52.7853 189.654 53.02C190.064 53.4013 190.666 53.592 191.458 53.592C192.147 53.592 192.704 53.4307 193.13 53.108C193.555 52.7853 193.768 52.3673 193.768 51.854C193.768 51.37 193.672 51.0107 193.482 50.776C193.291 50.5413 193.042 50.3947 192.734 50.336C192.44 50.2627 192.03 50.2187 191.502 50.204C190.739 50.16 190.116 50.0793 189.632 49.962C189.148 49.83 188.708 49.544 188.312 49.104C187.828 48.5027 187.586 47.8427 187.586 47.124C187.586 46.948 187.593 46.816 187.608 46.728C187.725 45.804 188.114 45.1 188.774 44.616C189.434 44.1173 190.321 43.868 191.436 43.868H191.458C192.279 43.868 192.946 44.022 193.46 44.33C193.973 44.638 194.369 45.012 194.648 45.452C194.941 45.936 195.124 46.442 195.198 46.97H193.658C193.628 46.7647 193.533 46.5227 193.372 46.244C193.005 45.6867 192.367 45.3933 191.458 45.364C190.534 45.364 189.925 45.518 189.632 45.826C189.338 46.134 189.162 46.4933 189.104 46.904C189.089 46.9627 189.082 47.0433 189.082 47.146C189.082 47.498 189.206 47.8133 189.456 48.092C189.661 48.3413 189.925 48.51 190.248 48.598C190.57 48.6713 191.032 48.73 191.634 48.774C192.118 48.8033 192.528 48.8473 192.866 48.906C193.218 48.9647 193.548 49.0747 193.856 49.236C194.809 49.7493 195.286 50.622 195.286 51.854C195.286 52.2793 195.198 52.69 195.022 53.086C194.86 53.4673 194.626 53.8047 194.318 54.098C193.628 54.7727 192.682 55.11 191.48 55.11C190.306 55.11 189.353 54.78 188.62 54.12C188.048 53.5627 187.696 52.8733 187.564 52.052H189.104Z" fill="#4D4D4D"/>
</g>
<defs>
<clipPath id="clip0_4719_6705">
<rect width="256" height="60" fill="white"/>
</clipPath>
<clipPath id="clip1_4719_6705">
<rect width="58" height="58" fill="white" transform="translate(2 1)"/>
</clipPath>
</defs>
</svg>
