<svg width="136" height="108" viewBox="0 0 136 108" fill="none" xmlns="http://www.w3.org/2000/svg">
<g clip-path="url(#clip0_2056_1719)">
<g clip-path="url(#clip1_2056_1719)">
<path d="M68.0005 1.32532C75.6585 1.32543 82.8608 4.30884 88.2759 9.72375C93.6911 15.1391 96.6753 22.3418 96.6753 30.0001C96.6753 33.8802 96.2887 36.6152 95.1841 39.5411L94.9526 40.1554L94.3882 39.8195C93.4774 39.2764 92.4539 38.9048 91.3618 38.7482L90.6792 38.6495L90.9253 38.007C91.8413 35.6135 92.147 33.4337 92.147 30.0001C92.147 23.5493 89.6361 17.4875 85.0747 12.9259C80.5133 8.36464 74.4512 5.85375 68.0005 5.85364C63.628 5.85364 59.1554 7.1388 54.9185 9.6095L53.9272 10.1866L54.0972 9.05286C54.1577 8.64741 54.189 8.23786 54.189 7.82727C54.189 7.02494 54.0723 6.24911 53.8589 5.51379L53.7329 5.08118L54.1333 4.87317C58.6065 2.5459 63.325 1.32532 68.0005 1.32532Z" fill="white" stroke="white" stroke-width="1.1"/>
<path d="M85.5527 49.5628C85.6242 49.6814 85.5573 49.5714 85.7265 49.8427L89.8573 56.4935C90.1103 56.9007 90.7071 56.8877 90.9421 56.47L94.8316 49.5542H94.8278C95.3138 48.7095 95.5773 47.7205 95.5339 46.6663C95.4199 43.8961 93.1575 41.6445 90.3868 41.5444C87.3415 41.4342 84.8381 43.8703 84.8381 46.891C84.8381 47.8646 85.0994 48.7765 85.5539 49.5629H85.5527V49.5628ZM90.1884 45.2247C91.108 45.2247 91.8535 45.9702 91.8535 46.8899C91.8535 47.8095 91.108 48.555 90.1884 48.555C89.2687 48.555 88.5232 47.8095 88.5232 46.8899C88.5232 45.9702 89.2688 45.2247 90.1884 45.2247Z" fill="white"/>
<path d="M50.5933 10.5312H50.5894C51.0828 9.67363 51.3503 8.66959 51.3063 7.59921C51.1907 4.78656 48.8936 2.50057 46.0804 2.39891C42.9887 2.28713 40.447 4.76037 40.447 7.82728C40.447 8.8157 40.7124 9.74163 41.1737 10.5401H41.1725C41.2451 10.6606 41.1771 10.5488 41.349 10.8243L45.5516 17.5907C45.8045 17.9978 46.4014 17.9849 46.6364 17.5671L50.5933 10.5312ZM44.1885 7.82629C44.1885 6.89266 44.9454 6.13573 45.879 6.13573C46.8128 6.13573 47.5696 6.89266 47.5696 7.82629C47.5696 8.76003 46.8127 9.51685 45.879 9.51685C44.9454 9.51685 44.1885 8.75992 44.1885 7.82629Z" fill="white"/>
<path d="M42.543 18.2005L43.6689 20.014C43.9413 20.4526 44.3228 20.8013 44.7656 21.0364L45.1875 21.261L45.0244 21.7103C44.2002 23.9817 43.8535 26.5374 43.8535 30.0003C43.8536 36.4511 46.3643 42.513 50.9258 47.0745C55.4872 51.6358 61.5492 54.1468 68 54.1468C73.2201 54.1468 77.6398 52.7405 81.7344 49.7552L82.3027 49.3401L82.5684 49.9925C82.697 50.3085 82.8446 50.6167 83.0117 50.9144L83.0166 50.9241C83.0391 50.9662 83.0629 51.0078 83.0879 51.0491L83.1055 51.0775V51.0784C83.1272 51.1145 83.1369 51.1295 83.1445 51.1419C83.1521 51.1542 83.158 51.1641 83.1748 51.1907L83.2822 51.3616V51.3626L84.2402 52.9046L84.5127 53.3431L84.0928 53.6429C79.2942 57.0628 74.0873 58.6751 68 58.6751C60.3417 58.6751 53.1389 55.6919 47.7236 50.2767C42.3084 44.8614 39.3253 37.6586 39.3252 30.0003C39.3252 25.8264 39.7427 22.0841 41.5791 18.2532L42.0127 17.348L42.543 18.2005Z" fill="white" stroke="white" stroke-width="1.1"/>
<path d="M53.9521 26.0502C54.659 26.215 55.518 26.1911 56.5784 25.9772C57.4005 25.8114 58.0736 25.451 58.4736 24.9623C58.6823 24.7073 58.8732 24.3515 59.0752 23.9748C59.375 23.4156 59.7148 22.7819 60.2456 22.2064C61.1994 21.172 62.4113 20.6945 63.4806 20.2733C63.8157 20.1411 64.1322 20.0164 64.4229 19.882C67.0975 18.6451 69.082 15.2041 68.8467 12.2113C68.8387 12.1091 68.8414 12.0087 68.851 11.9101C68.5689 11.897 68.2854 11.8896 68.0001 11.8896C59.3221 11.8896 52.0714 17.9955 50.3064 26.1451C51.4917 25.8968 52.7898 25.7796 53.9521 26.0502Z" fill="white"/>
<path d="M85.7549 33.1061C84.1752 32.834 81.4211 32.7845 79.8401 32.9093C74.4312 33.3355 71.9974 32.7239 70.173 31.9997C69.91 31.8953 69.6525 31.7841 69.4038 31.6766C68.5464 31.3063 67.7371 30.9568 67.1705 31.0913C66.7076 31.2018 66.2506 31.7308 66.0334 32.4077C65.7682 33.2341 65.7921 34.2251 65.8472 35.3411L65.8659 35.7151C65.9579 37.5331 66.0531 39.4129 65.6655 41.3226C65.2623 43.3096 63.4965 45.6284 61.7881 47.0062C63.7255 47.7138 65.8176 48.1001 67.9999 48.1001C76.9348 48.1001 84.3572 41.6278 85.8363 33.1159C85.8092 33.1125 85.7822 33.1107 85.7549 33.1061Z" fill="white"/>
<path d="M59.0795 44.734C60.4045 43.9421 62.0632 41.8381 62.3061 40.6407C62.6076 39.1545 62.5273 37.5679 62.4423 35.8881L62.4234 35.5099C62.354 34.1069 62.3284 32.7337 62.7694 31.3598C63.3574 29.5278 64.7389 28.1472 66.3746 27.7568C68.0495 27.3567 69.5543 28.0072 70.7632 28.5295C70.9994 28.6316 71.2224 28.7278 71.4378 28.8134C73.9958 29.8288 76.9772 29.6961 79.5708 29.4916C81.2794 29.3572 84.1962 29.3981 86.1013 29.6897C85.9626 21.3032 80.1226 14.3048 72.2883 12.4018C72.4226 16.7156 69.724 21.207 65.8616 22.9933C65.481 23.1694 65.1029 23.3184 64.737 23.4625C63.9399 23.7766 63.1869 24.0732 62.7655 24.5303C62.5299 24.7858 62.3192 25.1787 62.0961 25.5947C61.8381 26.0759 61.5457 26.6211 61.1259 27.1339C60.2259 28.2332 58.8516 29.0158 57.256 29.3377C55.7047 29.6507 54.3696 29.6674 53.1741 29.389C52.294 29.1841 50.9743 29.4703 49.8972 29.7892C49.8964 29.8579 49.8945 29.9262 49.8945 29.9949C49.8945 36.4917 53.3171 42.1881 58.4568 45.3824C58.5987 45.1232 58.8077 44.8965 59.0795 44.734Z" fill="white"/>
</g>
<path d="M32.0141 90H26.9867V69.8379H19.4105V64.793H39.5727V69.8379H32.0141V90ZM40.6266 90V76.86C40.6266 75.228 41.0826 73.956 41.9946 73.044C42.9306 72.108 44.2146 71.64 45.8466 71.64H50.9226V75.852H46.7106C46.3986 75.852 46.1226 75.96 45.8826 76.176C45.6666 76.392 45.5586 76.668 45.5586 77.004V90H40.6266ZM59.4347 90.432C57.7547 90.432 56.2907 90 55.0427 89.136C53.7947 88.272 52.8227 87.12 52.1267 85.68C51.4547 84.216 51.1187 82.608 51.1187 80.856C51.1187 79.056 51.5027 77.424 52.2707 75.96C53.0627 74.496 54.1907 73.344 55.6547 72.504C57.1187 71.64 58.8707 71.208 60.9107 71.208C62.9747 71.208 64.7147 71.64 66.1307 72.504C67.5467 73.368 68.6267 74.532 69.3707 75.996C70.1147 77.46 70.4867 79.08 70.4867 80.856V90H65.5547V86.94H65.4827C65.1227 87.588 64.6667 88.176 64.1147 88.704C63.5867 89.232 62.9387 89.652 62.1707 89.964C61.4027 90.276 60.4907 90.432 59.4347 90.432ZM60.8387 86.22C61.7987 86.22 62.6267 85.98 63.3227 85.5C64.0187 85.02 64.5467 84.372 64.9067 83.556C65.2907 82.716 65.4827 81.792 65.4827 80.784C65.4827 79.776 65.2907 78.876 64.9067 78.084C64.5467 77.268 64.0187 76.62 63.3227 76.14C62.6267 75.66 61.7987 75.42 60.8387 75.42C59.8547 75.42 59.0027 75.66 58.2827 76.14C57.5867 76.62 57.0467 77.268 56.6627 78.084C56.3027 78.876 56.1227 79.776 56.1227 80.784C56.1227 81.792 56.3027 82.716 56.6627 83.556C57.0467 84.372 57.5867 85.02 58.2827 85.5C59.0027 85.98 59.8547 86.22 60.8387 86.22ZM80.3023 90.432C79.2223 90.432 78.2383 90.144 77.3503 89.568C76.4863 88.992 75.8863 88.236 75.5503 87.3L70.2943 71.64H75.6583L79.9063 85.284C79.9543 85.38 80.0143 85.452 80.0863 85.5C80.1583 85.548 80.2423 85.572 80.3383 85.572C80.4343 85.572 80.5183 85.548 80.5903 85.5C80.6863 85.452 80.7463 85.38 80.7703 85.284L85.0543 71.64H90.3103L85.0543 87.264C84.7183 88.2 84.1063 88.968 83.2183 89.568C82.3543 90.144 81.3823 90.432 80.3023 90.432ZM100.125 90C98.0374 90 96.2134 89.604 94.6534 88.812C93.1174 87.996 91.9174 86.892 91.0534 85.5C90.2134 84.108 89.7934 82.548 89.7934 80.82C89.7934 78.876 90.1894 77.184 90.9814 75.744C91.7734 74.304 92.8534 73.188 94.2214 72.396C95.5894 71.604 97.1374 71.208 98.8654 71.208C100.929 71.208 102.597 71.64 103.869 72.504C105.165 73.368 106.113 74.532 106.713 75.996C107.313 77.436 107.613 79.044 107.613 80.82C107.613 81.06 107.601 81.348 107.577 81.684C107.553 81.996 107.517 82.236 107.469 82.404H95.0494C95.2414 83.148 95.5654 83.772 96.0214 84.276C96.5014 84.78 97.0894 85.164 97.7854 85.428C98.5054 85.668 99.3094 85.788 100.197 85.788H105.309V90H100.125ZM95.0134 79.092H102.681C102.633 78.636 102.549 78.216 102.429 77.832C102.309 77.424 102.141 77.064 101.925 76.752C101.709 76.44 101.457 76.176 101.169 75.96C100.881 75.744 100.545 75.576 100.161 75.456C99.7774 75.336 99.3574 75.276 98.9014 75.276C98.3014 75.276 97.7614 75.384 97.2814 75.6C96.8254 75.816 96.4414 76.104 96.1294 76.464C95.8174 76.824 95.5654 77.232 95.3734 77.688C95.2054 78.144 95.0854 78.612 95.0134 79.092ZM109.648 90V63.72H114.58V90H109.648Z" fill="white"/>
<path d="M29.138 95.704V99.288C29.782 98.42 30.6547 97.986 31.756 97.986C32.4 97.986 32.9927 98.1447 33.534 98.462C34.0753 98.7793 34.5047 99.2133 34.822 99.764C35.1393 100.305 35.298 100.893 35.298 101.528C35.298 102.163 35.1393 102.755 34.822 103.306C34.5047 103.847 34.0753 104.277 33.534 104.594C32.9927 104.911 32.4 105.07 31.756 105.07C30.692 105.07 29.8193 104.613 29.138 103.698V105H28.2V95.704H29.138ZM29.166 101.528C29.166 101.995 29.2827 102.429 29.516 102.83C29.7493 103.222 30.062 103.535 30.454 103.768C30.8553 104.001 31.2893 104.118 31.756 104.118C32.2227 104.118 32.652 104.001 33.044 103.768C33.436 103.535 33.7487 103.222 33.982 102.83C34.2153 102.429 34.332 101.995 34.332 101.528C34.332 101.061 34.2153 100.632 33.982 100.24C33.7487 99.848 33.436 99.5353 33.044 99.302C32.652 99.0687 32.2227 98.952 31.756 98.952C31.2893 98.952 30.8553 99.0687 30.454 99.302C30.062 99.5353 29.7493 99.848 29.516 100.24C29.2827 100.632 29.166 101.061 29.166 101.528ZM42.4895 98V104.944C42.4895 105.495 42.3542 106.003 42.0835 106.47C41.8128 106.937 41.4442 107.305 40.9775 107.576C40.5108 107.847 40.0022 107.982 39.4515 107.982C38.9195 107.982 38.4295 107.856 37.9815 107.604C37.5335 107.352 37.1695 107.011 36.8895 106.582L37.7295 106.106C37.9162 106.386 38.1588 106.61 38.4575 106.778C38.7655 106.946 39.0968 107.03 39.4515 107.03C39.8248 107.03 40.1702 106.937 40.4875 106.75C40.8142 106.563 41.0708 106.307 41.2575 105.98C41.4442 105.663 41.5375 105.317 41.5375 104.944V104.202C41.2575 104.463 40.9402 104.669 40.5855 104.818C40.2308 104.958 39.8528 105.028 39.4515 105.028C38.9102 105.028 38.4062 104.897 37.9395 104.636C37.4822 104.365 37.1135 104.006 36.8335 103.558C36.5628 103.11 36.4228 102.615 36.4135 102.074V98H37.3655V101.99C37.3655 102.363 37.4588 102.713 37.6455 103.04C37.8322 103.357 38.0842 103.609 38.4015 103.796C38.7282 103.983 39.0782 104.076 39.4515 104.076C39.8248 104.076 40.1702 103.983 40.4875 103.796C40.8142 103.609 41.0708 103.357 41.2575 103.04C41.4442 102.713 41.5375 102.363 41.5375 101.99V98H42.4895ZM51.136 95.704V99.288C51.78 98.42 52.6527 97.986 53.754 97.986C54.398 97.986 54.9907 98.1447 55.532 98.462C56.0734 98.7793 56.5027 99.2133 56.82 99.764C57.1374 100.305 57.296 100.893 57.296 101.528C57.296 102.163 57.1374 102.755 56.82 103.306C56.5027 103.847 56.0734 104.277 55.532 104.594C54.9907 104.911 54.398 105.07 53.754 105.07C52.69 105.07 51.8174 104.613 51.136 103.698V105H50.198V95.704H51.136ZM51.164 101.528C51.164 101.995 51.2807 102.429 51.514 102.83C51.7474 103.222 52.06 103.535 52.452 103.768C52.8534 104.001 53.2874 104.118 53.754 104.118C54.2207 104.118 54.65 104.001 55.042 103.768C55.434 103.535 55.7467 103.222 55.98 102.83C56.2134 102.429 56.33 101.995 56.33 101.528C56.33 101.061 56.2134 100.632 55.98 100.24C55.7467 99.848 55.434 99.5353 55.042 99.302C54.65 99.0687 54.2207 98.952 53.754 98.952C53.2874 98.952 52.8534 99.0687 52.452 99.302C52.06 99.5353 51.7474 99.848 51.514 100.24C51.2807 100.632 51.164 101.061 51.164 101.528ZM59.1816 96.054C59.3496 96.054 59.4942 96.1147 59.6156 96.236C59.7369 96.3573 59.7976 96.502 59.7976 96.67C59.7976 96.8473 59.7369 96.9967 59.6156 97.118C59.4942 97.2393 59.3496 97.3 59.1816 97.3C59.0042 97.3 58.8549 97.2393 58.7336 97.118C58.6122 96.9967 58.5516 96.8473 58.5516 96.67C58.5516 96.502 58.6122 96.3573 58.7336 96.236C58.8549 96.1147 59.0042 96.054 59.1816 96.054ZM59.6576 98V105H58.6916V98H59.6576ZM63.9759 98C64.4799 98 64.9419 98.126 65.3619 98.378C65.7912 98.6207 66.1319 98.9567 66.3839 99.386C66.6359 99.806 66.7619 100.268 66.7619 100.772V105H65.7959V100.772C65.7959 100.445 65.7119 100.147 65.5439 99.876C65.3852 99.596 65.1659 99.3767 64.8859 99.218C64.6059 99.05 64.3026 98.966 63.9759 98.966C63.6492 98.966 63.3459 99.05 63.0659 99.218C62.7859 99.3767 62.5619 99.596 62.3939 99.876C62.2352 100.147 62.1559 100.445 62.1559 100.772V105H61.2039V98.182H62.1559V98.798C62.3892 98.5367 62.6599 98.3407 62.9679 98.21C63.2852 98.07 63.6212 98 63.9759 98ZM74.9842 105H74.0462V103.698C73.3648 104.613 72.4922 105.07 71.4282 105.07C70.7842 105.07 70.1915 104.911 69.6502 104.594C69.1088 104.277 68.6795 103.847 68.3622 103.306C68.0448 102.755 67.8862 102.163 67.8862 101.528C67.8862 100.893 68.0448 100.305 68.3622 99.764C68.6795 99.2133 69.1088 98.7793 69.6502 98.462C70.1915 98.1447 70.7842 97.986 71.4282 97.986C72.5295 97.986 73.4022 98.42 74.0462 99.288V95.704H74.9842V105ZM74.0182 101.528C74.0182 101.061 73.9015 100.632 73.6682 100.24C73.4348 99.848 73.1175 99.5353 72.7162 99.302C72.3242 99.0687 71.8948 98.952 71.4282 98.952C70.9615 98.952 70.5322 99.0687 70.1402 99.302C69.7482 99.5353 69.4355 99.848 69.2022 100.24C68.9688 100.632 68.8522 101.061 68.8522 101.528C68.8522 101.995 68.9688 102.429 69.2022 102.83C69.4355 103.222 69.7482 103.535 70.1402 103.768C70.5322 104.001 70.9615 104.118 71.4282 104.118C71.8948 104.118 72.3242 104.001 72.7162 103.768C73.1175 103.535 73.4348 103.222 73.6682 102.83C73.9015 102.429 74.0182 101.995 74.0182 101.528ZM86.6837 98L83.9257 105H82.9177L81.4757 101.374L80.0337 105H79.0257L76.2397 98H77.2757L79.5297 103.67L80.9577 100.086L80.1317 98H81.1677L83.4217 103.67L85.6617 98H86.6837ZM94.0421 98.182V105H93.0761V103.712C92.4321 104.617 91.5734 105.07 90.5001 105.07C89.8561 105.07 89.2634 104.916 88.7221 104.608C88.1808 104.291 87.7514 103.861 87.4341 103.32C87.1261 102.779 86.9721 102.191 86.9721 101.556C86.9721 100.912 87.1261 100.319 87.4341 99.778C87.7514 99.2367 88.1808 98.812 88.7221 98.504C89.2634 98.1867 89.8561 98.028 90.5001 98.028C91.1628 98.028 91.7041 98.168 92.1241 98.448C92.5534 98.7187 92.8708 99.0127 93.0761 99.33V98.182H94.0421ZM90.5001 104.118C90.9668 104.118 91.3961 104.006 91.7881 103.782C92.1801 103.549 92.4881 103.236 92.7121 102.844C92.9454 102.452 93.0621 102.023 93.0621 101.556C93.0621 101.089 92.9454 100.66 92.7121 100.268C92.4881 99.8667 92.1801 99.554 91.7881 99.33C91.3961 99.0967 90.9668 98.98 90.5001 98.98C90.0334 98.98 89.5994 99.0967 89.1981 99.33C88.8061 99.554 88.4934 99.8667 88.2601 100.268C88.0361 100.66 87.9241 101.089 87.9241 101.556C87.9241 102.023 88.0361 102.452 88.2601 102.844C88.4934 103.236 88.8061 103.549 89.1981 103.782C89.5994 104.006 90.0334 104.118 90.5001 104.118ZM101.374 98V104.944C101.374 105.495 101.239 106.003 100.968 106.47C100.698 106.937 100.329 107.305 99.8623 107.576C99.3956 107.847 98.8869 107.982 98.3363 107.982C97.8043 107.982 97.3143 107.856 96.8663 107.604C96.4183 107.352 96.0543 107.011 95.7743 106.582L96.6143 106.106C96.8009 106.386 97.0436 106.61 97.3423 106.778C97.6503 106.946 97.9816 107.03 98.3363 107.03C98.7096 107.03 99.0549 106.937 99.3723 106.75C99.6989 106.563 99.9556 106.307 100.142 105.98C100.329 105.663 100.422 105.317 100.422 104.944V104.202C100.142 104.463 99.8249 104.669 99.4703 104.818C99.1156 104.958 98.7376 105.028 98.3363 105.028C97.7949 105.028 97.2909 104.897 96.8243 104.636C96.3669 104.365 95.9983 104.006 95.7183 103.558C95.4476 103.11 95.3076 102.615 95.2983 102.074V98H96.2503V101.99C96.2503 102.363 96.3436 102.713 96.5303 103.04C96.7169 103.357 96.9689 103.609 97.2863 103.796C97.6129 103.983 97.9629 104.076 98.3363 104.076C98.7096 104.076 99.0549 103.983 99.3723 103.796C99.6989 103.609 99.9556 103.357 100.142 103.04C100.329 102.713 100.422 102.363 100.422 101.99V98H101.374ZM103.483 103.124C103.558 103.385 103.675 103.591 103.833 103.74C104.095 103.983 104.477 104.104 104.981 104.104C105.42 104.104 105.775 104.001 106.045 103.796C106.316 103.591 106.451 103.325 106.451 102.998C106.451 102.69 106.391 102.461 106.269 102.312C106.148 102.163 105.989 102.069 105.793 102.032C105.607 101.985 105.345 101.957 105.009 101.948C104.524 101.92 104.127 101.869 103.819 101.794C103.511 101.71 103.231 101.528 102.979 101.248C102.671 100.865 102.517 100.445 102.517 99.988C102.517 99.876 102.522 99.792 102.531 99.736C102.606 99.148 102.853 98.7 103.273 98.392C103.693 98.0747 104.258 97.916 104.967 97.916H104.981C105.504 97.916 105.929 98.014 106.255 98.21C106.582 98.406 106.834 98.644 107.011 98.924C107.198 99.232 107.315 99.554 107.361 99.89H106.381C106.363 99.7593 106.302 99.6053 106.199 99.428C105.966 99.0733 105.56 98.8867 104.981 98.868C104.393 98.868 104.006 98.966 103.819 99.162C103.633 99.358 103.521 99.5867 103.483 99.848C103.474 99.8853 103.469 99.9367 103.469 100.002C103.469 100.226 103.549 100.427 103.707 100.604C103.838 100.763 104.006 100.87 104.211 100.926C104.417 100.973 104.711 101.01 105.093 101.038C105.401 101.057 105.663 101.085 105.877 101.122C106.101 101.159 106.311 101.229 106.507 101.332C107.114 101.659 107.417 102.214 107.417 102.998C107.417 103.269 107.361 103.53 107.249 103.782C107.147 104.025 106.997 104.239 106.801 104.426C106.363 104.855 105.761 105.07 104.995 105.07C104.249 105.07 103.642 104.86 103.175 104.44C102.811 104.085 102.587 103.647 102.503 103.124H103.483Z" fill="white"/>
</g>
<defs>
<clipPath id="clip0_2056_1719">
<rect width="136" height="108" fill="white"/>
</clipPath>
<clipPath id="clip1_2056_1719">
<rect width="60" height="60" fill="white" transform="translate(38)"/>
</clipPath>
</defs>
</svg>
