<svg width="201" height="60" viewBox="0 0 201 60" fill="none" xmlns="http://www.w3.org/2000/svg">
<g clip-path="url(#clip0_2067_1739)">
<g clip-path="url(#clip1_2067_1739)">
<path d="M30.0005 1.32532C37.6585 1.32543 44.8608 4.30884 50.2759 9.72375C55.6911 15.1391 58.6753 22.3418 58.6753 30.0001C58.6753 33.8802 58.2887 36.6152 57.1841 39.5411L56.9526 40.1554L56.3882 39.8195C55.4774 39.2764 54.4539 38.9048 53.3618 38.7482L52.6792 38.6495L52.9253 38.007C53.8413 35.6135 54.147 33.4337 54.147 30.0001C54.147 23.5493 51.6361 17.4875 47.0747 12.9259C42.5133 8.36464 36.4512 5.85375 30.0005 5.85364C25.628 5.85364 21.1554 7.1388 16.9185 9.6095L15.9272 10.1866L16.0972 9.05286C16.1577 8.64741 16.189 8.23786 16.189 7.82727C16.189 7.02494 16.0723 6.24911 15.8589 5.51379L15.7329 5.08118L16.1333 4.87317C20.6065 2.5459 25.325 1.32532 30.0005 1.32532Z" fill="#4D4D4D" stroke="#4D4D4D" stroke-width="1.1"/>
<path d="M47.5527 49.5628C47.6242 49.6814 47.5573 49.5714 47.7265 49.8427L51.8573 56.4935C52.1103 56.9007 52.7071 56.8877 52.9421 56.47L56.8316 49.5542H56.8278C57.3138 48.7095 57.5773 47.7205 57.5339 46.6663C57.4199 43.8961 55.1575 41.6445 52.3868 41.5444C49.3415 41.4342 46.8381 43.8703 46.8381 46.891C46.8381 47.8646 47.0994 48.7765 47.5539 49.5629H47.5527V49.5628ZM52.1884 45.2247C53.108 45.2247 53.8535 45.9702 53.8535 46.8899C53.8535 47.8095 53.108 48.555 52.1884 48.555C51.2687 48.555 50.5232 47.8095 50.5232 46.8899C50.5232 45.9702 51.2688 45.2247 52.1884 45.2247Z" fill="#4D4D4D"/>
<path d="M12.5933 10.5312H12.5894C13.0828 9.67363 13.3503 8.66959 13.3063 7.59921C13.1907 4.78656 10.8936 2.50057 8.08036 2.39891C4.9887 2.28713 2.44702 4.76037 2.44702 7.82728C2.44702 8.8157 2.71239 9.74163 3.1737 10.5401H3.17249C3.2451 10.6606 3.17711 10.5488 3.34896 10.8243L7.55161 17.5907C7.80454 17.9978 8.4014 17.9849 8.6364 17.5671L12.5933 10.5312ZM6.18846 7.82629C6.18846 6.89266 6.9454 6.13573 7.87902 6.13573C8.81276 6.13573 9.56959 6.89266 9.56959 7.82629C9.56959 8.76003 8.81265 9.51685 7.87902 9.51685C6.9454 9.51685 6.18846 8.75992 6.18846 7.82629Z" fill="#4D4D4D"/>
<path d="M4.54297 18.2004L5.66895 20.0139C5.94131 20.4525 6.3228 20.8013 6.76562 21.0364L7.1875 21.261L7.02441 21.7102C6.20019 23.9816 5.85352 26.5373 5.85352 30.0002C5.85362 36.451 8.36429 42.513 12.9258 47.0745C17.4872 51.6357 23.5492 54.1467 30 54.1467C35.2201 54.1467 39.6398 52.7405 43.7344 49.7551L44.3027 49.3401L44.5684 49.9924C44.697 50.3085 44.8446 50.6166 45.0117 50.9143L45.0166 50.9241C45.0391 50.9661 45.0629 51.0077 45.0879 51.0491L45.1055 51.0774V51.0784C45.1272 51.1144 45.1369 51.1295 45.1445 51.1418C45.1521 51.1541 45.158 51.164 45.1748 51.1907L45.2822 51.3616V51.3625L46.2402 52.9045L46.5127 53.343L46.0928 53.6428C41.2942 57.0627 36.0873 58.675 30 58.675C22.3417 58.675 15.1389 55.6919 9.72363 50.2766C4.30836 44.8613 1.32527 37.6585 1.3252 30.0002C1.3252 25.8263 1.74273 22.0841 3.5791 18.2532L4.0127 17.3479L4.54297 18.2004Z" fill="#4D4D4D" stroke="#4D4D4D" stroke-width="1.1"/>
<path d="M15.9521 26.0502C16.659 26.215 17.518 26.1911 18.5784 25.9772C19.4005 25.8114 20.0736 25.451 20.4736 24.9623C20.6823 24.7073 20.8732 24.3515 21.0752 23.9748C21.375 23.4156 21.7148 22.7819 22.2456 22.2064C23.1994 21.172 24.4113 20.6945 25.4806 20.2733C25.8157 20.1411 26.1322 20.0164 26.4229 19.882C29.0975 18.6451 31.082 15.2041 30.8467 12.2113C30.8387 12.1091 30.8414 12.0087 30.851 11.9101C30.5689 11.897 30.2854 11.8896 30.0001 11.8896C21.3221 11.8896 14.0714 17.9955 12.3064 26.1451C13.4917 25.8968 14.7898 25.7796 15.9521 26.0502Z" fill="#4D4D4D"/>
<path d="M47.7549 33.1061C46.1752 32.834 43.4211 32.7845 41.8401 32.9093C36.4312 33.3355 33.9974 32.7239 32.173 31.9997C31.91 31.8953 31.6525 31.7841 31.4038 31.6766C30.5464 31.3063 29.7371 30.9568 29.1705 31.0913C28.7076 31.2018 28.2506 31.7308 28.0334 32.4077C27.7682 33.2341 27.7921 34.2251 27.8472 35.3411L27.8659 35.7151C27.9579 37.5331 28.0531 39.4129 27.6655 41.3226C27.2623 43.3096 25.4965 45.6284 23.7881 47.0062C25.7255 47.7138 27.8176 48.1001 29.9999 48.1001C38.9348 48.1001 46.3572 41.6278 47.8363 33.1159C47.8092 33.1125 47.7822 33.1107 47.7549 33.1061Z" fill="#4D4D4D"/>
<path d="M21.0795 44.7339C22.4045 43.9421 24.0632 41.8381 24.3061 40.6406C24.6076 39.1545 24.5273 37.5679 24.4423 35.8881L24.4234 35.5098C24.354 34.1069 24.3284 32.7336 24.7694 31.3598C25.3574 29.5277 26.7389 28.1471 28.3746 27.7567C30.0495 27.3566 31.5543 28.0072 32.7632 28.5294C32.9994 28.6315 33.2224 28.7278 33.4378 28.8134C35.9958 29.8287 38.9772 29.6961 41.5708 29.4915C43.2794 29.3571 46.1962 29.398 48.1013 29.6897C47.9626 21.3031 42.1226 14.3047 34.2883 12.4017C34.4226 16.7155 31.724 21.2069 27.8616 22.9932C27.481 23.1694 27.1029 23.3183 26.737 23.4625C25.9399 23.7766 25.1869 24.0732 24.7655 24.5302C24.5299 24.7858 24.3192 25.1787 24.0961 25.5946C23.8381 26.0759 23.5457 26.621 23.1259 27.1338C22.2259 28.2331 20.8516 29.0157 19.256 29.3376C17.7047 29.6506 16.3696 29.6673 15.1741 29.3889C14.294 29.184 12.9743 29.4702 11.8972 29.7891C11.8964 29.8578 11.8945 29.9261 11.8945 29.9949C11.8945 36.4917 15.3171 42.188 20.4568 45.3823C20.5987 45.1231 20.8077 44.8964 21.0795 44.7339Z" fill="#4D4D4D"/>
</g>
<path d="M82.9443 35H75.9619V6.99707H65.4395V-0.00976562H93.4424V6.99707H82.9443V35ZM94.9063 35V16.75C94.9063 14.4833 95.5396 12.7167 96.8063 11.45C98.1063 10.15 99.8896 9.5 102.156 9.5H109.206V15.35H103.356C102.923 15.35 102.54 15.5 102.206 15.8C101.906 16.1 101.756 16.4833 101.756 16.95V35H94.9063ZM121.029 35.6C118.695 35.6 116.662 35 114.929 33.8C113.195 32.6 111.845 31 110.879 29C109.945 26.9667 109.479 24.7333 109.479 22.3C109.479 19.8 110.012 17.5333 111.079 15.5C112.179 13.4667 113.745 11.8667 115.779 10.7C117.812 9.5 120.245 8.9 123.079 8.9C125.945 8.9 128.362 9.5 130.329 10.7C132.295 11.9 133.795 13.5167 134.829 15.55C135.862 17.5833 136.379 19.8333 136.379 22.3V35H129.529V30.75H129.429C128.929 31.65 128.295 32.4667 127.529 33.2C126.795 33.9333 125.895 34.5167 124.829 34.95C123.762 35.3833 122.495 35.6 121.029 35.6ZM122.979 29.75C124.312 29.75 125.462 29.4167 126.429 28.75C127.395 28.0833 128.129 27.1833 128.629 26.05C129.162 24.8833 129.429 23.6 129.429 22.2C129.429 20.8 129.162 19.55 128.629 18.45C128.129 17.3167 127.395 16.4167 126.429 15.75C125.462 15.0833 124.312 14.75 122.979 14.75C121.612 14.75 120.429 15.0833 119.429 15.75C118.462 16.4167 117.712 17.3167 117.179 18.45C116.679 19.55 116.429 20.8 116.429 22.2C116.429 23.6 116.679 24.8833 117.179 26.05C117.712 27.1833 118.462 28.0833 119.429 28.75C120.429 29.4167 121.612 29.75 122.979 29.75ZM150.011 35.6C148.511 35.6 147.145 35.2 145.911 34.4C144.711 33.6 143.878 32.55 143.411 31.25L136.111 9.5H143.561L149.461 28.45C149.528 28.5833 149.611 28.6833 149.711 28.75C149.811 28.8167 149.928 28.85 150.061 28.85C150.195 28.85 150.311 28.8167 150.411 28.75C150.545 28.6833 150.628 28.5833 150.661 28.45L156.611 9.5H163.911L156.611 31.2C156.145 32.5 155.295 33.5667 154.061 34.4C152.861 35.2 151.511 35.6 150.011 35.6ZM177.543 35C174.643 35 172.11 34.45 169.943 33.35C167.81 32.2167 166.143 30.6833 164.943 28.75C163.777 26.8167 163.193 24.65 163.193 22.25C163.193 19.55 163.743 17.2 164.843 15.2C165.943 13.2 167.443 11.65 169.343 10.55C171.243 9.45 173.393 8.9 175.793 8.9C178.66 8.9 180.977 9.5 182.743 10.7C184.543 11.9 185.86 13.5167 186.693 15.55C187.527 17.55 187.943 19.7833 187.943 22.25C187.943 22.5833 187.927 22.9833 187.893 23.45C187.86 23.8833 187.81 24.2167 187.743 24.45H170.493C170.76 25.4833 171.21 26.35 171.843 27.05C172.51 27.75 173.327 28.2833 174.293 28.65C175.293 28.9833 176.41 29.15 177.643 29.15H184.743V35H177.543ZM170.443 19.85H181.093C181.027 19.2167 180.91 18.6333 180.743 18.1C180.577 17.5333 180.343 17.0333 180.043 16.6C179.743 16.1667 179.393 15.8 178.993 15.5C178.593 15.2 178.127 14.9667 177.593 14.8C177.06 14.6333 176.477 14.55 175.843 14.55C175.01 14.55 174.26 14.7 173.593 15C172.96 15.3 172.427 15.7 171.993 16.2C171.56 16.7 171.21 17.2667 170.943 17.9C170.71 18.5333 170.543 19.1833 170.443 19.85ZM190.77 35V-1.5H197.62V35H190.77Z" fill="#4D4D4D"/>
<path d="M70.2752 40.392V46.024C71.2872 44.66 72.6585 43.978 74.3892 43.978C75.4012 43.978 76.3325 44.2273 77.1832 44.726C78.0338 45.2247 78.7085 45.9067 79.2072 46.772C79.7058 47.6227 79.9552 48.5467 79.9552 49.544C79.9552 50.5413 79.7058 51.4727 79.2072 52.338C78.7085 53.1887 78.0338 53.8633 77.1832 54.362C76.3325 54.8607 75.4012 55.11 74.3892 55.11C72.7172 55.11 71.3458 54.3913 70.2752 52.954V55H68.8012V40.392H70.2752ZM70.3192 49.544C70.3192 50.2773 70.5025 50.9593 70.8692 51.59C71.2358 52.206 71.7272 52.6973 72.3432 53.064C72.9738 53.4307 73.6558 53.614 74.3892 53.614C75.1225 53.614 75.7972 53.4307 76.4132 53.064C77.0292 52.6973 77.5205 52.206 77.8872 51.59C78.2538 50.9593 78.4372 50.2773 78.4372 49.544C78.4372 48.8107 78.2538 48.136 77.8872 47.52C77.5205 46.904 77.0292 46.4127 76.4132 46.046C75.7972 45.6793 75.1225 45.496 74.3892 45.496C73.6558 45.496 72.9738 45.6793 72.3432 46.046C71.7272 46.4127 71.2358 46.904 70.8692 47.52C70.5025 48.136 70.3192 48.8107 70.3192 49.544ZM91.2561 44V54.912C91.2561 55.7773 91.0435 56.5767 90.6181 57.31C90.1928 58.0433 89.6135 58.6227 88.8801 59.048C88.1468 59.4733 87.3475 59.686 86.4821 59.686C85.6461 59.686 84.8761 59.488 84.1721 59.092C83.4681 58.696 82.8961 58.1607 82.4561 57.486L83.7761 56.738C84.0695 57.178 84.4508 57.53 84.9201 57.794C85.4041 58.058 85.9248 58.19 86.4821 58.19C87.0688 58.19 87.6115 58.0433 88.1101 57.75C88.6235 57.4567 89.0268 57.0533 89.3201 56.54C89.6135 56.0413 89.7601 55.4987 89.7601 54.912V53.746C89.3201 54.1567 88.8215 54.4793 88.2641 54.714C87.7068 54.934 87.1128 55.044 86.4821 55.044C85.6315 55.044 84.8395 54.8387 84.1061 54.428C83.3875 54.0027 82.8081 53.438 82.3681 52.734C81.9428 52.03 81.7228 51.2527 81.7081 50.402V44H83.2041V50.27C83.2041 50.8567 83.3508 51.4067 83.6441 51.92C83.9375 52.4187 84.3335 52.8147 84.8321 53.108C85.3455 53.4013 85.8955 53.548 86.4821 53.548C87.0688 53.548 87.6115 53.4013 88.1101 53.108C88.6235 52.8147 89.0268 52.4187 89.3201 51.92C89.6135 51.4067 89.7601 50.8567 89.7601 50.27V44H91.2561ZM104.844 40.392V46.024C105.856 44.66 107.227 43.978 108.958 43.978C109.97 43.978 110.901 44.2273 111.752 44.726C112.602 45.2247 113.277 45.9067 113.776 46.772C114.274 47.6227 114.524 48.5467 114.524 49.544C114.524 50.5413 114.274 51.4727 113.776 52.338C113.277 53.1887 112.602 53.8633 111.752 54.362C110.901 54.8607 109.97 55.11 108.958 55.11C107.286 55.11 105.914 54.3913 104.844 52.954V55H103.37V40.392H104.844ZM104.888 49.544C104.888 50.2773 105.071 50.9593 105.438 51.59C105.804 52.206 106.296 52.6973 106.912 53.064C107.542 53.4307 108.224 53.614 108.958 53.614C109.691 53.614 110.366 53.4307 110.982 53.064C111.598 52.6973 112.089 52.206 112.456 51.59C112.822 50.9593 113.006 50.2773 113.006 49.544C113.006 48.8107 112.822 48.136 112.456 47.52C112.089 46.904 111.598 46.4127 110.982 46.046C110.366 45.6793 109.691 45.496 108.958 45.496C108.224 45.496 107.542 45.6793 106.912 46.046C106.296 46.4127 105.804 46.904 105.438 47.52C105.071 48.136 104.888 48.8107 104.888 49.544ZM117.486 40.942C117.75 40.942 117.978 41.0373 118.168 41.228C118.359 41.4187 118.454 41.646 118.454 41.91C118.454 42.1887 118.359 42.4233 118.168 42.614C117.978 42.8047 117.75 42.9 117.486 42.9C117.208 42.9 116.973 42.8047 116.782 42.614C116.592 42.4233 116.496 42.1887 116.496 41.91C116.496 41.646 116.592 41.4187 116.782 41.228C116.973 41.0373 117.208 40.942 117.486 40.942ZM118.234 44V55H116.716V44H118.234ZM125.02 44C125.812 44 126.538 44.198 127.198 44.594C127.873 44.9753 128.408 45.5033 128.804 46.178C129.2 46.838 129.398 47.564 129.398 48.356V55H127.88V48.356C127.88 47.8427 127.748 47.3733 127.484 46.948C127.235 46.508 126.89 46.1633 126.45 45.914C126.01 45.65 125.534 45.518 125.02 45.518C124.507 45.518 124.03 45.65 123.59 45.914C123.15 46.1633 122.798 46.508 122.534 46.948C122.285 47.3733 122.16 47.8427 122.16 48.356V55H120.664V44.286H122.16V45.254C122.527 44.8433 122.952 44.5353 123.436 44.33C123.935 44.11 124.463 44 125.02 44ZM142.319 55H140.845V52.954C139.774 54.3913 138.403 55.11 136.731 55.11C135.719 55.11 134.788 54.8607 133.937 54.362C133.086 53.8633 132.412 53.1887 131.913 52.338C131.414 51.4727 131.165 50.5413 131.165 49.544C131.165 48.5467 131.414 47.6227 131.913 46.772C132.412 45.9067 133.086 45.2247 133.937 44.726C134.788 44.2273 135.719 43.978 136.731 43.978C138.462 43.978 139.833 44.66 140.845 46.024V40.392H142.319V55ZM140.801 49.544C140.801 48.8107 140.618 48.136 140.251 47.52C139.884 46.904 139.386 46.4127 138.755 46.046C138.139 45.6793 137.464 45.496 136.731 45.496C135.998 45.496 135.323 45.6793 134.707 46.046C134.091 46.4127 133.6 46.904 133.233 47.52C132.866 48.136 132.683 48.8107 132.683 49.544C132.683 50.2773 132.866 50.9593 133.233 51.59C133.6 52.206 134.091 52.6973 134.707 53.064C135.323 53.4307 135.998 53.614 136.731 53.614C137.464 53.614 138.139 53.4307 138.755 53.064C139.386 52.6973 139.884 52.206 140.251 51.59C140.618 50.9593 140.801 50.2773 140.801 49.544ZM160.704 44L156.37 55H154.786L152.52 49.302L150.254 55H148.67L144.292 44H145.92L149.462 52.91L151.706 47.278L150.408 44H152.036L155.578 52.91L159.098 44H160.704ZM172.267 44.286V55H170.749V52.976C169.737 54.3987 168.388 55.11 166.701 55.11C165.689 55.11 164.758 54.868 163.907 54.384C163.057 53.8853 162.382 53.2107 161.883 52.36C161.399 51.5093 161.157 50.5853 161.157 49.588C161.157 48.576 161.399 47.6447 161.883 46.794C162.382 45.9433 163.057 45.276 163.907 44.792C164.758 44.2933 165.689 44.044 166.701 44.044C167.743 44.044 168.593 44.264 169.253 44.704C169.928 45.1293 170.427 45.5913 170.749 46.09V44.286H172.267ZM166.701 53.614C167.435 53.614 168.109 53.438 168.725 53.086C169.341 52.7193 169.825 52.228 170.177 51.612C170.544 50.996 170.727 50.3213 170.727 49.588C170.727 48.8547 170.544 48.18 170.177 47.564C169.825 46.9333 169.341 46.442 168.725 46.09C168.109 45.7233 167.435 45.54 166.701 45.54C165.968 45.54 165.286 45.7233 164.655 46.09C164.039 46.442 163.548 46.9333 163.181 47.564C162.829 48.18 162.653 48.8547 162.653 49.588C162.653 50.3213 162.829 50.996 163.181 51.612C163.548 52.228 164.039 52.7193 164.655 53.086C165.286 53.438 165.968 53.614 166.701 53.614ZM183.789 44V54.912C183.789 55.7773 183.577 56.5767 183.151 57.31C182.726 58.0433 182.147 58.6227 181.413 59.048C180.68 59.4733 179.881 59.686 179.015 59.686C178.179 59.686 177.409 59.488 176.705 59.092C176.001 58.696 175.429 58.1607 174.989 57.486L176.309 56.738C176.603 57.178 176.984 57.53 177.453 57.794C177.937 58.058 178.458 58.19 179.015 58.19C179.602 58.19 180.145 58.0433 180.643 57.75C181.157 57.4567 181.56 57.0533 181.853 56.54C182.147 56.0413 182.293 55.4987 182.293 54.912V53.746C181.853 54.1567 181.355 54.4793 180.797 54.714C180.24 54.934 179.646 55.044 179.015 55.044C178.165 55.044 177.373 54.8387 176.639 54.428C175.921 54.0027 175.341 53.438 174.901 52.734C174.476 52.03 174.256 51.2527 174.241 50.402V44H175.737V50.27C175.737 50.8567 175.884 51.4067 176.177 51.92C176.471 52.4187 176.867 52.8147 177.365 53.108C177.879 53.4013 178.429 53.548 179.015 53.548C179.602 53.548 180.145 53.4013 180.643 53.108C181.157 52.8147 181.56 52.4187 181.853 51.92C182.147 51.4067 182.293 50.8567 182.293 50.27V44H183.789ZM187.104 52.052C187.221 52.4627 187.404 52.7853 187.654 53.02C188.064 53.4013 188.666 53.592 189.458 53.592C190.147 53.592 190.704 53.4307 191.13 53.108C191.555 52.7853 191.768 52.3673 191.768 51.854C191.768 51.37 191.672 51.0107 191.482 50.776C191.291 50.5413 191.042 50.3947 190.734 50.336C190.44 50.2627 190.03 50.2187 189.502 50.204C188.739 50.16 188.116 50.0793 187.632 49.962C187.148 49.83 186.708 49.544 186.312 49.104C185.828 48.5027 185.586 47.8427 185.586 47.124C185.586 46.948 185.593 46.816 185.608 46.728C185.725 45.804 186.114 45.1 186.774 44.616C187.434 44.1173 188.321 43.868 189.436 43.868H189.458C190.279 43.868 190.946 44.022 191.46 44.33C191.973 44.638 192.369 45.012 192.648 45.452C192.941 45.936 193.124 46.442 193.198 46.97H191.658C191.628 46.7647 191.533 46.5227 191.372 46.244C191.005 45.6867 190.367 45.3933 189.458 45.364C188.534 45.364 187.925 45.518 187.632 45.826C187.338 46.134 187.162 46.4933 187.104 46.904C187.089 46.9627 187.082 47.0433 187.082 47.146C187.082 47.498 187.206 47.8133 187.456 48.092C187.661 48.3413 187.925 48.51 188.248 48.598C188.57 48.6713 189.032 48.73 189.634 48.774C190.118 48.8033 190.528 48.8473 190.866 48.906C191.218 48.9647 191.548 49.0747 191.856 49.236C192.809 49.7493 193.286 50.622 193.286 51.854C193.286 52.2793 193.198 52.69 193.022 53.086C192.86 53.4673 192.626 53.8047 192.318 54.098C191.628 54.7727 190.682 55.11 189.48 55.11C188.306 55.11 187.353 54.78 186.62 54.12C186.048 53.5627 185.696 52.8733 185.564 52.052H187.104Z" fill="#4D4D4D"/>
</g>
<defs>
<clipPath id="clip0_2067_1739">
<rect width="201" height="60" fill="white"/>
</clipPath>
<clipPath id="clip1_2067_1739">
<rect width="60" height="60" fill="white"/>
</clipPath>
</defs>
</svg>
