<svg width="134" height="113" viewBox="0 0 134 113" fill="none" xmlns="http://www.w3.org/2000/svg">
<g clip-path="url(#clip0_5126_8258)">
<path d="M54.8816 51.1975C58.3619 53.4635 62.5252 54.7834 67.0003 54.7834C71.475 54.7834 75.6377 53.4633 79.1178 51.1975C80.0313 52.7384 81.2967 54.0477 82.8051 55.0198C78.3408 58.1558 72.8883 60.0006 67.0003 60.0006C61.1119 60.0006 55.6588 58.1561 51.1944 55.0198C52.703 54.0478 53.968 52.7385 54.8816 51.1975ZM78.5669 8.27734C87.9006 12.5983 94.3687 21.9853 94.3687 32.8708C94.3687 33.6289 94.3346 34.3795 94.2731 35.1218C92.7171 34.3511 90.9632 33.9143 89.1055 33.9143C89.097 33.9143 89.0884 33.9143 89.0798 33.9143C89.0962 33.5685 89.1055 33.2207 89.1055 32.8708C89.1055 24.3873 84.2415 17.031 77.1277 13.3897C77.9818 11.8646 78.495 10.1278 78.5669 8.27734ZM55.4326 8.27734C55.5045 10.1277 56.0177 11.8646 56.8717 13.3897C49.7584 17.0311 44.895 24.3877 44.895 32.8708C44.895 33.2207 44.9033 33.5685 44.9197 33.9143C44.9114 33.9143 44.9032 33.9143 44.895 33.9143C43.037 33.9143 41.2825 34.3508 39.7264 35.1218C39.6649 34.3796 39.6318 33.6289 39.6318 32.8708C39.6318 21.9856 46.0993 12.5984 55.4326 8.27734Z" fill="white"/>
<path d="M61.7812 41.0855C63.3288 42.0931 65.1801 42.68 67.17 42.68C69.1598 42.68 71.0109 42.093 72.5584 41.0855C72.9646 41.7707 73.5273 42.3529 74.198 42.7852C72.2129 44.1797 69.7883 45 67.17 45C64.5516 45 62.1268 44.1798 60.1416 42.7852C60.8124 42.3529 61.3749 41.7707 61.7812 41.0855ZM72.3134 22C76.4639 23.9214 79.34 28.0956 79.34 32.9361C79.34 33.2732 79.3249 33.6069 79.2975 33.937C78.6056 33.5943 77.8257 33.4001 76.9997 33.4001C76.9959 33.4001 76.992 33.4001 76.9882 33.4001C76.9955 33.2463 76.9997 33.0917 76.9997 32.9361C76.9997 29.1637 74.8368 25.8925 71.6734 24.2733C72.0532 23.5952 72.2814 22.8229 72.3134 22ZM62.0262 22C62.0581 22.8228 62.2864 23.5952 62.6661 24.2733C59.503 25.8926 57.3404 29.1638 57.3404 32.9361C57.3404 33.0917 57.3441 33.2463 57.3514 33.4001C57.3477 33.4001 57.344 33.4001 57.3404 33.4001C56.5142 33.4001 55.734 33.5942 55.0421 33.937C55.0147 33.607 55 33.2732 55 32.9361C55 28.0957 57.8759 23.9215 62.0262 22Z" fill="white"/>
<path d="M73.5 7.73828C73.5 11.3281 70.5898 14.2383 67 14.2383C63.4102 14.2383 60.5 11.3281 60.5 7.73828C60.5 4.14843 63.4102 1.23828 67 1.23828C70.5898 1.23828 73.5 4.14843 73.5 7.73828Z" fill="white"/>
<path d="M95.6094 45.3672C95.6094 48.957 92.6992 51.8672 89.1094 51.8672C85.5196 51.8672 82.6094 48.957 82.6094 45.3672C82.6094 41.7774 85.5196 38.8672 89.1094 38.8672C92.6992 38.8672 95.6094 41.7774 95.6094 45.3672Z" fill="white"/>
<path d="M51.5 45.2813C51.5 48.8711 48.5898 51.7812 45 51.7812C41.4102 51.7812 38.5 48.8711 38.5 45.2813C38.5 41.6914 41.4102 38.7812 45 38.7812C48.5898 38.7812 51.5 41.6914 51.5 45.2813Z" fill="white"/>
<path d="M34.8 80.686C34.8 80.048 34.6747 79.4328 34.424 78.8403C34.1848 78.2365 33.8544 77.7067 33.4328 77.251C33.0113 76.7839 32.5157 76.4136 31.946 76.1401C31.3877 75.8553 30.7896 75.7129 30.1516 75.7129C29.5135 75.7129 28.9097 75.8211 28.34 76.0376C27.7818 76.2541 27.2919 76.5731 26.8703 76.9946C26.4602 77.4162 26.1354 77.9403 25.8962 78.5669C25.6569 79.1821 25.5373 79.8885 25.5373 80.686C25.5373 81.4494 25.6569 82.1387 25.8962 82.7539C26.1354 83.3577 26.4602 83.8761 26.8703 84.3091C27.2919 84.742 27.7818 85.0781 28.34 85.3174C28.9097 85.5452 29.5135 85.6592 30.1516 85.6592C30.7896 85.6592 31.3877 85.5225 31.946 85.249C32.5157 84.9642 33.0113 84.5939 33.4328 84.1382C33.8544 83.6711 34.1848 83.1413 34.424 82.5488C34.6747 81.945 34.8 81.3241 34.8 80.686ZM39.4997 87.6929C39.4997 88.9803 39.2548 90.188 38.7648 91.3159C38.2749 92.4438 37.6027 93.4294 36.7482 94.2725C35.9051 95.1156 34.9139 95.7821 33.7746 96.272C32.6467 96.7619 31.439 97.0068 30.1516 97.0068L27.8103 96.9727V92.3071L30.1174 92.3413C30.8465 92.3413 31.4675 92.2445 31.9802 92.0508C32.4929 91.8685 32.9258 91.6121 33.279 91.2817C33.6322 90.9627 33.9113 90.5924 34.1164 90.1709C34.3329 89.7493 34.5038 89.305 34.6291 88.8379C34.4468 89.1341 34.1848 89.3791 33.843 89.5728C33.5012 89.755 33.1195 89.9032 32.6979 90.0171C32.2878 90.1424 31.8548 90.2279 31.3991 90.2734C30.9548 90.319 30.5389 90.3418 30.1516 90.3418C28.8641 90.3418 27.6507 90.1196 26.5114 89.6753C25.3835 89.231 24.3923 88.5986 23.5378 87.7783C22.6947 86.9466 22.0282 85.9326 21.5383 84.7363C21.0484 83.54 20.8034 82.1899 20.8034 80.686C20.8034 79.3075 21.0484 78.0257 21.5383 76.8408C22.0282 75.6559 22.6947 74.6305 23.5378 73.7646C24.3923 72.8988 25.3835 72.2209 26.5114 71.731C27.6507 71.241 28.8641 70.9961 30.1516 70.9961C30.744 70.9961 31.3308 71.0701 31.9118 71.2183C32.4929 71.3664 33.0568 71.5715 33.6037 71.8335C34.1506 72.0955 34.669 72.4032 35.1589 72.7563C35.6602 73.1095 36.1273 73.4912 36.5603 73.9014L38.3718 71.731H39.4997V87.6929ZM41.9941 90V77.225C41.9941 75.6383 42.4375 74.4017 43.3241 73.515C44.2341 72.605 45.4825 72.15 47.0691 72.15H52.0041V76.245H47.9091C47.6058 76.245 47.3375 76.35 47.1041 76.56C46.8941 76.77 46.7891 77.0383 46.7891 77.365V90H41.9941ZM61.8197 90.42C59.9764 90.42 58.3314 90.0117 56.8847 89.195C55.4381 88.355 54.2947 87.235 53.4547 85.835C52.6147 84.4117 52.1947 82.825 52.1947 81.075C52.1947 79.325 52.6147 77.75 53.4547 76.35C54.2947 74.9267 55.4381 73.8067 56.8847 72.99C58.3314 72.15 59.9764 71.73 61.8197 71.73C63.6631 71.73 65.3081 72.15 66.7547 72.99C68.2014 73.8067 69.3447 74.9267 70.1847 76.35C71.0247 77.75 71.4447 79.325 71.4447 81.075C71.4447 82.825 71.0247 84.4117 70.1847 85.835C69.3447 87.235 68.2014 88.355 66.7547 89.195C65.3081 90.0117 63.6631 90.42 61.8197 90.42ZM61.8197 86.325C62.7997 86.325 63.6397 86.0917 64.3397 85.625C65.0631 85.1583 65.6114 84.5283 65.9847 83.735C66.3814 82.9417 66.5797 82.055 66.5797 81.075C66.5797 80.095 66.3814 79.2083 65.9847 78.415C65.6114 77.6217 65.0631 76.9917 64.3397 76.525C63.6397 76.0583 62.7997 75.825 61.8197 75.825C60.8397 75.825 59.9881 76.0583 59.2647 76.525C58.5647 76.9917 58.0164 77.6217 57.6197 78.415C57.2464 79.2083 57.0597 80.095 57.0597 81.075C57.0597 82.055 57.2464 82.9417 57.6197 83.735C58.0164 84.5283 58.5647 85.1583 59.2647 85.625C59.9881 86.0917 60.8397 86.325 61.8197 86.325ZM82.2638 90.42C80.4438 90.42 78.8805 90.0583 77.5738 89.335C76.2672 88.6117 75.2638 87.6433 74.5638 86.43C73.8872 85.2167 73.5488 83.875 73.5488 82.405V72.15H78.3438V82.405C78.3438 83.1283 78.5188 83.7933 78.8688 84.4C79.2188 84.9833 79.6855 85.45 80.2688 85.8C80.8755 86.15 81.5405 86.325 82.2638 86.325C82.9872 86.325 83.6405 86.15 84.2238 85.8C84.8305 85.45 85.3088 84.9833 85.6588 84.4C86.0088 83.7933 86.1838 83.1283 86.1838 82.405V72.15H90.9788V82.405C90.9788 83.875 90.6288 85.2167 89.9288 86.43C89.2522 87.6433 88.2605 88.6117 86.9538 89.335C85.6705 90.0583 84.1072 90.42 82.2638 90.42ZM103.366 71.73C104.883 71.73 106.225 71.975 107.391 72.465C108.558 72.9317 109.538 73.6083 110.331 74.495C111.125 75.3583 111.731 76.385 112.151 77.575C112.571 78.7417 112.781 80.025 112.781 81.425C112.781 83.175 112.42 84.7267 111.696 86.08C110.996 87.4333 110.005 88.495 108.721 89.265C107.438 90.035 105.921 90.42 104.171 90.42C103.425 90.42 102.701 90.315 102.001 90.105C101.325 89.895 100.706 89.5917 100.146 89.195C99.6097 88.7983 99.1547 88.3317 98.7814 87.795H98.7464V97.7H93.9514V81.425C93.9514 79.4417 94.3364 77.7267 95.1064 76.28C95.8764 74.8333 96.9614 73.7133 98.3614 72.92C99.7847 72.1267 101.453 71.73 103.366 71.73ZM103.366 75.825C102.433 75.825 101.616 76.0583 100.916 76.525C100.24 76.9917 99.7147 77.6217 99.3414 78.415C98.9914 79.2083 98.8164 80.095 98.8164 81.075C98.8164 82.055 98.9914 82.9417 99.3414 83.735C99.7147 84.5283 100.24 85.1583 100.916 85.625C101.616 86.0917 102.433 86.325 103.366 86.325C104.323 86.325 105.14 86.0917 105.816 85.625C106.493 85.1583 107.006 84.5283 107.356 83.735C107.73 82.9417 107.916 82.055 107.916 81.075C107.916 80.095 107.73 79.2083 107.356 78.415C107.006 77.6217 106.493 76.9917 105.816 76.525C105.14 76.0583 104.323 75.825 103.366 75.825Z" fill="white"/>
<path d="M28.138 100.704V104.288C28.782 103.42 29.6547 102.986 30.756 102.986C31.4 102.986 31.9927 103.145 32.534 103.462C33.0753 103.779 33.5047 104.213 33.822 104.764C34.1393 105.305 34.298 105.893 34.298 106.528C34.298 107.163 34.1393 107.755 33.822 108.306C33.5047 108.847 33.0753 109.277 32.534 109.594C31.9927 109.911 31.4 110.07 30.756 110.07C29.692 110.07 28.8193 109.613 28.138 108.698V110H27.2V100.704H28.138ZM28.166 106.528C28.166 106.995 28.2827 107.429 28.516 107.83C28.7493 108.222 29.062 108.535 29.454 108.768C29.8553 109.001 30.2893 109.118 30.756 109.118C31.2227 109.118 31.652 109.001 32.044 108.768C32.436 108.535 32.7487 108.222 32.982 107.83C33.2153 107.429 33.332 106.995 33.332 106.528C33.332 106.061 33.2153 105.632 32.982 105.24C32.7487 104.848 32.436 104.535 32.044 104.302C31.652 104.069 31.2227 103.952 30.756 103.952C30.2893 103.952 29.8553 104.069 29.454 104.302C29.062 104.535 28.7493 104.848 28.516 105.24C28.2827 105.632 28.166 106.061 28.166 106.528ZM41.4895 103V109.944C41.4895 110.495 41.3542 111.003 41.0835 111.47C40.8128 111.937 40.4442 112.305 39.9775 112.576C39.5108 112.847 39.0022 112.982 38.4515 112.982C37.9195 112.982 37.4295 112.856 36.9815 112.604C36.5335 112.352 36.1695 112.011 35.8895 111.582L36.7295 111.106C36.9162 111.386 37.1588 111.61 37.4575 111.778C37.7655 111.946 38.0968 112.03 38.4515 112.03C38.8248 112.03 39.1702 111.937 39.4875 111.75C39.8142 111.563 40.0708 111.307 40.2575 110.98C40.4442 110.663 40.5375 110.317 40.5375 109.944V109.202C40.2575 109.463 39.9402 109.669 39.5855 109.818C39.2308 109.958 38.8528 110.028 38.4515 110.028C37.9102 110.028 37.4062 109.897 36.9395 109.636C36.4822 109.365 36.1135 109.006 35.8335 108.558C35.5628 108.11 35.4228 107.615 35.4135 107.074V103H36.3655V106.99C36.3655 107.363 36.4588 107.713 36.6455 108.04C36.8322 108.357 37.0842 108.609 37.4015 108.796C37.7282 108.983 38.0782 109.076 38.4515 109.076C38.8248 109.076 39.1702 108.983 39.4875 108.796C39.8142 108.609 40.0708 108.357 40.2575 108.04C40.4442 107.713 40.5375 107.363 40.5375 106.99V103H41.4895ZM50.136 100.704V104.288C50.78 103.42 51.6527 102.986 52.754 102.986C53.398 102.986 53.9907 103.145 54.532 103.462C55.0734 103.779 55.5027 104.213 55.82 104.764C56.1374 105.305 56.296 105.893 56.296 106.528C56.296 107.163 56.1374 107.755 55.82 108.306C55.5027 108.847 55.0734 109.277 54.532 109.594C53.9907 109.911 53.398 110.07 52.754 110.07C51.69 110.07 50.8174 109.613 50.136 108.698V110H49.198V100.704H50.136ZM50.164 106.528C50.164 106.995 50.2807 107.429 50.514 107.83C50.7474 108.222 51.06 108.535 51.452 108.768C51.8534 109.001 52.2874 109.118 52.754 109.118C53.2207 109.118 53.65 109.001 54.042 108.768C54.434 108.535 54.7467 108.222 54.98 107.83C55.2134 107.429 55.33 106.995 55.33 106.528C55.33 106.061 55.2134 105.632 54.98 105.24C54.7467 104.848 54.434 104.535 54.042 104.302C53.65 104.069 53.2207 103.952 52.754 103.952C52.2874 103.952 51.8534 104.069 51.452 104.302C51.06 104.535 50.7474 104.848 50.514 105.24C50.2807 105.632 50.164 106.061 50.164 106.528ZM58.1816 101.054C58.3496 101.054 58.4942 101.115 58.6156 101.236C58.7369 101.357 58.7976 101.502 58.7976 101.67C58.7976 101.847 58.7369 101.997 58.6156 102.118C58.4942 102.239 58.3496 102.3 58.1816 102.3C58.0042 102.3 57.8549 102.239 57.7336 102.118C57.6122 101.997 57.5516 101.847 57.5516 101.67C57.5516 101.502 57.6122 101.357 57.7336 101.236C57.8549 101.115 58.0042 101.054 58.1816 101.054ZM58.6576 103V110H57.6916V103H58.6576ZM62.9759 103C63.4799 103 63.9419 103.126 64.3619 103.378C64.7912 103.621 65.1319 103.957 65.3839 104.386C65.6359 104.806 65.7619 105.268 65.7619 105.772V110H64.7959V105.772C64.7959 105.445 64.7119 105.147 64.5439 104.876C64.3852 104.596 64.1659 104.377 63.8859 104.218C63.6059 104.05 63.3026 103.966 62.9759 103.966C62.6492 103.966 62.3459 104.05 62.0659 104.218C61.7859 104.377 61.5619 104.596 61.3939 104.876C61.2352 105.147 61.1559 105.445 61.1559 105.772V110H60.2039V103.182H61.1559V103.798C61.3892 103.537 61.6599 103.341 61.9679 103.21C62.2852 103.07 62.6212 103 62.9759 103ZM73.9842 110H73.0462V108.698C72.3648 109.613 71.4922 110.07 70.4282 110.07C69.7842 110.07 69.1915 109.911 68.6502 109.594C68.1088 109.277 67.6795 108.847 67.3622 108.306C67.0448 107.755 66.8862 107.163 66.8862 106.528C66.8862 105.893 67.0448 105.305 67.3622 104.764C67.6795 104.213 68.1088 103.779 68.6502 103.462C69.1915 103.145 69.7842 102.986 70.4282 102.986C71.5295 102.986 72.4022 103.42 73.0462 104.288V100.704H73.9842V110ZM73.0182 106.528C73.0182 106.061 72.9015 105.632 72.6682 105.24C72.4348 104.848 72.1175 104.535 71.7162 104.302C71.3242 104.069 70.8948 103.952 70.4282 103.952C69.9615 103.952 69.5322 104.069 69.1402 104.302C68.7482 104.535 68.4355 104.848 68.2022 105.24C67.9688 105.632 67.8522 106.061 67.8522 106.528C67.8522 106.995 67.9688 107.429 68.2022 107.83C68.4355 108.222 68.7482 108.535 69.1402 108.768C69.5322 109.001 69.9615 109.118 70.4282 109.118C70.8948 109.118 71.3242 109.001 71.7162 108.768C72.1175 108.535 72.4348 108.222 72.6682 107.83C72.9015 107.429 73.0182 106.995 73.0182 106.528ZM85.6837 103L82.9257 110H81.9177L80.4757 106.374L79.0337 110H78.0257L75.2397 103H76.2757L78.5297 108.67L79.9577 105.086L79.1317 103H80.1677L82.4217 108.67L84.6617 103H85.6837ZM93.0421 103.182V110H92.0761V108.712C91.4321 109.617 90.5734 110.07 89.5001 110.07C88.8561 110.07 88.2634 109.916 87.7221 109.608C87.1808 109.291 86.7514 108.861 86.4341 108.32C86.1261 107.779 85.9721 107.191 85.9721 106.556C85.9721 105.912 86.1261 105.319 86.4341 104.778C86.7514 104.237 87.1808 103.812 87.7221 103.504C88.2634 103.187 88.8561 103.028 89.5001 103.028C90.1628 103.028 90.7041 103.168 91.1241 103.448C91.5534 103.719 91.8708 104.013 92.0761 104.33V103.182H93.0421ZM89.5001 109.118C89.9668 109.118 90.3961 109.006 90.7881 108.782C91.1801 108.549 91.4881 108.236 91.7121 107.844C91.9454 107.452 92.0621 107.023 92.0621 106.556C92.0621 106.089 91.9454 105.66 91.7121 105.268C91.4881 104.867 91.1801 104.554 90.7881 104.33C90.3961 104.097 89.9668 103.98 89.5001 103.98C89.0334 103.98 88.5994 104.097 88.1981 104.33C87.8061 104.554 87.4934 104.867 87.2601 105.268C87.0361 105.66 86.9241 106.089 86.9241 106.556C86.9241 107.023 87.0361 107.452 87.2601 107.844C87.4934 108.236 87.8061 108.549 88.1981 108.782C88.5994 109.006 89.0334 109.118 89.5001 109.118ZM100.374 103V109.944C100.374 110.495 100.239 111.003 99.9683 111.47C99.6976 111.937 99.3289 112.305 98.8623 112.576C98.3956 112.847 97.8869 112.982 97.3363 112.982C96.8043 112.982 96.3143 112.856 95.8663 112.604C95.4183 112.352 95.0543 112.011 94.7743 111.582L95.6143 111.106C95.8009 111.386 96.0436 111.61 96.3423 111.778C96.6503 111.946 96.9816 112.03 97.3363 112.03C97.7096 112.03 98.0549 111.937 98.3723 111.75C98.6989 111.563 98.9556 111.307 99.1423 110.98C99.3289 110.663 99.4223 110.317 99.4223 109.944V109.202C99.1423 109.463 98.8249 109.669 98.4703 109.818C98.1156 109.958 97.7376 110.028 97.3363 110.028C96.7949 110.028 96.2909 109.897 95.8243 109.636C95.3669 109.365 94.9983 109.006 94.7183 108.558C94.4476 108.11 94.3076 107.615 94.2983 107.074V103H95.2503V106.99C95.2503 107.363 95.3436 107.713 95.5303 108.04C95.7169 108.357 95.9689 108.609 96.2863 108.796C96.6129 108.983 96.9629 109.076 97.3363 109.076C97.7096 109.076 98.0549 108.983 98.3723 108.796C98.6989 108.609 98.9556 108.357 99.1423 108.04C99.3289 107.713 99.4223 107.363 99.4223 106.99V103H100.374ZM102.483 108.124C102.558 108.385 102.675 108.591 102.833 108.74C103.095 108.983 103.477 109.104 103.981 109.104C104.42 109.104 104.775 109.001 105.045 108.796C105.316 108.591 105.451 108.325 105.451 107.998C105.451 107.69 105.391 107.461 105.269 107.312C105.148 107.163 104.989 107.069 104.793 107.032C104.607 106.985 104.345 106.957 104.009 106.948C103.524 106.92 103.127 106.869 102.819 106.794C102.511 106.71 102.231 106.528 101.979 106.248C101.671 105.865 101.517 105.445 101.517 104.988C101.517 104.876 101.522 104.792 101.531 104.736C101.606 104.148 101.853 103.7 102.273 103.392C102.693 103.075 103.258 102.916 103.967 102.916H103.981C104.504 102.916 104.929 103.014 105.255 103.21C105.582 103.406 105.834 103.644 106.011 103.924C106.198 104.232 106.315 104.554 106.361 104.89H105.381C105.363 104.759 105.302 104.605 105.199 104.428C104.966 104.073 104.56 103.887 103.981 103.868C103.393 103.868 103.006 103.966 102.819 104.162C102.633 104.358 102.521 104.587 102.483 104.848C102.474 104.885 102.469 104.937 102.469 105.002C102.469 105.226 102.549 105.427 102.707 105.604C102.838 105.763 103.006 105.87 103.211 105.926C103.417 105.973 103.711 106.01 104.093 106.038C104.401 106.057 104.663 106.085 104.877 106.122C105.101 106.159 105.311 106.229 105.507 106.332C106.114 106.659 106.417 107.214 106.417 107.998C106.417 108.269 106.361 108.53 106.249 108.782C106.147 109.025 105.997 109.239 105.801 109.426C105.363 109.855 104.761 110.07 103.995 110.07C103.249 110.07 102.642 109.86 102.175 109.44C101.811 109.085 101.587 108.647 101.503 108.124H102.483Z" fill="white"/>
</g>
<defs>
<clipPath id="clip0_5126_8258">
<rect width="134" height="113" fill="white"/>
</clipPath>
</defs>
</svg>
