<svg width="206" height="60" viewBox="0 0 206 60" fill="none" xmlns="http://www.w3.org/2000/svg">
<g clip-path="url(#clip0_5127_7075)">
<path d="M17.8816 51.1975C21.3619 53.4635 25.5252 54.7834 30.0003 54.7834C34.475 54.7834 38.6377 53.4633 42.1178 51.1975C43.0313 52.7384 44.2967 54.0477 45.8051 55.0198C41.3408 58.1558 35.8883 60.0006 30.0003 60.0006C24.1119 60.0006 18.6588 58.1561 14.1944 55.0198C15.703 54.0478 16.968 52.7385 17.8816 51.1975ZM41.5669 8.27734C50.9006 12.5983 57.3687 21.9853 57.3687 32.8708C57.3687 33.6289 57.3346 34.3795 57.2731 35.1218C55.7171 34.3511 53.9632 33.9143 52.1055 33.9143C52.097 33.9143 52.0884 33.9143 52.0798 33.9143C52.0962 33.5685 52.1055 33.2207 52.1055 32.8708C52.1055 24.3873 47.2415 17.031 40.1277 13.3897C40.9818 11.8646 41.495 10.1278 41.5669 8.27734ZM18.4326 8.27734C18.5045 10.1277 19.0177 11.8646 19.8717 13.3897C12.7584 17.0311 7.89499 24.3877 7.89499 32.8708C7.89499 33.2207 7.90331 33.5685 7.91967 33.9143C7.91145 33.9143 7.90321 33.9143 7.89499 33.9143C6.03698 33.9143 4.28254 34.3508 2.7264 35.1218C2.6649 34.3796 2.63184 33.6289 2.63184 32.8708C2.63184 21.9856 9.09931 12.5984 18.4326 8.27734Z" fill="#4D4D4D"/>
<path d="M24.7812 41.0855C26.3288 42.0931 28.1801 42.68 30.17 42.68C32.1598 42.68 34.0109 42.093 35.5584 41.0855C35.9646 41.7707 36.5273 42.3529 37.198 42.7852C35.2129 44.1797 32.7883 45 30.17 45C27.5516 45 25.1268 44.1798 23.1416 42.7852C23.8124 42.3529 24.3749 41.7707 24.7812 41.0855ZM35.3134 22C39.4639 23.9214 42.34 28.0956 42.34 32.9361C42.34 33.2732 42.3249 33.6069 42.2975 33.937C41.6056 33.5943 40.8257 33.4001 39.9997 33.4001C39.9959 33.4001 39.992 33.4001 39.9882 33.4001C39.9955 33.2463 39.9997 33.0917 39.9997 32.9361C39.9997 29.1637 37.8368 25.8925 34.6734 24.2733C35.0532 23.5952 35.2814 22.8229 35.3134 22ZM25.0262 22C25.0581 22.8228 25.2864 23.5952 25.6661 24.2733C22.503 25.8926 20.3404 29.1638 20.3404 32.9361C20.3404 33.0917 20.3441 33.2463 20.3514 33.4001C20.3477 33.4001 20.344 33.4001 20.3404 33.4001C19.5142 33.4001 18.734 33.5942 18.0421 33.937C18.0147 33.607 18 33.2732 18 32.9361C18 28.0957 20.8759 23.9215 25.0262 22Z" fill="#4D4D4D"/>
<path d="M36.5 7.73828C36.5 11.3281 33.5898 14.2383 30 14.2383C26.4102 14.2383 23.5 11.3281 23.5 7.73828C23.5 4.14843 26.4102 1.23828 30 1.23828C33.5898 1.23828 36.5 4.14843 36.5 7.73828Z" fill="#4D4D4D"/>
<path d="M58.6094 45.3672C58.6094 48.957 55.6992 51.8672 52.1094 51.8672C48.5196 51.8672 45.6094 48.957 45.6094 45.3672C45.6094 41.7774 48.5196 38.8672 52.1094 38.8672C55.6992 38.8672 58.6094 41.7774 58.6094 45.3672Z" fill="#4D4D4D"/>
<path d="M14.5 45.2813C14.5 48.8711 11.5898 51.7812 8 51.7812C4.41018 51.7812 1.5 48.8711 1.5 45.2813C1.5 41.6914 4.41018 38.7812 8 38.7812C11.5898 38.7812 14.5 41.6914 14.5 45.2813Z" fill="#4D4D4D"/>
<path d="M90.2969 15.2266C90.2969 14.3516 90.125 13.5078 89.7812 12.6953C89.4531 11.8672 89 11.1406 88.4219 10.5156C87.8438 9.875 87.1641 9.36719 86.3828 8.99219C85.6172 8.60156 84.7969 8.40625 83.9219 8.40625C83.0469 8.40625 82.2188 8.55469 81.4375 8.85156C80.6719 9.14844 80 9.58594 79.4219 10.1641C78.8594 10.7422 78.4141 11.4609 78.0859 12.3203C77.7578 13.1641 77.5938 14.1328 77.5938 15.2266C77.5938 16.2734 77.7578 17.2188 78.0859 18.0625C78.4141 18.8906 78.8594 19.6016 79.4219 20.1953C80 20.7891 80.6719 21.25 81.4375 21.5781C82.2188 21.8906 83.0469 22.0469 83.9219 22.0469C84.7969 22.0469 85.6172 21.8594 86.3828 21.4844C87.1641 21.0938 87.8438 20.5859 88.4219 19.9609C89 19.3203 89.4531 18.5938 89.7812 17.7812C90.125 16.9531 90.2969 16.1016 90.2969 15.2266ZM96.7422 24.8359C96.7422 26.6016 96.4062 28.2578 95.7344 29.8047C95.0625 31.3516 94.1406 32.7031 92.9688 33.8594C91.8125 35.0156 90.4531 35.9297 88.8906 36.6016C87.3438 37.2734 85.6875 37.6094 83.9219 37.6094L80.7109 37.5625V31.1641L83.875 31.2109C84.875 31.2109 85.7266 31.0781 86.4297 30.8125C87.1328 30.5625 87.7266 30.2109 88.2109 29.7578C88.6953 29.3203 89.0781 28.8125 89.3594 28.2344C89.6562 27.6562 89.8906 27.0469 90.0625 26.4062C89.8125 26.8125 89.4531 27.1484 88.9844 27.4141C88.5156 27.6641 87.9922 27.8672 87.4141 28.0234C86.8516 28.1953 86.2578 28.3125 85.6328 28.375C85.0234 28.4375 84.4531 28.4688 83.9219 28.4688C82.1562 28.4688 80.4922 28.1641 78.9297 27.5547C77.3828 26.9453 76.0234 26.0781 74.8516 24.9531C73.6953 23.8125 72.7812 22.4219 72.1094 20.7812C71.4375 19.1406 71.1016 17.2891 71.1016 15.2266C71.1016 13.3359 71.4375 11.5781 72.1094 9.95312C72.7812 8.32812 73.6953 6.92187 74.8516 5.73438C76.0234 4.54688 77.3828 3.61719 78.9297 2.94531C80.4922 2.27344 82.1562 1.9375 83.9219 1.9375C84.7344 1.9375 85.5391 2.03906 86.3359 2.24219C87.1328 2.44531 87.9062 2.72656 88.6562 3.08594C89.4062 3.44531 90.1172 3.86719 90.7891 4.35156C91.4766 4.83594 92.1172 5.35938 92.7109 5.92188L95.1953 2.94531H96.7422V24.8359ZM100.763 28V9.75C100.763 7.48333 101.396 5.71667 102.663 4.45C103.963 3.15 105.746 2.5 108.013 2.5H115.063V8.35H109.213C108.78 8.35 108.396 8.5 108.063 8.8C107.763 9.1 107.613 9.48333 107.613 9.95V28H100.763ZM129.585 28.6C126.952 28.6 124.602 28.0167 122.535 26.85C120.469 25.65 118.835 24.05 117.635 22.05C116.435 20.0167 115.835 17.75 115.835 15.25C115.835 12.75 116.435 10.5 117.635 8.5C118.835 6.46667 120.469 4.86666 122.535 3.7C124.602 2.5 126.952 1.9 129.585 1.9C132.219 1.9 134.569 2.5 136.635 3.7C138.702 4.86666 140.335 6.46667 141.535 8.5C142.735 10.5 143.335 12.75 143.335 15.25C143.335 17.75 142.735 20.0167 141.535 22.05C140.335 24.05 138.702 25.65 136.635 26.85C134.569 28.0167 132.219 28.6 129.585 28.6ZM129.585 22.75C130.985 22.75 132.185 22.4167 133.185 21.75C134.219 21.0833 135.002 20.1833 135.535 19.05C136.102 17.9167 136.385 16.65 136.385 15.25C136.385 13.85 136.102 12.5833 135.535 11.45C135.002 10.3167 134.219 9.41667 133.185 8.75C132.185 8.08333 130.985 7.75 129.585 7.75C128.185 7.75 126.969 8.08333 125.935 8.75C124.935 9.41667 124.152 10.3167 123.585 11.45C123.052 12.5833 122.785 13.85 122.785 15.25C122.785 16.65 123.052 17.9167 123.585 19.05C124.152 20.1833 124.935 21.0833 125.935 21.75C126.969 22.4167 128.185 22.75 129.585 22.75ZM159.291 28.6C156.691 28.6 154.458 28.0833 152.591 27.05C150.725 26.0167 149.291 24.6333 148.291 22.9C147.325 21.1667 146.841 19.25 146.841 17.15V2.5H153.691V17.15C153.691 18.1833 153.941 19.1333 154.441 20C154.941 20.8333 155.608 21.5 156.441 22C157.308 22.5 158.258 22.75 159.291 22.75C160.325 22.75 161.258 22.5 162.091 22C162.958 21.5 163.641 20.8333 164.141 20C164.641 19.1333 164.891 18.1833 164.891 17.15V2.5H171.741V17.15C171.741 19.25 171.241 21.1667 170.241 22.9C169.275 24.6333 167.858 26.0167 165.991 27.05C164.158 28.0833 161.925 28.6 159.291 28.6ZM189.938 1.9C192.104 1.9 194.021 2.25 195.688 2.95C197.354 3.61666 198.754 4.58333 199.888 5.85C201.021 7.08333 201.888 8.55 202.488 10.25C203.088 11.9167 203.388 13.75 203.388 15.75C203.388 18.25 202.871 20.4667 201.838 22.4C200.838 24.3333 199.421 25.85 197.588 26.95C195.754 28.05 193.588 28.6 191.088 28.6C190.021 28.6 188.988 28.45 187.988 28.15C187.021 27.85 186.138 27.4167 185.338 26.85C184.571 26.2833 183.921 25.6167 183.388 24.85H183.338V39H176.488V15.75C176.488 12.9167 177.038 10.4667 178.138 8.4C179.238 6.33333 180.788 4.73333 182.788 3.6C184.821 2.46667 187.204 1.9 189.938 1.9ZM189.938 7.75C188.604 7.75 187.438 8.08333 186.438 8.75C185.471 9.41667 184.721 10.3167 184.188 11.45C183.688 12.5833 183.438 13.85 183.438 15.25C183.438 16.65 183.688 17.9167 184.188 19.05C184.721 20.1833 185.471 21.0833 186.438 21.75C187.438 22.4167 188.604 22.75 189.938 22.75C191.304 22.75 192.471 22.4167 193.438 21.75C194.404 21.0833 195.138 20.1833 195.638 19.05C196.171 17.9167 196.438 16.65 196.438 15.25C196.438 13.85 196.171 12.5833 195.638 11.45C195.138 10.3167 194.404 9.41667 193.438 8.75C192.471 8.08333 191.304 7.75 189.938 7.75Z" fill="#4D4D4D"/>
<path d="M72.574 40.392V46.024C73.586 44.66 74.9573 43.978 76.688 43.978C77.7 43.978 78.6313 44.2273 79.482 44.726C80.3327 45.2247 81.0073 45.9067 81.506 46.772C82.0047 47.6227 82.254 48.5467 82.254 49.544C82.254 50.5413 82.0047 51.4727 81.506 52.338C81.0073 53.1887 80.3327 53.8633 79.482 54.362C78.6313 54.8607 77.7 55.11 76.688 55.11C75.016 55.11 73.6447 54.3913 72.574 52.954V55H71.1V40.392H72.574ZM72.618 49.544C72.618 50.2773 72.8013 50.9593 73.168 51.59C73.5347 52.206 74.026 52.6973 74.642 53.064C75.2727 53.4307 75.9547 53.614 76.688 53.614C77.4213 53.614 78.096 53.4307 78.712 53.064C79.328 52.6973 79.8193 52.206 80.186 51.59C80.5527 50.9593 80.736 50.2773 80.736 49.544C80.736 48.8107 80.5527 48.136 80.186 47.52C79.8193 46.904 79.328 46.4127 78.712 46.046C78.096 45.6793 77.4213 45.496 76.688 45.496C75.9547 45.496 75.2727 45.6793 74.642 46.046C74.026 46.4127 73.5347 46.904 73.168 47.52C72.8013 48.136 72.618 48.8107 72.618 49.544ZM93.555 44V54.912C93.555 55.7773 93.3423 56.5767 92.917 57.31C92.4916 58.0433 91.9123 58.6227 91.179 59.048C90.4456 59.4733 89.6463 59.686 88.781 59.686C87.945 59.686 87.175 59.488 86.471 59.092C85.767 58.696 85.195 58.1607 84.755 57.486L86.075 56.738C86.3683 57.178 86.7496 57.53 87.219 57.794C87.703 58.058 88.2236 58.19 88.781 58.19C89.3676 58.19 89.9103 58.0433 90.409 57.75C90.9223 57.4567 91.3256 57.0533 91.619 56.54C91.9123 56.0413 92.059 55.4987 92.059 54.912V53.746C91.619 54.1567 91.1203 54.4793 90.563 54.714C90.0056 54.934 89.4116 55.044 88.781 55.044C87.9303 55.044 87.1383 54.8387 86.405 54.428C85.6863 54.0027 85.107 53.438 84.667 52.734C84.2416 52.03 84.0216 51.2527 84.007 50.402V44H85.503V50.27C85.503 50.8567 85.6496 51.4067 85.943 51.92C86.2363 52.4187 86.6323 52.8147 87.131 53.108C87.6443 53.4013 88.1943 53.548 88.781 53.548C89.3676 53.548 89.9103 53.4013 90.409 53.108C90.9223 52.8147 91.3256 52.4187 91.619 51.92C91.9123 51.4067 92.059 50.8567 92.059 50.27V44H93.555ZM107.142 40.392V46.024C108.154 44.66 109.526 43.978 111.256 43.978C112.268 43.978 113.2 44.2273 114.05 44.726C114.901 45.2247 115.576 45.9067 116.074 46.772C116.573 47.6227 116.822 48.5467 116.822 49.544C116.822 50.5413 116.573 51.4727 116.074 52.338C115.576 53.1887 114.901 53.8633 114.05 54.362C113.2 54.8607 112.268 55.11 111.256 55.11C109.584 55.11 108.213 54.3913 107.142 52.954V55H105.668V40.392H107.142ZM107.186 49.544C107.186 50.2773 107.37 50.9593 107.736 51.59C108.103 52.206 108.594 52.6973 109.21 53.064C109.841 53.4307 110.523 53.614 111.256 53.614C111.99 53.614 112.664 53.4307 113.28 53.064C113.896 52.6973 114.388 52.206 114.754 51.59C115.121 50.9593 115.304 50.2773 115.304 49.544C115.304 48.8107 115.121 48.136 114.754 47.52C114.388 46.904 113.896 46.4127 113.28 46.046C112.664 45.6793 111.99 45.496 111.256 45.496C110.523 45.496 109.841 45.6793 109.21 46.046C108.594 46.4127 108.103 46.904 107.736 47.52C107.37 48.136 107.186 48.8107 107.186 49.544ZM119.785 40.942C120.049 40.942 120.277 41.0373 120.467 41.228C120.658 41.4187 120.753 41.646 120.753 41.91C120.753 42.1887 120.658 42.4233 120.467 42.614C120.277 42.8047 120.049 42.9 119.785 42.9C119.507 42.9 119.272 42.8047 119.081 42.614C118.891 42.4233 118.795 42.1887 118.795 41.91C118.795 41.646 118.891 41.4187 119.081 41.228C119.272 41.0373 119.507 40.942 119.785 40.942ZM120.533 44V55H119.015V44H120.533ZM127.319 44C128.111 44 128.837 44.198 129.497 44.594C130.172 44.9753 130.707 45.5033 131.103 46.178C131.499 46.838 131.697 47.564 131.697 48.356V55H130.179V48.356C130.179 47.8427 130.047 47.3733 129.783 46.948C129.534 46.508 129.189 46.1633 128.749 45.914C128.309 45.65 127.833 45.518 127.319 45.518C126.806 45.518 126.329 45.65 125.889 45.914C125.449 46.1633 125.097 46.508 124.833 46.948C124.584 47.3733 124.459 47.8427 124.459 48.356V55H122.963V44.286H124.459V45.254C124.826 44.8433 125.251 44.5353 125.735 44.33C126.234 44.11 126.762 44 127.319 44ZM144.618 55H143.144V52.954C142.073 54.3913 140.702 55.11 139.03 55.11C138.018 55.11 137.087 54.8607 136.236 54.362C135.385 53.8633 134.711 53.1887 134.212 52.338C133.713 51.4727 133.464 50.5413 133.464 49.544C133.464 48.5467 133.713 47.6227 134.212 46.772C134.711 45.9067 135.385 45.2247 136.236 44.726C137.087 44.2273 138.018 43.978 139.03 43.978C140.761 43.978 142.132 44.66 143.144 46.024V40.392H144.618V55ZM143.1 49.544C143.1 48.8107 142.917 48.136 142.55 47.52C142.183 46.904 141.685 46.4127 141.054 46.046C140.438 45.6793 139.763 45.496 139.03 45.496C138.297 45.496 137.622 45.6793 137.006 46.046C136.39 46.4127 135.899 46.904 135.532 47.52C135.165 48.136 134.982 48.8107 134.982 49.544C134.982 50.2773 135.165 50.9593 135.532 51.59C135.899 52.206 136.39 52.6973 137.006 53.064C137.622 53.4307 138.297 53.614 139.03 53.614C139.763 53.614 140.438 53.4307 141.054 53.064C141.685 52.6973 142.183 52.206 142.55 51.59C142.917 50.9593 143.1 50.2773 143.1 49.544ZM163.003 44L158.669 55H157.085L154.819 49.302L152.553 55H150.969L146.591 44H148.219L151.761 52.91L154.005 47.278L152.707 44H154.335L157.877 52.91L161.397 44H163.003ZM174.566 44.286V55H173.048V52.976C172.036 54.3987 170.687 55.11 169 55.11C167.988 55.11 167.057 54.868 166.206 54.384C165.356 53.8853 164.681 53.2107 164.182 52.36C163.698 51.5093 163.456 50.5853 163.456 49.588C163.456 48.576 163.698 47.6447 164.182 46.794C164.681 45.9433 165.356 45.276 166.206 44.792C167.057 44.2933 167.988 44.044 169 44.044C170.042 44.044 170.892 44.264 171.552 44.704C172.227 45.1293 172.726 45.5913 173.048 46.09V44.286H174.566ZM169 53.614C169.734 53.614 170.408 53.438 171.024 53.086C171.64 52.7193 172.124 52.228 172.476 51.612C172.843 50.996 173.026 50.3213 173.026 49.588C173.026 48.8547 172.843 48.18 172.476 47.564C172.124 46.9333 171.64 46.442 171.024 46.09C170.408 45.7233 169.734 45.54 169 45.54C168.267 45.54 167.585 45.7233 166.954 46.09C166.338 46.442 165.847 46.9333 165.48 47.564C165.128 48.18 164.952 48.8547 164.952 49.588C164.952 50.3213 165.128 50.996 165.48 51.612C165.847 52.228 166.338 52.7193 166.954 53.086C167.585 53.438 168.267 53.614 169 53.614ZM186.088 44V54.912C186.088 55.7773 185.875 56.5767 185.45 57.31C185.025 58.0433 184.445 58.6227 183.712 59.048C182.979 59.4733 182.179 59.686 181.314 59.686C180.478 59.686 179.708 59.488 179.004 59.092C178.3 58.696 177.728 58.1607 177.288 57.486L178.608 56.738C178.901 57.178 179.283 57.53 179.752 57.794C180.236 58.058 180.757 58.19 181.314 58.19C181.901 58.19 182.443 58.0433 182.942 57.75C183.455 57.4567 183.859 57.0533 184.152 56.54C184.445 56.0413 184.592 55.4987 184.592 54.912V53.746C184.152 54.1567 183.653 54.4793 183.096 54.714C182.539 54.934 181.945 55.044 181.314 55.044C180.463 55.044 179.671 54.8387 178.938 54.428C178.219 54.0027 177.64 53.438 177.2 52.734C176.775 52.03 176.555 51.2527 176.54 50.402V44H178.036V50.27C178.036 50.8567 178.183 51.4067 178.476 51.92C178.769 52.4187 179.165 52.8147 179.664 53.108C180.177 53.4013 180.727 53.548 181.314 53.548C181.901 53.548 182.443 53.4013 182.942 53.108C183.455 52.8147 183.859 52.4187 184.152 51.92C184.445 51.4067 184.592 50.8567 184.592 50.27V44H186.088ZM189.402 52.052C189.52 52.4627 189.703 52.7853 189.952 53.02C190.363 53.4013 190.964 53.592 191.756 53.592C192.446 53.592 193.003 53.4307 193.428 53.108C193.854 52.7853 194.066 52.3673 194.066 51.854C194.066 51.37 193.971 51.0107 193.78 50.776C193.59 50.5413 193.34 50.3947 193.032 50.336C192.739 50.2627 192.328 50.2187 191.8 50.204C191.038 50.16 190.414 50.0793 189.93 49.962C189.446 49.83 189.006 49.544 188.61 49.104C188.126 48.5027 187.884 47.8427 187.884 47.124C187.884 46.948 187.892 46.816 187.906 46.728C188.024 45.804 188.412 45.1 189.072 44.616C189.732 44.1173 190.62 43.868 191.734 43.868H191.756C192.578 43.868 193.245 44.022 193.758 44.33C194.272 44.638 194.668 45.012 194.946 45.452C195.24 45.936 195.423 46.442 195.496 46.97H193.956C193.927 46.7647 193.832 46.5227 193.67 46.244C193.304 45.6867 192.666 45.3933 191.756 45.364C190.832 45.364 190.224 45.518 189.93 45.826C189.637 46.134 189.461 46.4933 189.402 46.904C189.388 46.9627 189.38 47.0433 189.38 47.146C189.38 47.498 189.505 47.8133 189.754 48.092C189.96 48.3413 190.224 48.51 190.546 48.598C190.869 48.6713 191.331 48.73 191.932 48.774C192.416 48.8033 192.827 48.8473 193.164 48.906C193.516 48.9647 193.846 49.0747 194.154 49.236C195.108 49.7493 195.584 50.622 195.584 51.854C195.584 52.2793 195.496 52.69 195.32 53.086C195.159 53.4673 194.924 53.8047 194.616 54.098C193.927 54.7727 192.981 55.11 191.778 55.11C190.605 55.11 189.652 54.78 188.918 54.12C188.346 53.5627 187.994 52.8733 187.862 52.052H189.402Z" fill="#4D4D4D"/>
</g>
<defs>
<clipPath id="clip0_5127_7075">
<rect width="206" height="60" fill="white"/>
</clipPath>
</defs>
</svg>
