<svg width="745" height="168" viewBox="0 0 745 168" fill="none" xmlns="http://www.w3.org/2000/svg">
<g clip-path="url(#clip0_1502_1056)">
<path d="M242.415 83.2454C242.415 92.1011 246.843 97.1272 255.817 97.1272C258.33 97.1272 260.603 96.7682 262.398 95.9305C265.749 94.6141 268.022 92.101 269.219 88.6306C269.697 86.9552 269.937 85.1601 269.937 83.2454C269.937 81.3307 269.697 79.5356 269.219 77.8602C267.903 74.1504 265.868 72.116 262.398 70.4406C260.603 69.7226 258.33 69.3636 255.817 69.3636C246.843 69.3636 242.415 74.3897 242.415 83.2454ZM224.467 29.3934H242.415V59.3112C246.484 54.644 251.988 52.7293 258.091 52.7293C275.561 52.7293 287.885 66.7308 287.885 83.4847C287.885 102.393 273.885 113.762 256.056 113.762C237.509 113.762 224.467 101.555 224.467 83.2454V29.3934ZM292.584 53.3276H310.532V113.163H292.584V53.3276ZM301.558 47.7031C295.455 47.7031 291.148 43.3949 291.148 37.2917C291.148 31.0688 295.455 27 301.558 27C307.78 27 311.848 31.0688 311.848 37.2917C311.848 43.6343 307.9 47.7031 301.558 47.7031ZM381.042 83.2454V113.163H363.093V83.2454C363.093 74.9881 359.264 69.3636 350.529 69.3636C341.914 69.3636 337.965 75.1078 337.965 83.2454V113.163H320.017V83.2454C320.017 64.8161 332.7 52.7293 350.529 52.7293C369.076 52.7293 381.042 65.4144 381.042 83.2454ZM430.971 83.2454C430.971 74.2701 426.544 69.3636 417.45 69.3636C414.937 69.3636 412.783 69.7226 410.988 70.4406C407.638 71.9963 405.364 74.2701 404.287 77.8602C403.689 79.5356 403.45 81.3307 403.45 83.2454C403.45 85.1601 403.689 86.9552 404.287 88.6306C405.244 92.101 407.757 94.6141 410.988 95.9305C412.783 96.7682 414.937 97.1272 417.45 97.1272C426.544 97.1272 430.971 92.2207 430.971 83.2454ZM430.971 59.3112V29.3934H448.92V83.2454C448.92 102.273 435.398 113.762 417.33 113.762C398.903 113.762 385.501 101.794 385.501 83.4847C385.501 66.6111 397.945 52.7293 414.937 52.7293C421.279 52.7293 426.783 54.5243 430.971 59.3112ZM530.438 53.3276H548.387C552.335 62.5423 552.575 73.3127 552.575 83.2454C552.575 100.478 541.805 113.762 524.335 113.762C515.84 113.762 509.019 109.693 504.712 102.393C500.523 109.573 493.464 113.762 485.088 113.762C468.096 113.762 456.848 102.153 456.848 85.6388V53.3276H474.797V85.6388C474.797 92.3404 478.028 97.1272 485.088 97.1272C492.267 97.1272 495.737 92.4601 495.737 85.6388V53.3276H513.686V85.6388C513.686 92.4601 517.156 97.1272 524.335 97.1272C532.233 97.1272 534.626 89.947 534.626 83.2454C534.626 73.911 534.147 62.0636 530.438 53.3276ZM599.991 83.2454C599.512 74.5094 595.563 69.3636 586.469 69.3636C583.956 69.3636 581.803 69.7226 580.008 70.4406C574.503 72.9537 572.469 77.6209 572.469 83.3651C572.469 85.2798 572.709 87.0749 573.307 88.6306C575.102 94.8535 580.486 97.1272 586.469 97.1272C595.563 97.1272 599.991 92.2207 599.991 83.2454ZM622.725 113.163H604.777C603.58 110.171 602.503 107.18 601.785 104.068C597.717 110.77 591.495 113.762 583.837 113.762C566.726 113.762 554.521 99.401 554.521 83.0061C554.521 64.098 568.64 52.7293 586.469 52.7293C605.495 52.7293 617.461 64.9357 617.939 83.2454C618.059 84.8011 618.059 86.5962 618.059 88.7503C618.059 97.1272 619.375 105.504 622.725 113.163ZM667.509 83.2454V53.3276H685.458V110.052C685.458 129.079 671.817 140.688 653.748 140.688C647.407 140.688 641.065 140.089 634.962 138.055V119.625C640.107 122.378 647.048 123.335 652.791 123.335C659.253 123.335 664.398 121.42 666.791 115.198C667.27 113.522 667.509 111.727 667.509 109.932V107.18C663.441 111.727 658.176 113.762 652.193 113.762C635.201 113.762 624.432 99.1616 624.432 83.2454V53.3276H642.381V83.2454C642.381 91.383 645.612 97.1272 654.347 97.1272C662.842 97.1272 667.509 91.5027 667.509 83.2454ZM691.592 111.248V94.4945C699.489 96.8879 709.421 97.3666 717.557 97.3666C720.788 97.3666 723.301 97.2469 725.096 96.8879C726.771 96.6486 727.609 96.0502 727.609 95.2125C727.609 94.8535 727.489 94.6141 727.25 94.2551C726.053 93.0584 723.421 92.4601 721.865 92.101C720.31 91.742 718.275 91.2634 715.763 90.7847C713.728 90.4257 711.335 89.947 708.583 89.3486C699.25 87.3142 692.07 82.0487 692.07 71.9963C692.07 57.1571 706.549 52.7293 718.754 52.7293C726.412 52.7293 734.07 53.8063 741.609 55.362V72.2357C734.07 69.9619 725.575 69.3636 717.677 69.3636C714.566 69.3636 712.412 69.4832 711.096 69.8422C709.78 70.2013 709.062 70.7996 709.062 71.5176C709.062 72.5947 710.139 73.3127 712.173 73.6717C714.207 74.1504 717.079 74.7487 720.549 75.3471C723.66 75.9455 726.651 76.5438 729.523 77.2618C738.378 79.5356 744.72 84.3224 744.72 93.8961C744.72 109.932 728.566 113.881 715.643 113.881C707.506 113.881 699.489 112.804 691.592 111.248Z" fill="white"/>
<path d="M118.743 22.5749L113.185 20.1761C110.361 18.9656 107.044 20.2658 105.833 23.0905L97.5629 42.3026L30.8848 13.5853C29.9435 5.94075 23.399 0 15.5097 0C6.97038 0 0 6.94956 0 15.4908C0 24.032 6.94797 31.004 15.5097 31.004C18.2664 31.004 20.8663 30.2866 23.1076 29.0088L95.3665 60.1473L101.44 62.7702C103.861 63.8238 106.663 62.9944 108.164 60.9319C108.411 60.5957 108.612 60.237 108.769 59.8559L111.257 54.0945L111.302 54.0048L121.679 29.9055C122.889 27.1033 121.567 23.8078 118.743 22.5749ZM15.5097 23.8975C14.9718 23.8975 14.4563 23.8527 13.9408 23.7406C10.0633 23.0008 7.12727 19.5933 7.12727 15.4908C7.12727 10.8727 10.8926 7.10648 15.5097 7.10648C18.0199 7.10648 20.2612 8.20496 21.7852 9.95356C23.0852 11.4331 23.8921 13.3835 23.8921 15.5132C23.8921 20.1313 20.1267 23.8975 15.5097 23.8975Z" fill="white"/>
<path d="M111.234 54.1172C111.211 54.1844 111.189 54.2293 111.167 54.2965L108.769 59.8562C108.769 59.8562 108.769 59.8786 108.746 59.8786L111.234 54.1172Z" fill="white"/>
<path d="M92.6319 34.6365L57.3541 19.4371C55.9869 18.8542 55.3594 17.2626 55.9421 15.8951L60.6488 4.97754C61.2315 3.61005 62.8228 2.98235 64.19 3.56521L99.4678 18.7646C100.835 19.3474 101.463 20.9391 100.88 22.3066L96.1731 33.2241C95.5904 34.5916 93.9991 35.2193 92.6319 34.6365Z" fill="white"/>
<path d="M108.141 60.9545C106.64 63.017 103.838 63.8465 101.395 62.8152L95.8368 60.4165C95.6799 60.3493 95.5006 60.2596 95.3438 60.1699L101.418 62.7928C103.861 63.824 106.64 63.017 108.141 60.9545Z" fill="white"/>
<path d="M111.683 113.703L106.102 111.327C106.102 111.327 106.08 111.327 106.08 111.305L111.683 113.703Z" fill="white"/>
<path d="M131.226 95.0748L146.265 59.7217C146.848 58.3542 148.439 57.7265 149.784 58.3094L160.699 62.9499C162.066 63.5327 162.694 65.1244 162.111 66.4695L147.072 101.823C146.489 103.19 144.898 103.818 143.553 103.235L132.638 98.5944C131.293 98.0115 130.643 96.4198 131.226 95.0748Z" fill="white"/>
<path d="M104.219 110.027C104.241 110.05 104.241 110.05 104.264 110.072C104.264 110.05 104.241 110.05 104.219 110.027C104.241 110.027 104.241 110.027 104.219 110.027Z" fill="white"/>
<path d="M104.264 110.049C104.331 110.116 104.376 110.183 104.443 110.228C104.376 110.183 104.331 110.116 104.264 110.049Z" fill="white"/>
<path d="M104.019 109.78C104.086 109.87 104.153 109.937 104.22 110.004C102.719 108.435 102.203 106.059 103.1 103.951L105.476 98.3692C105.543 98.2123 105.632 98.0554 105.722 97.8984L103.145 103.974C102.808 104.781 102.652 105.633 102.696 106.462C102.696 106.529 102.696 106.574 102.719 106.619C102.719 106.686 102.719 106.731 102.741 106.798V106.821C102.764 106.91 102.764 107.023 102.786 107.112C102.808 107.202 102.808 107.292 102.831 107.381C102.831 107.426 102.853 107.471 102.876 107.516C102.898 107.605 102.921 107.673 102.943 107.74C102.965 107.83 102.988 107.919 103.033 108.009C103.033 108.054 103.055 108.076 103.077 108.121C103.1 108.211 103.145 108.3 103.189 108.368C103.234 108.457 103.257 108.525 103.302 108.614C103.324 108.659 103.346 108.726 103.391 108.771C103.391 108.794 103.414 108.816 103.414 108.838C103.458 108.906 103.481 108.973 103.526 109.018C103.548 109.085 103.593 109.13 103.638 109.175C103.683 109.242 103.727 109.332 103.795 109.399C103.839 109.444 103.862 109.511 103.907 109.556C103.907 109.645 103.952 109.713 104.019 109.78Z" fill="white"/>
<path d="M104.736 110.499C104.646 110.409 104.556 110.342 104.467 110.252C104.534 110.319 104.624 110.409 104.736 110.499Z" fill="white"/>
<path d="M54.6432 108.861L52.2227 114.623C52.2451 114.578 52.2675 114.511 52.2899 114.466L54.6432 108.884C54.6432 108.861 54.6432 108.861 54.6432 108.861Z" fill="white"/>
<path d="M71.0032 133.946L106.415 148.832C107.783 149.415 108.433 150.984 107.85 152.352L103.255 163.292C102.672 164.659 101.104 165.309 99.7364 164.726L64.3242 149.841C62.957 149.258 62.307 147.689 62.8898 146.321L67.4844 135.381C68.0447 134.014 69.636 133.364 71.0032 133.946Z" fill="white"/>
<path d="M68.0225 108.436L61.9487 105.881C59.7746 104.984 57.3316 105.544 55.7852 107.136C57.3316 105.522 59.797 104.939 61.9711 105.858L67.5519 108.212C67.7312 108.279 67.8881 108.347 68.0225 108.436Z" fill="white"/>
<path d="M56.8605 57.4114L51.0332 54.9902C51.1004 55.0127 51.1677 55.0351 51.2349 55.0799L56.8381 57.4114C56.8605 57.389 56.8605 57.389 56.8605 57.4114Z" fill="white"/>
<path d="M31.8482 73.8664L17.123 109.354C16.5627 110.721 14.9714 111.372 13.6042 110.811L2.64431 106.26C1.27713 105.7 0.627158 104.108 1.18748 102.741L15.9127 67.2755C16.473 65.9081 18.0643 65.2579 19.4315 65.8184L30.3914 70.3692C31.781 70.9297 32.4309 72.4989 31.8482 73.8664Z" fill="white"/>
<path d="M149.448 1.72656C140.909 1.72656 133.938 8.67612 133.938 17.2174C133.938 20.3334 134.857 23.2254 136.449 25.6465L105.721 97.8995L103.143 103.975C102.807 104.782 102.65 105.634 102.695 106.463C102.695 106.508 102.695 106.575 102.717 106.62C102.717 106.687 102.717 106.732 102.74 106.799V106.822C102.762 106.911 102.762 107.024 102.785 107.113C102.807 107.203 102.807 107.293 102.829 107.382C102.829 107.427 102.852 107.472 102.874 107.517C102.897 107.606 102.919 107.674 102.942 107.741C102.964 107.831 102.986 107.92 103.031 108.01C103.031 108.055 103.054 108.077 103.076 108.122C103.098 108.212 103.143 108.301 103.188 108.369C103.233 108.458 103.255 108.526 103.3 108.615C103.323 108.66 103.345 108.727 103.39 108.772C103.39 108.795 103.412 108.817 103.412 108.839C103.457 108.907 103.479 108.974 103.524 109.019C103.547 109.086 103.592 109.131 103.636 109.176C103.681 109.243 103.726 109.333 103.793 109.4C103.838 109.445 103.86 109.512 103.905 109.557C103.973 109.624 104.017 109.691 104.085 109.781C104.129 109.826 104.152 109.871 104.197 109.915C104.219 109.938 104.219 109.938 104.241 109.96C104.264 109.983 104.264 109.983 104.286 110.005C104.309 110.028 104.309 110.028 104.309 110.028C104.466 110.185 104.622 110.341 104.802 110.476C104.891 110.543 104.981 110.61 105.071 110.678C105.407 110.924 105.766 111.126 106.147 111.283L111.75 113.682L112.019 113.794L136.157 124.061C138.981 125.272 142.298 123.927 143.486 121.102L145.862 115.52C147.072 112.695 145.728 109.4 142.904 108.189L123.651 100.007L152.384 32.4615C159.579 31.1165 165.025 24.7946 165.025 17.2174C164.958 8.67612 158.01 1.72656 149.448 1.72656ZM155.567 22.9563C154.043 24.5929 151.869 25.6017 149.448 25.6017C144.831 25.6017 141.066 21.8354 141.066 17.2174C141.066 17.0604 141.066 16.8811 141.088 16.7242C141.335 12.3302 144.988 8.83305 149.471 8.83305C154.088 8.83305 157.853 12.5993 157.853 17.2174C157.853 19.4367 156.979 21.4543 155.567 22.9563Z" fill="white"/>
<path d="M58.2957 58.2637C57.8699 57.905 57.3992 57.6135 56.8837 57.4118L51.0564 54.9907L50.9891 54.9682L26.7609 44.925C23.9145 43.7369 20.6198 45.1043 19.4543 47.9514L17.1234 53.5559C15.9355 56.403 17.3027 59.6984 20.1491 60.8641L39.469 68.8898L11.1392 137.175C4.70669 139.058 0 145.021 0 152.06C0 160.602 6.94797 167.573 15.5097 167.573C24.0489 167.573 31.0193 160.624 31.0193 152.06C31.0193 148.429 29.7642 145.088 27.6574 142.443L57.3544 70.8177C57.444 70.6608 57.5113 70.5039 57.5785 70.3469L59.9094 64.7425C60.8508 62.411 60.1336 59.7881 58.2957 58.2637ZM15.5097 160.445C10.8926 160.445 7.12727 156.678 7.12727 152.06C7.12727 150.357 7.64277 148.787 8.49445 147.465C9.99611 145.178 12.5736 143.676 15.5097 143.676C19.8353 143.676 23.399 146.971 23.8472 151.186C23.8696 151.477 23.8921 151.769 23.8921 152.06C23.8921 156.678 20.1267 160.445 15.5097 160.445Z" fill="white"/>
<path d="M148.597 136.974C145.796 136.974 143.151 137.736 140.865 139.036L68.0232 108.436L61.9493 105.88C59.7753 104.984 57.3323 105.544 55.7858 107.136C55.3151 107.629 54.9117 108.189 54.6428 108.862L52.2222 114.623L42.0243 138.924C40.8365 141.771 42.1812 145.067 45.0052 146.255L50.586 148.609C53.4325 149.797 56.7271 148.452 57.915 145.627L66.0285 126.325L133.244 154.572C134.253 162.149 140.753 168 148.597 168C157.137 168 164.107 161.051 164.107 152.487C164.107 143.946 157.159 136.974 148.597 136.974ZM148.597 160.872C146.065 160.872 143.801 159.751 142.277 157.98C140.999 156.5 140.215 154.572 140.215 152.487C140.215 147.869 143.98 144.103 148.597 144.103C149.023 144.103 149.427 144.125 149.852 144.193C153.887 144.798 157.002 148.295 157.002 152.487C157.002 157.105 153.237 160.872 148.597 160.872Z" fill="white"/>
</g>
<defs>
<clipPath id="clip0_1502_1056">
<rect width="745" height="168" fill="white"/>
</clipPath>
</defs>
</svg>
