<svg width="211" height="60" viewBox="0 0 211 60" fill="none" xmlns="http://www.w3.org/2000/svg">
<g clip-path="url(#clip0_402_2853)">
<path d="M83.3955 22.6943C83.3955 24.6475 83.0456 26.4704 82.3457 28.1631C81.6458 29.8395 80.6937 31.2962 79.4893 32.5332C78.2848 33.7539 76.8688 34.7223 75.2412 35.4385C73.6299 36.1383 71.8965 36.4883 70.041 36.4883C68.2018 36.4883 66.4684 36.1383 64.8408 35.4385C63.2295 34.7223 61.8135 33.7539 60.5928 32.5332C59.3883 31.2962 58.4362 29.8395 57.7363 28.1631C57.0365 26.4704 56.6865 24.6475 56.6865 22.6943C56.6865 20.7087 57.0365 18.8695 57.7363 17.1768C58.4362 15.484 59.3883 14.0273 60.5928 12.8066C61.8135 11.5697 63.2295 10.6012 64.8408 9.90137C66.4684 9.2015 68.2018 8.85156 70.041 8.85156C71.8965 8.85156 73.6299 9.18522 75.2412 9.85254C76.8688 10.5036 78.2848 11.4395 79.4893 12.6602C80.6937 13.8646 81.6458 15.3213 82.3457 17.0303C83.0456 18.723 83.3955 20.611 83.3955 22.6943ZM76.6816 22.6943C76.6816 21.6201 76.5026 20.6517 76.1445 19.7891C75.8027 18.9102 75.3307 18.1615 74.7285 17.543C74.1263 16.9082 73.4183 16.4281 72.6045 16.1025C71.807 15.7607 70.9525 15.5898 70.041 15.5898C69.1296 15.5898 68.2669 15.7607 67.4531 16.1025C66.6556 16.4281 65.9557 16.9082 65.3535 17.543C64.7676 18.1615 64.3037 18.9102 63.9619 19.7891C63.6201 20.6517 63.4492 21.6201 63.4492 22.6943C63.4492 23.7035 63.6201 24.6393 63.9619 25.502C64.3037 26.3646 64.7676 27.1133 65.3535 27.748C65.9557 28.3828 66.6556 28.8874 67.4531 29.2617C68.2669 29.6198 69.1296 29.7988 70.041 29.7988C70.9525 29.7988 71.807 29.6279 72.6045 29.2861C73.4183 28.9443 74.1263 28.4642 74.7285 27.8457C75.3307 27.2272 75.8027 26.4785 76.1445 25.5996C76.5026 24.7207 76.6816 23.7523 76.6816 22.6943ZM87.793 36V21.35C87.793 19.25 88.2763 17.3333 89.243 15.6C90.243 13.8667 91.6763 12.4833 93.543 11.45C95.4096 10.4167 97.643 9.9 100.243 9.9C102.876 9.9 105.11 10.4167 106.943 11.45C108.81 12.4833 110.226 13.8667 111.193 15.6C112.193 17.3333 112.693 19.25 112.693 21.35V36H105.843V21.35C105.843 20.3167 105.593 19.3833 105.093 18.55C104.593 17.6833 103.91 17 103.043 16.5C102.21 16 101.276 15.75 100.243 15.75C99.2096 15.75 98.2596 16 97.393 16.5C96.5596 17 95.893 17.6833 95.393 18.55C94.893 19.3833 94.643 20.3167 94.643 21.35V36H87.793ZM132.834 36H117.6V29.3594H132.834C133.29 29.3594 133.68 29.1966 134.006 28.8711C134.331 28.5456 134.494 28.1549 134.494 27.6992C134.494 27.2272 134.331 26.918 134.006 26.7715C133.68 26.625 133.29 26.5518 132.834 26.5518H125.9C124.745 26.5518 123.662 26.332 122.653 25.8926C121.644 25.4531 120.765 24.859 120.017 24.1104C119.268 23.3454 118.674 22.4583 118.234 21.4492C117.811 20.4401 117.6 19.3577 117.6 18.2021C117.6 17.0465 117.811 15.9642 118.234 14.9551C118.674 13.946 119.268 13.0671 120.017 12.3184C120.765 11.5697 121.644 10.9837 122.653 10.5605C123.662 10.1211 124.745 9.90137 125.9 9.90137H139.401V16.542H125.9C125.445 16.542 125.054 16.7048 124.729 17.0303C124.403 17.3558 124.24 17.7464 124.24 18.2021C124.24 18.6742 124.403 19.0811 124.729 19.4229C125.054 19.7484 125.445 19.9111 125.9 19.9111H132.834C133.973 19.9111 135.048 20.1064 136.057 20.4971C137.066 20.8714 137.945 21.4004 138.693 22.084C139.442 22.7676 140.036 23.5895 140.476 24.5498C140.915 25.5101 141.135 26.5599 141.135 27.6992C141.135 28.8548 140.915 29.9372 140.476 30.9463C140.036 31.9391 139.442 32.818 138.693 33.583C137.945 34.3317 137.066 34.9258 136.057 35.3652C135.048 35.7884 133.973 36 132.834 36ZM169.968 22.6943C169.968 24.6475 169.618 26.4704 168.918 28.1631C168.218 29.8395 167.266 31.2962 166.062 32.5332C164.857 33.7539 163.441 34.7223 161.813 35.4385C160.202 36.1383 158.469 36.4883 156.613 36.4883C154.774 36.4883 153.041 36.1383 151.413 35.4385C149.802 34.7223 148.386 33.7539 147.165 32.5332C145.961 31.2962 145.008 29.8395 144.309 28.1631C143.609 26.4704 143.259 24.6475 143.259 22.6943C143.259 20.7087 143.609 18.8695 144.309 17.1768C145.008 15.484 145.961 14.0273 147.165 12.8066C148.386 11.5697 149.802 10.6012 151.413 9.90137C153.041 9.2015 154.774 8.85156 156.613 8.85156C158.469 8.85156 160.202 9.18522 161.813 9.85254C163.441 10.5036 164.857 11.4395 166.062 12.6602C167.266 13.8646 168.218 15.3213 168.918 17.0303C169.618 18.723 169.968 20.611 169.968 22.6943ZM163.254 22.6943C163.254 21.6201 163.075 20.6517 162.717 19.7891C162.375 18.9102 161.903 18.1615 161.301 17.543C160.699 16.9082 159.991 16.4281 159.177 16.1025C158.379 15.7607 157.525 15.5898 156.613 15.5898C155.702 15.5898 154.839 15.7607 154.025 16.1025C153.228 16.4281 152.528 16.9082 151.926 17.543C151.34 18.1615 150.876 18.9102 150.534 19.7891C150.192 20.6517 150.021 21.6201 150.021 22.6943C150.021 23.7035 150.192 24.6393 150.534 25.502C150.876 26.3646 151.34 27.1133 151.926 27.748C152.528 28.3828 153.228 28.8874 154.025 29.2617C154.839 29.6198 155.702 29.7988 156.613 29.7988C157.525 29.7988 158.379 29.6279 159.177 29.2861C159.991 28.9443 160.699 28.4642 161.301 27.8457C161.903 27.2272 162.375 26.4785 162.717 25.5996C163.075 24.7207 163.254 23.7523 163.254 22.6943ZM174.115 36V17.75C174.115 15.4833 174.749 13.7167 176.015 12.45C177.315 11.15 179.099 10.5 181.365 10.5H188.415V16.35H182.565C182.132 16.35 181.749 16.5 181.415 16.8C181.115 17.1 180.965 17.4833 180.965 17.95V36H174.115ZM204.587 36C202.976 36 201.462 35.6989 200.046 35.0967C198.63 34.4782 197.385 33.64 196.311 32.582C195.253 31.5078 194.414 30.2627 193.796 28.8467C193.194 27.4307 192.893 25.917 192.893 24.3057V16.542H189.646V9.90137H192.893V-0.547852H199.533V9.90137H209.641V16.542H199.533V24.3057C199.533 25.0055 199.663 25.6647 199.924 26.2832C200.184 26.8854 200.542 27.4144 200.998 27.8701C201.454 28.3258 201.991 28.6921 202.609 28.9688C203.228 29.2292 203.887 29.3594 204.587 29.3594H209.641V36H204.587Z" fill="#4D4D4D"/>
<path d="M31.4287 6.22058C38.3404 -0.690468 49.5151 -0.740111 56.4883 6.07117L52.7412 12.3895C52.4257 11.9638 52.0764 11.5547 51.6904 11.1688C47.4623 6.94143 40.607 6.94232 36.3789 11.1698C36.0277 11.521 35.7062 11.8889 35.415 12.2704C35.1148 12.6638 34.8292 13.0386 34.5859 13.3339C34.3647 13.6024 33.9997 14.0307 33.5146 14.3944C32.8941 14.8596 32.3307 15.1376 31.5859 15.3485V15.3495C30.6805 15.6056 29.6635 15.5712 29.1055 15.5712H11.7148L8.6875 18.5985C8.60666 18.6793 8.53218 18.7546 8.46289 18.8241C8.53244 18.8939 8.60631 18.9704 8.6875 19.0516L11.6211 21.9843C11.6551 22.0182 11.687 22.0493 11.7158 22.078C11.7562 22.078 11.8001 22.079 11.8477 22.079H29.1055C29.6635 22.079 30.6797 22.0447 31.585 22.3007H31.5859C32.3289 22.5111 32.8926 22.7891 33.5137 23.2548L33.6904 23.3944C34.0887 23.7238 34.3923 24.0813 34.5859 24.3163C34.8293 24.6117 35.1149 24.9863 35.415 25.3798C35.7059 25.761 36.0275 26.1289 36.3789 26.4803C40.4113 30.5122 46.8303 30.6964 51.084 27.038L54.8232 33.0175C47.8351 38.3428 37.8134 37.8139 31.4287 31.4296C30.8563 30.8572 30.3287 30.2542 29.8486 29.6249C29.6749 29.3971 29.54 29.2191 29.4307 29.078C29.3357 29.0777 29.2287 29.078 29.1055 29.078L11.8477 29.079L11.8467 29.078C11.4303 29.078 10.6503 29.1013 9.87891 28.9159C9.27768 28.7716 8.70268 28.5331 8.17676 28.2108L7.92969 28.0487C7.37085 27.6587 6.92922 27.1928 6.6709 26.9344L3.7373 24.0009C3.30546 23.569 2.83044 23.0977 2.45801 22.6591C2.05903 22.189 1.57618 21.531 1.28809 20.6444C0.928316 19.5365 0.905203 18.3467 1.2207 17.2274L1.28809 17.0057C1.57628 16.1191 2.05901 15.4601 2.45801 14.9901C2.83037 14.5516 3.30558 14.081 3.7373 13.6493L6.6709 10.7157C6.96604 10.4206 7.50167 9.85364 8.17773 9.43933C8.70475 9.11641 9.27906 8.87839 9.87891 8.73425H9.87988C10.4582 8.59552 11.0412 8.57362 11.4727 8.57117H29.1055C29.2288 8.57116 29.3356 8.57047 29.4307 8.57019C29.5399 8.42921 29.6754 8.25235 29.8486 8.02527C30.3286 7.39626 30.8563 6.793 31.4287 6.22058ZM41.5596 16.3505C42.9263 14.984 45.142 14.9841 46.5088 16.3505L46.5264 16.3671C47.893 17.7338 47.8929 19.9505 46.5264 21.3173C45.1595 22.6836 42.9429 22.6838 41.5762 21.3173L41.5596 21.2997C40.1931 19.9329 40.1931 17.7172 41.5596 16.3505Z" fill="#4D4D4D"/>
<path d="M47.0073 18.787C47.0073 20.4438 45.6642 21.787 44.0073 21.787C42.3505 21.787 41.0073 20.4438 41.0073 18.787C41.0073 17.1301 42.3505 15.787 44.0073 15.787C45.6642 15.787 47.0073 17.1301 47.0073 18.787Z" fill="#0B74CA"/>
<path d="M29.0242 40.392V46.024C30.0362 44.66 31.4075 43.978 33.1382 43.978C34.1502 43.978 35.0815 44.2273 35.9322 44.726C36.7829 45.2247 37.4575 45.9067 37.9562 46.772C38.4549 47.6227 38.7042 48.5467 38.7042 49.544C38.7042 50.5413 38.4549 51.4727 37.9562 52.338C37.4575 53.1887 36.7829 53.8633 35.9322 54.362C35.0815 54.8607 34.1502 55.11 33.1382 55.11C31.4662 55.11 30.0949 54.3913 29.0242 52.954V55H27.5502V40.392H29.0242ZM29.0682 49.544C29.0682 50.2773 29.2515 50.9593 29.6182 51.59C29.9849 52.206 30.4762 52.6973 31.0922 53.064C31.7229 53.4307 32.4049 53.614 33.1382 53.614C33.8715 53.614 34.5462 53.4307 35.1622 53.064C35.7782 52.6973 36.2695 52.206 36.6362 51.59C37.0029 50.9593 37.1862 50.2773 37.1862 49.544C37.1862 48.8107 37.0029 48.136 36.6362 47.52C36.2695 46.904 35.7782 46.4127 35.1622 46.046C34.5462 45.6793 33.8715 45.496 33.1382 45.496C32.4049 45.496 31.7229 45.6793 31.0922 46.046C30.4762 46.4127 29.9849 46.904 29.6182 47.52C29.2515 48.136 29.0682 48.8107 29.0682 49.544ZM50.0051 44V54.912C50.0051 55.7773 49.7925 56.5767 49.3671 57.31C48.9418 58.0433 48.3625 58.6227 47.6291 59.048C46.8958 59.4733 46.0965 59.686 45.2311 59.686C44.3951 59.686 43.6251 59.488 42.9211 59.092C42.2171 58.696 41.6451 58.1607 41.2051 57.486L42.5251 56.738C42.8185 57.178 43.1998 57.53 43.6691 57.794C44.1531 58.058 44.6738 58.19 45.2311 58.19C45.8178 58.19 46.3605 58.0433 46.8591 57.75C47.3725 57.4567 47.7758 57.0533 48.0691 56.54C48.3625 56.0413 48.5091 55.4987 48.5091 54.912V53.746C48.0691 54.1567 47.5705 54.4793 47.0131 54.714C46.4558 54.934 45.8618 55.044 45.2311 55.044C44.3805 55.044 43.5885 54.8387 42.8551 54.428C42.1365 54.0027 41.5571 53.438 41.1171 52.734C40.6918 52.03 40.4718 51.2527 40.4571 50.402V44H41.9531V50.27C41.9531 50.8567 42.0998 51.4067 42.3931 51.92C42.6865 52.4187 43.0825 52.8147 43.5811 53.108C44.0945 53.4013 44.6445 53.548 45.2311 53.548C45.8178 53.548 46.3605 53.4013 46.8591 53.108C47.3725 52.8147 47.7758 52.4187 48.0691 51.92C48.3625 51.4067 48.5091 50.8567 48.5091 50.27V44H50.0051ZM63.5926 40.392V46.024C64.6046 44.66 65.9759 43.978 67.7066 43.978C68.7186 43.978 69.6499 44.2273 70.5006 44.726C71.3512 45.2247 72.0259 45.9067 72.5246 46.772C73.0232 47.6227 73.2726 48.5467 73.2726 49.544C73.2726 50.5413 73.0232 51.4727 72.5246 52.338C72.0259 53.1887 71.3512 53.8633 70.5006 54.362C69.6499 54.8607 68.7186 55.11 67.7066 55.11C66.0346 55.11 64.6632 54.3913 63.5926 52.954V55H62.1186V40.392H63.5926ZM63.6366 49.544C63.6366 50.2773 63.8199 50.9593 64.1866 51.59C64.5532 52.206 65.0446 52.6973 65.6606 53.064C66.2912 53.4307 66.9732 53.614 67.7066 53.614C68.4399 53.614 69.1146 53.4307 69.7306 53.064C70.3466 52.6973 70.8379 52.206 71.2046 51.59C71.5712 50.9593 71.7546 50.2773 71.7546 49.544C71.7546 48.8107 71.5712 48.136 71.2046 47.52C70.8379 46.904 70.3466 46.4127 69.7306 46.046C69.1146 45.6793 68.4399 45.496 67.7066 45.496C66.9732 45.496 66.2912 45.6793 65.6606 46.046C65.0446 46.4127 64.5532 46.904 64.1866 47.52C63.8199 48.136 63.6366 48.8107 63.6366 49.544ZM76.2355 40.942C76.4995 40.942 76.7268 41.0373 76.9175 41.228C77.1082 41.4187 77.2035 41.646 77.2035 41.91C77.2035 42.1887 77.1082 42.4233 76.9175 42.614C76.7268 42.8047 76.4995 42.9 76.2355 42.9C75.9568 42.9 75.7222 42.8047 75.5315 42.614C75.3408 42.4233 75.2455 42.1887 75.2455 41.91C75.2455 41.646 75.3408 41.4187 75.5315 41.228C75.7222 41.0373 75.9568 40.942 76.2355 40.942ZM76.9835 44V55H75.4655V44H76.9835ZM83.7695 44C84.5615 44 85.2875 44.198 85.9475 44.594C86.6221 44.9753 87.1575 45.5033 87.5535 46.178C87.9495 46.838 88.1475 47.564 88.1475 48.356V55H86.6295V48.356C86.6295 47.8427 86.4975 47.3733 86.2335 46.948C85.9841 46.508 85.6395 46.1633 85.1995 45.914C84.7595 45.65 84.2828 45.518 83.7695 45.518C83.2561 45.518 82.7795 45.65 82.3395 45.914C81.8995 46.1633 81.5475 46.508 81.2835 46.948C81.0341 47.3733 80.9095 47.8427 80.9095 48.356V55H79.4135V44.286H80.9095V45.254C81.2761 44.8433 81.7015 44.5353 82.1855 44.33C82.6841 44.11 83.2121 44 83.7695 44ZM101.068 55H99.5942V52.954C98.5235 54.3913 97.1522 55.11 95.4802 55.11C94.4682 55.11 93.5368 54.8607 92.6862 54.362C91.8355 53.8633 91.1608 53.1887 90.6622 52.338C90.1635 51.4727 89.9142 50.5413 89.9142 49.544C89.9142 48.5467 90.1635 47.6227 90.6622 46.772C91.1608 45.9067 91.8355 45.2247 92.6862 44.726C93.5368 44.2273 94.4682 43.978 95.4802 43.978C97.2108 43.978 98.5822 44.66 99.5942 46.024V40.392H101.068V55ZM99.5502 49.544C99.5502 48.8107 99.3668 48.136 99.0002 47.52C98.6335 46.904 98.1348 46.4127 97.5042 46.046C96.8882 45.6793 96.2135 45.496 95.4802 45.496C94.7468 45.496 94.0722 45.6793 93.4562 46.046C92.8402 46.4127 92.3488 46.904 91.9822 47.52C91.6155 48.136 91.4322 48.8107 91.4322 49.544C91.4322 50.2773 91.6155 50.9593 91.9822 51.59C92.3488 52.206 92.8402 52.6973 93.4562 53.064C94.0722 53.4307 94.7468 53.614 95.4802 53.614C96.2135 53.614 96.8882 53.4307 97.5042 53.064C98.1348 52.6973 98.6335 52.206 99.0002 51.59C99.3668 50.9593 99.5502 50.2773 99.5502 49.544ZM119.453 44L115.119 55H113.535L111.269 49.302L109.003 55H107.419L103.041 44H104.669L108.211 52.91L110.455 47.278L109.157 44H110.785L114.327 52.91L117.847 44H119.453ZM131.016 44.286V55H129.498V52.976C128.486 54.3987 127.137 55.11 125.45 55.11C124.438 55.11 123.507 54.868 122.656 54.384C121.806 53.8853 121.131 53.2107 120.632 52.36C120.148 51.5093 119.906 50.5853 119.906 49.588C119.906 48.576 120.148 47.6447 120.632 46.794C121.131 45.9433 121.806 45.276 122.656 44.792C123.507 44.2933 124.438 44.044 125.45 44.044C126.492 44.044 127.342 44.264 128.002 44.704C128.677 45.1293 129.176 45.5913 129.498 46.09V44.286H131.016ZM125.45 53.614C126.184 53.614 126.858 53.438 127.474 53.086C128.09 52.7193 128.574 52.228 128.926 51.612C129.293 50.996 129.476 50.3213 129.476 49.588C129.476 48.8547 129.293 48.18 128.926 47.564C128.574 46.9333 128.09 46.442 127.474 46.09C126.858 45.7233 126.184 45.54 125.45 45.54C124.717 45.54 124.035 45.7233 123.404 46.09C122.788 46.442 122.297 46.9333 121.93 47.564C121.578 48.18 121.402 48.8547 121.402 49.588C121.402 50.3213 121.578 50.996 121.93 51.612C122.297 52.228 122.788 52.7193 123.404 53.086C124.035 53.438 124.717 53.614 125.45 53.614ZM142.538 44V54.912C142.538 55.7773 142.326 56.5767 141.9 57.31C141.475 58.0433 140.896 58.6227 140.162 59.048C139.429 59.4733 138.63 59.686 137.764 59.686C136.928 59.686 136.158 59.488 135.454 59.092C134.75 58.696 134.178 58.1607 133.738 57.486L135.058 56.738C135.352 57.178 135.733 57.53 136.202 57.794C136.686 58.058 137.207 58.19 137.764 58.19C138.351 58.19 138.894 58.0433 139.392 57.75C139.906 57.4567 140.309 57.0533 140.602 56.54C140.896 56.0413 141.042 55.4987 141.042 54.912V53.746C140.602 54.1567 140.104 54.4793 139.546 54.714C138.989 54.934 138.395 55.044 137.764 55.044C136.914 55.044 136.122 54.8387 135.388 54.428C134.67 54.0027 134.09 53.438 133.65 52.734C133.225 52.03 133.005 51.2527 132.99 50.402V44H134.486V50.27C134.486 50.8567 134.633 51.4067 134.926 51.92C135.22 52.4187 135.616 52.8147 136.114 53.108C136.628 53.4013 137.178 53.548 137.764 53.548C138.351 53.548 138.894 53.4013 139.392 53.108C139.906 52.8147 140.309 52.4187 140.602 51.92C140.896 51.4067 141.042 50.8567 141.042 50.27V44H142.538ZM145.853 52.052C145.97 52.4627 146.153 52.7853 146.403 53.02C146.813 53.4013 147.415 53.592 148.207 53.592C148.896 53.592 149.453 53.4307 149.879 53.108C150.304 52.7853 150.517 52.3673 150.517 51.854C150.517 51.37 150.421 51.0107 150.231 50.776C150.04 50.5413 149.791 50.3947 149.483 50.336C149.189 50.2627 148.779 50.2187 148.251 50.204C147.488 50.16 146.865 50.0793 146.381 49.962C145.897 49.83 145.457 49.544 145.061 49.104C144.577 48.5027 144.335 47.8427 144.335 47.124C144.335 46.948 144.342 46.816 144.357 46.728C144.474 45.804 144.863 45.1 145.523 44.616C146.183 44.1173 147.07 43.868 148.185 43.868H148.207C149.028 43.868 149.695 44.022 150.209 44.33C150.722 44.638 151.118 45.012 151.397 45.452C151.69 45.936 151.873 46.442 151.947 46.97H150.407C150.377 46.7647 150.282 46.5227 150.121 46.244C149.754 45.6867 149.116 45.3933 148.207 45.364C147.283 45.364 146.674 45.518 146.381 45.826C146.087 46.134 145.911 46.4933 145.853 46.904C145.838 46.9627 145.831 47.0433 145.831 47.146C145.831 47.498 145.955 47.8133 146.205 48.092C146.41 48.3413 146.674 48.51 146.997 48.598C147.319 48.6713 147.781 48.73 148.383 48.774C148.867 48.8033 149.277 48.8473 149.615 48.906C149.967 48.9647 150.297 49.0747 150.605 49.236C151.558 49.7493 152.035 50.622 152.035 51.854C152.035 52.2793 151.947 52.69 151.771 53.086C151.609 53.4673 151.375 53.8047 151.067 54.098C150.377 54.7727 149.431 55.11 148.229 55.11C147.055 55.11 146.102 54.78 145.369 54.12C144.797 53.5627 144.445 52.8733 144.313 52.052H145.853Z" fill="#4D4D4D"/>
</g>
<defs>
<clipPath id="clip0_402_2853">
<rect width="211" height="60" fill="white"/>
</clipPath>
</defs>
</svg>
