<svg width="188" height="122" viewBox="0 0 188 122" fill="none" xmlns="http://www.w3.org/2000/svg">
<path d="M107.501 23.5L107.523 23.5225M94 36.9999C101.456 44.4557 113.545 44.4557 121.001 36.9999C128.458 29.5441 128.457 17.4558 121.001 10.0001C113.545 2.54429 101.456 2.54427 94 10.0001C93.3842 10.6158 92.8192 11.2632 92.3052 11.937C91.4596 13.0452 91.0367 13.5993 90.6836 13.864C90.3156 14.1399 90.0837 14.2546 89.6411 14.3799C89.2163 14.5 88.6794 14.5001 87.6057 14.5001L64.6073 14.5001C63.8291 14.5 63.4399 14.5 63.0737 14.5879C62.749 14.6659 62.4387 14.7944 62.1538 14.969C61.8327 15.1658 61.5575 15.441 61.0073 15.9911L57.0982 19.9C55.8379 21.1602 55.2079 21.7902 54.9718 22.5167C54.7641 23.1559 54.7643 23.8441 54.9719 24.4832C55.208 25.2098 55.838 25.8398 57.0982 27.1L61.0072 31.0088C61.5576 31.5591 61.8328 31.8342 62.1538 32.0311C62.4386 32.2056 62.7489 32.3341 63.0738 32.4119C63.4399 32.4999 63.8291 32.4999 64.6073 32.5L87.6056 32.4999C88.6794 32.4999 89.2163 32.4999 89.6411 32.6201C90.0837 32.7454 90.3157 32.8599 90.6836 33.136C91.0368 33.4006 91.4596 33.9548 92.3052 35.0631C92.8191 35.7367 93.3841 36.3841 94 36.9999Z" stroke="white" stroke-width="7" stroke-linecap="round" stroke-linejoin="round"/>
<path d="M31.2012 90.4111C29.5736 91.8109 27.7507 92.8851 25.7324 93.6338C23.7142 94.3825 21.6227 94.7568 19.458 94.7568C17.7979 94.7568 16.1947 94.5371 14.6484 94.0977C13.1185 93.6745 11.6781 93.0723 10.3271 92.291C8.99251 91.4935 7.77181 90.5413 6.66504 89.4346C5.55827 88.3278 4.60612 87.1071 3.80859 85.7725C3.02734 84.4215 2.41699 82.9811 1.97754 81.4512C1.55436 79.9049 1.34277 78.3018 1.34277 76.6416C1.34277 74.9814 1.55436 73.3783 1.97754 71.832C2.41699 70.2858 3.02734 68.8454 3.80859 67.5107C4.60612 66.1598 5.55827 64.931 6.66504 63.8242C7.77181 62.7174 8.99251 61.7734 10.3271 60.9922C11.6781 60.1947 13.1185 59.5843 14.6484 59.1611C16.1947 58.7217 17.7979 58.502 19.458 58.502C21.6227 58.502 23.7142 58.8763 25.7324 59.625C27.7507 60.3574 29.5736 61.4316 31.2012 62.8477L27.4902 68.9512C26.4648 67.8444 25.2523 66.998 23.8525 66.4121C22.4528 65.8099 20.988 65.5088 19.458 65.5088C17.9118 65.5088 16.4632 65.8018 15.1123 66.3877C13.7614 66.9736 12.5814 67.7712 11.5723 68.7803C10.5632 69.7731 9.76562 70.9531 9.17969 72.3203C8.59375 73.6712 8.30078 75.1117 8.30078 76.6416C8.30078 78.1715 8.59375 79.612 9.17969 80.9629C9.76562 82.2975 10.5632 83.4694 11.5723 84.4785C12.5814 85.4876 13.7614 86.2852 15.1123 86.8711C16.4632 87.457 17.9118 87.75 19.458 87.75C20.988 87.75 22.4528 87.457 23.8525 86.8711C25.2523 86.2689 26.4648 85.4144 27.4902 84.3076L31.2012 90.4111ZM60.3994 80.6943C60.3994 82.6475 60.0495 84.4704 59.3496 86.1631C58.6497 87.8395 57.6976 89.2962 56.4932 90.5332C55.2887 91.7539 53.8727 92.7223 52.2451 93.4385C50.6338 94.1383 48.9004 94.4883 47.0449 94.4883C45.2057 94.4883 43.4723 94.1383 41.8447 93.4385C40.2334 92.7223 38.8174 91.7539 37.5967 90.5332C36.3923 89.2962 35.4401 87.8395 34.7402 86.1631C34.0404 84.4704 33.6904 82.6475 33.6904 80.6943C33.6904 78.7087 34.0404 76.8695 34.7402 75.1768C35.4401 73.484 36.3923 72.0273 37.5967 70.8066C38.8174 69.5697 40.2334 68.6012 41.8447 67.9014C43.4723 67.2015 45.2057 66.8516 47.0449 66.8516C48.9004 66.8516 50.6338 67.1852 52.2451 67.8525C53.8727 68.5036 55.2887 69.4395 56.4932 70.6602C57.6976 71.8646 58.6497 73.3213 59.3496 75.0303C60.0495 76.723 60.3994 78.611 60.3994 80.6943ZM53.6855 80.6943C53.6855 79.6201 53.5065 78.6517 53.1484 77.7891C52.8066 76.9102 52.3346 76.1615 51.7324 75.543C51.1302 74.9082 50.4222 74.4281 49.6084 74.1025C48.8109 73.7607 47.9564 73.5898 47.0449 73.5898C46.1335 73.5898 45.2708 73.7607 44.457 74.1025C43.6595 74.4281 42.9596 74.9082 42.3574 75.543C41.7715 76.1615 41.3076 76.9102 40.9658 77.7891C40.624 78.6517 40.4531 79.6201 40.4531 80.6943C40.4531 81.7035 40.624 82.6393 40.9658 83.502C41.3076 84.3646 41.7715 85.1133 42.3574 85.748C42.9596 86.3828 43.6595 86.8874 44.457 87.2617C45.2708 87.6198 46.1335 87.7988 47.0449 87.7988C47.9564 87.7988 48.8109 87.6279 49.6084 87.2861C50.4222 86.9443 51.1302 86.4642 51.7324 85.8457C52.3346 85.2272 52.8066 84.4785 53.1484 83.5996C53.5065 82.7207 53.6855 81.7523 53.6855 80.6943ZM64.7969 94V79.35C64.7969 77.25 65.2802 75.3333 66.2469 73.6C67.2469 71.8667 68.6802 70.4833 70.5469 69.45C72.4135 68.4167 74.6469 67.9 77.2469 67.9C79.8802 67.9 82.1135 68.4167 83.9469 69.45C85.8135 70.4833 87.2302 71.8667 88.1969 73.6C89.1969 75.3333 89.6969 77.25 89.6969 79.35V94H82.8469V79.35C82.8469 78.3167 82.5969 77.3833 82.0969 76.55C81.5969 75.6833 80.9135 75 80.0469 74.5C79.2135 74 78.2802 73.75 77.2469 73.75C76.2135 73.75 75.2635 74 74.3969 74.5C73.5635 75 72.8969 75.6833 72.3969 76.55C71.8969 77.3833 71.6469 78.3167 71.6469 79.35V94H64.7969ZM109.838 94H94.6035V87.3594H109.838C110.294 87.3594 110.684 87.1966 111.01 86.8711C111.335 86.5456 111.498 86.1549 111.498 85.6992C111.498 85.2272 111.335 84.918 111.01 84.7715C110.684 84.625 110.294 84.5518 109.838 84.5518H102.904C101.749 84.5518 100.666 84.332 99.6572 83.8926C98.6481 83.4531 97.7692 82.859 97.0205 82.1104C96.2718 81.3454 95.6777 80.4583 95.2383 79.4492C94.8151 78.4401 94.6035 77.3577 94.6035 76.2021C94.6035 75.0465 94.8151 73.9642 95.2383 72.9551C95.6777 71.946 96.2718 71.0671 97.0205 70.3184C97.7692 69.5697 98.6481 68.9837 99.6572 68.5605C100.666 68.1211 101.749 67.9014 102.904 67.9014H116.405V74.542H102.904C102.449 74.542 102.058 74.7048 101.732 75.0303C101.407 75.3558 101.244 75.7464 101.244 76.2021C101.244 76.6742 101.407 77.0811 101.732 77.4229C102.058 77.7484 102.449 77.9111 102.904 77.9111H109.838C110.977 77.9111 112.051 78.1064 113.061 78.4971C114.07 78.8714 114.949 79.4004 115.697 80.084C116.446 80.7676 117.04 81.5895 117.479 82.5498C117.919 83.5101 118.139 84.5599 118.139 85.6992C118.139 86.8548 117.919 87.9372 117.479 88.9463C117.04 89.9391 116.446 90.818 115.697 91.583C114.949 92.3317 114.07 92.9258 113.061 93.3652C112.051 93.7884 110.977 94 109.838 94ZM146.972 80.6943C146.972 82.6475 146.622 84.4704 145.922 86.1631C145.222 87.8395 144.27 89.2962 143.065 90.5332C141.861 91.7539 140.445 92.7223 138.817 93.4385C137.206 94.1383 135.473 94.4883 133.617 94.4883C131.778 94.4883 130.045 94.1383 128.417 93.4385C126.806 92.7223 125.39 91.7539 124.169 90.5332C122.965 89.2962 122.012 87.8395 121.312 86.1631C120.613 84.4704 120.263 82.6475 120.263 80.6943C120.263 78.7087 120.613 76.8695 121.312 75.1768C122.012 73.484 122.965 72.0273 124.169 70.8066C125.39 69.5697 126.806 68.6012 128.417 67.9014C130.045 67.2015 131.778 66.8516 133.617 66.8516C135.473 66.8516 137.206 67.1852 138.817 67.8525C140.445 68.5036 141.861 69.4395 143.065 70.6602C144.27 71.8646 145.222 73.3213 145.922 75.0303C146.622 76.723 146.972 78.611 146.972 80.6943ZM140.258 80.6943C140.258 79.6201 140.079 78.6517 139.721 77.7891C139.379 76.9102 138.907 76.1615 138.305 75.543C137.702 74.9082 136.994 74.4281 136.181 74.1025C135.383 73.7607 134.529 73.5898 133.617 73.5898C132.706 73.5898 131.843 73.7607 131.029 74.1025C130.232 74.4281 129.532 74.9082 128.93 75.543C128.344 76.1615 127.88 76.9102 127.538 77.7891C127.196 78.6517 127.025 79.6201 127.025 80.6943C127.025 81.7035 127.196 82.6393 127.538 83.502C127.88 84.3646 128.344 85.1133 128.93 85.748C129.532 86.3828 130.232 86.8874 131.029 87.2617C131.843 87.6198 132.706 87.7988 133.617 87.7988C134.529 87.7988 135.383 87.6279 136.181 87.2861C136.994 86.9443 137.702 86.4642 138.305 85.8457C138.907 85.2272 139.379 84.4785 139.721 83.5996C140.079 82.7207 140.258 81.7523 140.258 80.6943ZM151.119 94V75.75C151.119 73.4833 151.752 71.7167 153.019 70.45C154.319 69.15 156.102 68.5 158.369 68.5H165.419V74.35H159.569C159.136 74.35 158.752 74.5 158.419 74.8C158.119 75.1 157.969 75.4833 157.969 75.95V94H151.119ZM181.591 94C179.979 94 178.466 93.6989 177.05 93.0967C175.634 92.4782 174.389 91.64 173.314 90.582C172.257 89.5078 171.418 88.2627 170.8 86.8467C170.198 85.4307 169.896 83.917 169.896 82.3057V74.542H166.649V67.9014H169.896V57.4521H176.537V67.9014H186.645V74.542H176.537V82.3057C176.537 83.0055 176.667 83.6647 176.928 84.2832C177.188 84.8854 177.546 85.4144 178.002 85.8701C178.458 86.3258 178.995 86.6921 179.613 86.9688C180.232 87.2292 180.891 87.3594 181.591 87.3594H186.645V94H181.591Z" fill="white"/>
<path d="M49.872 107.376V111.472C50.608 110.48 51.6053 109.984 52.864 109.984C53.6 109.984 54.2773 110.165 54.896 110.528C55.5147 110.891 56.0053 111.387 56.368 112.016C56.7307 112.635 56.912 113.307 56.912 114.032C56.912 114.757 56.7307 115.435 56.368 116.064C56.0053 116.683 55.5147 117.173 54.896 117.536C54.2773 117.899 53.6 118.08 52.864 118.08C51.648 118.08 50.6507 117.557 49.872 116.512V118H48.8V107.376H49.872ZM49.904 114.032C49.904 114.565 50.0373 115.061 50.304 115.52C50.5707 115.968 50.928 116.325 51.376 116.592C51.8347 116.859 52.3307 116.992 52.864 116.992C53.3973 116.992 53.888 116.859 54.336 116.592C54.784 116.325 55.1413 115.968 55.408 115.52C55.6747 115.061 55.808 114.565 55.808 114.032C55.808 113.499 55.6747 113.008 55.408 112.56C55.1413 112.112 54.784 111.755 54.336 111.488C53.888 111.221 53.3973 111.088 52.864 111.088C52.3307 111.088 51.8347 111.221 51.376 111.488C50.928 111.755 50.5707 112.112 50.304 112.56C50.0373 113.008 49.904 113.499 49.904 114.032ZM65.1309 110V117.936C65.1309 118.565 64.9762 119.147 64.6669 119.68C64.3575 120.213 63.9362 120.635 63.4029 120.944C62.8695 121.253 62.2882 121.408 61.6589 121.408C61.0509 121.408 60.4909 121.264 59.9789 120.976C59.4669 120.688 59.0509 120.299 58.7309 119.808L59.6909 119.264C59.9042 119.584 60.1815 119.84 60.5229 120.032C60.8749 120.224 61.2535 120.32 61.6589 120.32C62.0855 120.32 62.4802 120.213 62.8429 120C63.2162 119.787 63.5095 119.493 63.7229 119.12C63.9362 118.757 64.0429 118.363 64.0429 117.936V117.088C63.7229 117.387 63.3602 117.621 62.9549 117.792C62.5495 117.952 62.1175 118.032 61.6589 118.032C61.0402 118.032 60.4642 117.883 59.9309 117.584C59.4082 117.275 58.9869 116.864 58.6669 116.352C58.3575 115.84 58.1975 115.275 58.1869 114.656V110H59.2749V114.56C59.2749 114.987 59.3815 115.387 59.5949 115.76C59.8082 116.123 60.0962 116.411 60.4589 116.624C60.8322 116.837 61.2322 116.944 61.6589 116.944C62.0855 116.944 62.4802 116.837 62.8429 116.624C63.2162 116.411 63.5095 116.123 63.7229 115.76C63.9362 115.387 64.0429 114.987 64.0429 114.56V110H65.1309ZM75.0126 107.376V111.472C75.7486 110.48 76.746 109.984 78.0046 109.984C78.7406 109.984 79.418 110.165 80.0366 110.528C80.6553 110.891 81.146 111.387 81.5086 112.016C81.8713 112.635 82.0526 113.307 82.0526 114.032C82.0526 114.757 81.8713 115.435 81.5086 116.064C81.146 116.683 80.6553 117.173 80.0366 117.536C79.418 117.899 78.7406 118.08 78.0046 118.08C76.7886 118.08 75.7913 117.557 75.0126 116.512V118H73.9406V107.376H75.0126ZM75.0446 114.032C75.0446 114.565 75.178 115.061 75.4446 115.52C75.7113 115.968 76.0686 116.325 76.5166 116.592C76.9753 116.859 77.4713 116.992 78.0046 116.992C78.538 116.992 79.0286 116.859 79.4766 116.592C79.9246 116.325 80.282 115.968 80.5486 115.52C80.8153 115.061 80.9486 114.565 80.9486 114.032C80.9486 113.499 80.8153 113.008 80.5486 112.56C80.282 112.112 79.9246 111.755 79.4766 111.488C79.0286 111.221 78.538 111.088 78.0046 111.088C77.4713 111.088 76.9753 111.221 76.5166 111.488C76.0686 111.755 75.7113 112.112 75.4446 112.56C75.178 113.008 75.0446 113.499 75.0446 114.032ZM84.2075 107.776C84.3995 107.776 84.5648 107.845 84.7035 107.984C84.8422 108.123 84.9115 108.288 84.9115 108.48C84.9115 108.683 84.8422 108.853 84.7035 108.992C84.5648 109.131 84.3995 109.2 84.2075 109.2C84.0048 109.2 83.8342 109.131 83.6955 108.992C83.5568 108.853 83.4875 108.683 83.4875 108.48C83.4875 108.288 83.5568 108.123 83.6955 107.984C83.8342 107.845 84.0048 107.776 84.2075 107.776ZM84.7515 110V118H83.6475V110H84.7515ZM89.6868 110C90.2628 110 90.7908 110.144 91.2708 110.432C91.7614 110.709 92.1508 111.093 92.4388 111.584C92.7268 112.064 92.8708 112.592 92.8708 113.168V118H91.7668V113.168C91.7668 112.795 91.6708 112.453 91.4788 112.144C91.2974 111.824 91.0468 111.573 90.7268 111.392C90.4068 111.2 90.0601 111.104 89.6868 111.104C89.3134 111.104 88.9668 111.2 88.6468 111.392C88.3268 111.573 88.0708 111.824 87.8788 112.144C87.6974 112.453 87.6068 112.795 87.6068 113.168V118H86.5188V110.208H87.6068V110.912C87.8734 110.613 88.1828 110.389 88.5348 110.24C88.8974 110.08 89.2814 110 89.6868 110ZM102.268 118H101.196V116.512C100.417 117.557 99.4196 118.08 98.2036 118.08C97.4676 118.08 96.7903 117.899 96.1716 117.536C95.553 117.173 95.0623 116.683 94.6996 116.064C94.337 115.435 94.1556 114.757 94.1556 114.032C94.1556 113.307 94.337 112.635 94.6996 112.016C95.0623 111.387 95.553 110.891 96.1716 110.528C96.7903 110.165 97.4676 109.984 98.2036 109.984C99.4623 109.984 100.46 110.48 101.196 111.472V107.376H102.268V118ZM101.164 114.032C101.164 113.499 101.03 113.008 100.764 112.56C100.497 112.112 100.134 111.755 99.6756 111.488C99.2276 111.221 98.737 111.088 98.2036 111.088C97.6703 111.088 97.1796 111.221 96.7316 111.488C96.2836 111.755 95.9263 112.112 95.6596 112.56C95.393 113.008 95.2596 113.499 95.2596 114.032C95.2596 114.565 95.393 115.061 95.6596 115.52C95.9263 115.968 96.2836 116.325 96.7316 116.592C97.1796 116.859 97.6703 116.992 98.2036 116.992C98.737 116.992 99.2276 116.859 99.6756 116.592C100.134 116.325 100.497 115.968 100.764 115.52C101.03 115.061 101.164 114.565 101.164 114.032ZM115.639 110L112.487 118H111.335L109.687 113.856L108.039 118H106.887L103.703 110H104.887L107.463 116.48L109.095 112.384L108.151 110H109.335L111.911 116.48L114.471 110H115.639ZM124.048 110.208V118H122.944V116.528C122.208 117.563 121.227 118.08 120 118.08C119.264 118.08 118.587 117.904 117.968 117.552C117.349 117.189 116.859 116.699 116.496 116.08C116.144 115.461 115.968 114.789 115.968 114.064C115.968 113.328 116.144 112.651 116.496 112.032C116.859 111.413 117.349 110.928 117.968 110.576C118.587 110.213 119.264 110.032 120 110.032C120.757 110.032 121.376 110.192 121.856 110.512C122.347 110.821 122.709 111.157 122.944 111.52V110.208H124.048ZM120 116.992C120.533 116.992 121.024 116.864 121.472 116.608C121.92 116.341 122.272 115.984 122.528 115.536C122.795 115.088 122.928 114.597 122.928 114.064C122.928 113.531 122.795 113.04 122.528 112.592C122.272 112.133 121.92 111.776 121.472 111.52C121.024 111.253 120.533 111.12 120 111.12C119.467 111.12 118.971 111.253 118.512 111.52C118.064 111.776 117.707 112.133 117.44 112.592C117.184 113.04 117.056 113.531 117.056 114.064C117.056 114.597 117.184 115.088 117.44 115.536C117.707 115.984 118.064 116.341 118.512 116.608C118.971 116.864 119.467 116.992 120 116.992ZM132.428 110V117.936C132.428 118.565 132.273 119.147 131.964 119.68C131.654 120.213 131.233 120.635 130.7 120.944C130.166 121.253 129.585 121.408 128.956 121.408C128.348 121.408 127.788 121.264 127.276 120.976C126.764 120.688 126.348 120.299 126.028 119.808L126.988 119.264C127.201 119.584 127.478 119.84 127.82 120.032C128.172 120.224 128.55 120.32 128.956 120.32C129.382 120.32 129.777 120.213 130.14 120C130.513 119.787 130.806 119.493 131.02 119.12C131.233 118.757 131.34 118.363 131.34 117.936V117.088C131.02 117.387 130.657 117.621 130.252 117.792C129.846 117.952 129.414 118.032 128.956 118.032C128.337 118.032 127.761 117.883 127.228 117.584C126.705 117.275 126.284 116.864 125.964 116.352C125.654 115.84 125.494 115.275 125.484 114.656V110H126.572V114.56C126.572 114.987 126.678 115.387 126.892 115.76C127.105 116.123 127.393 116.411 127.756 116.624C128.129 116.837 128.529 116.944 128.956 116.944C129.382 116.944 129.777 116.837 130.14 116.624C130.513 116.411 130.806 116.123 131.02 115.76C131.233 115.387 131.34 114.987 131.34 114.56V110H132.428ZM134.838 115.856C134.923 116.155 135.057 116.389 135.238 116.56C135.537 116.837 135.974 116.976 136.55 116.976C137.051 116.976 137.457 116.859 137.766 116.624C138.075 116.389 138.23 116.085 138.23 115.712C138.23 115.36 138.161 115.099 138.022 114.928C137.883 114.757 137.702 114.651 137.478 114.608C137.265 114.555 136.966 114.523 136.582 114.512C136.027 114.48 135.574 114.421 135.222 114.336C134.87 114.24 134.55 114.032 134.262 113.712C133.91 113.275 133.734 112.795 133.734 112.272C133.734 112.144 133.739 112.048 133.75 111.984C133.835 111.312 134.118 110.8 134.598 110.448C135.078 110.085 135.723 109.904 136.534 109.904H136.55C137.147 109.904 137.633 110.016 138.006 110.24C138.379 110.464 138.667 110.736 138.87 111.056C139.083 111.408 139.217 111.776 139.27 112.16H138.15C138.129 112.011 138.059 111.835 137.942 111.632C137.675 111.227 137.211 111.013 136.55 110.992C135.878 110.992 135.435 111.104 135.222 111.328C135.009 111.552 134.881 111.813 134.838 112.112C134.827 112.155 134.822 112.213 134.822 112.288C134.822 112.544 134.913 112.773 135.094 112.976C135.243 113.157 135.435 113.28 135.67 113.344C135.905 113.397 136.241 113.44 136.678 113.472C137.03 113.493 137.329 113.525 137.574 113.568C137.83 113.611 138.07 113.691 138.294 113.808C138.987 114.181 139.334 114.816 139.334 115.712C139.334 116.021 139.27 116.32 139.142 116.608C139.025 116.885 138.854 117.131 138.63 117.344C138.129 117.835 137.441 118.08 136.566 118.08C135.713 118.08 135.019 117.84 134.486 117.36C134.07 116.955 133.814 116.453 133.718 115.856H134.838Z" fill="white"/>
</svg>
