<svg width="470" height="465" viewBox="0 0 470 465" fill="none" xmlns="http://www.w3.org/2000/svg">
<path d="M192 193.5C192 239.063 155.063 276 109.5 276C63.9365 276 27 239.063 27 193.5C27 147.937 63.9365 111 109.5 111C155.063 111 192 147.937 192 193.5Z" fill="#14E79B"/>
<circle cx="331" cy="326" r="93" fill="#14E79B"/>
<path d="M392 88.5C392 121.913 364.913 149 331.5 149C298.087 149 271 121.913 271 88.5C271 55.0868 298.087 28 331.5 28C364.913 28 392 55.0868 392 88.5Z" fill="#14E79B"/>
<path d="M334.2 227.8C303.485 227.8 276.001 241.383 257.236 262.8L192.238 222.797C195.566 213.663 197.67 203.945 197.67 193.664C197.67 186.936 196.707 180.485 195.238 174.198L281.638 134.329C294.151 149.597 312.916 159.53 334.205 159.53C371.888 159.53 402.47 128.964 402.47 91.265C402.47 53.566 371.883 23 334.2 23C296.486 23 265.935 53.566 265.935 91.265C265.935 95.428 266.452 99.467 267.148 103.399L180.85 143.233C165.301 122.169 140.515 108.335 112.334 108.335C65.2 108.335 27 146.53 27 193.665C27 240.8 65.2 279 112.335 279C136.865 279 158.835 268.499 174.4 251.9L239.301 291.836C234.498 303.699 231.8 316.617 231.8 330.2C231.8 386.766 277.634 432.6 334.2 432.6C390.735 432.6 436.6 386.766 436.6 330.2C436.6 273.634 390.735 227.8 334.2 227.8ZM334.2 57.135C353.016 57.135 368.335 72.434 368.335 91.27C368.335 110.101 353.016 125.4 334.2 125.4C315.384 125.4 300.065 110.101 300.065 91.265C300.065 72.434 315.384 57.135 334.2 57.135ZM112.335 244.865C84.098 244.865 61.135 221.902 61.135 193.665C61.135 165.433 84.098 142.465 112.335 142.465C140.567 142.465 163.535 165.433 163.535 193.665C163.535 221.902 140.567 244.865 112.335 244.865ZM334.2 398.465C296.548 398.465 265.935 367.853 265.935 330.2C265.935 292.548 296.547 261.935 334.2 261.935C371.853 261.935 402.465 292.547 402.465 330.2C402.465 367.852 371.852 398.465 334.2 398.465Z" fill="#00A5FF"/>
</svg>
