<svg width="136" height="109" viewBox="0 0 136 109" fill="none" xmlns="http://www.w3.org/2000/svg">
<g clip-path="url(#clip0_2242_22371)">
<path fill-rule="evenodd" clip-rule="evenodd" d="M46.0066 9.39845L51.6396 2.83035C51.9778 2.43608 51.565 1.85153 51.0803 2.03829L35.9191 7.88044C35.5201 8.03419 35.1809 8.31177 34.9512 8.67246L29.8573 16.6722C29.5979 17.0796 30.0097 17.5816 30.4599 17.4069L39.7802 13.7905C39.754 13.6021 39.7383 13.407 39.7383 13.2101C39.7383 10.8732 41.6955 8.97079 44.1018 8.97079C44.7834 8.97249 45.4299 9.12692 46.0066 9.39845ZM93.6579 30.0588C92.4067 30.0588 91.3896 31.0465 91.3896 32.2616C91.3896 33.475 92.4067 34.4644 93.6579 34.4644C94.9074 34.4644 95.9262 33.4767 95.9262 32.2616C95.9245 31.0465 94.9074 30.0588 93.6579 30.0588ZM79.3335 31.3384C79.3335 30.1249 78.3165 29.1355 77.0652 29.1355C75.8158 29.1355 74.797 30.1232 74.797 31.3384C74.797 32.5518 75.814 33.5395 77.0652 33.5395C78.3165 33.5395 79.3335 32.5518 79.3335 31.3384ZM91.2778 28.7113L86.9282 16.55C86.7972 16.5618 86.6644 16.5686 86.5298 16.5686C86.2205 16.5686 85.9199 16.5364 85.6298 16.4787L79.8543 28.08C80.6214 28.6994 81.1649 29.5683 81.3554 30.5577L89.4883 31.0091C89.7924 30.0554 90.4338 29.2459 91.2778 28.7113ZM88.7963 12.331C88.7963 11.1159 87.7793 10.1282 86.5298 10.1282C85.2803 10.1282 84.2633 11.1159 84.2633 12.331C84.2633 13.5444 85.2803 14.5321 86.5298 14.5321C87.7793 14.5321 88.7963 13.5444 88.7963 12.331ZM90.5194 10.6187C89.8396 9.13201 88.307 8.0917 86.5281 8.0917C85.6997 8.0917 84.9221 8.31741 84.2615 8.70944L79.1469 3.77465C78.762 3.40328 79.1504 2.76833 79.6563 2.94188L96.3637 8.67317C96.8538 8.8413 96.796 9.55226 96.2852 9.63905L90.5194 10.6187ZM96.045 28.7147C95.3583 28.2768 94.5387 28.0223 93.6579 28.0223C93.5234 28.0223 93.3905 28.029 93.2577 28.0409L88.9082 15.8813C90.0213 15.1753 90.7833 13.9874 90.8811 12.6246L101.343 10.8488C101.565 10.8111 101.785 10.9266 101.88 11.131L105.758 19.4703C105.85 19.6693 105.802 19.9053 105.639 20.0523L96.045 28.7147ZM97.1896 34.7461L100.138 38.1403L105.577 34.3102C106.764 33.4741 107.405 32.0603 107.251 30.6164L106.458 23.1618C106.414 22.7556 105.928 22.5699 105.625 22.8437L97.4727 30.2047C97.8223 30.814 98.0215 31.5149 98.0215 32.2599C98.0215 33.1899 97.7122 34.0486 97.1896 34.7461ZM104.859 38.4986C105.126 38.0319 104.569 37.531 104.133 37.8451L93.5497 45.4686C93.0912 45.799 93.4469 46.5172 93.9875 46.3527L101.529 44.0579C101.651 44.0207 101.754 43.9382 101.818 43.8274L104.859 38.4986ZM80.071 34.4084C80.6057 33.9145 81.0129 33.29 81.2366 32.5908L89.3695 33.0422C89.7487 35.0075 91.526 36.4992 93.6579 36.4992C94.3499 36.4992 95.0053 36.3397 95.5872 36.0613L98.4461 39.352L87.5853 47.2434L80.071 34.4084ZM78.6782 36.1496L79.9906 47.5065L85.2128 58.4506C85.4415 58.93 86.1612 58.7691 86.164 58.2379L86.212 49.291C86.213 49.1116 86.1656 48.9352 86.075 48.7803L78.6782 36.1496ZM70.1695 42.2998L77.7101 46.0215L76.4991 35.5386C76.1251 35.4911 75.7668 35.3978 75.4296 35.2637L70.1695 42.2998ZM69.6016 44.3041L69.4996 47.9519C69.4912 48.2531 69.619 48.542 69.8475 48.7384L82.3203 59.4552C82.7304 59.8076 83.3303 59.3487 83.0974 58.8607L78.1697 48.5332L69.6016 44.3041ZM67.5308 43.369L52.4724 37.9621C52.4078 38.1063 52.3344 38.2455 52.254 38.3813L54.6838 45.4097C55.0922 46.5914 56.1907 47.3958 57.4405 47.4285L66.4136 47.6636C66.9652 47.6781 67.4243 47.243 67.4394 46.6914L67.5308 43.369ZM73.0914 33.0847C73.2574 33.441 73.4741 33.7703 73.731 34.0656L68.2176 41.4428L54.3073 36.45L73.0914 33.0847ZM61.965 20.0901L52.5231 34.6986L72.7122 31.0821C72.7611 30.2777 73.0425 29.5327 73.4933 28.9098L65.3254 19.8304C64.726 20.1308 64.048 20.3022 63.328 20.3022C62.8509 20.3039 62.3931 20.2275 61.965 20.0901ZM48.4706 34.0707C47.2194 34.0707 46.2023 35.0584 46.2023 36.2735C46.2023 37.4869 47.2194 38.4746 48.4706 38.4746C49.7201 38.4746 50.7372 37.4869 50.7372 36.2735C50.7372 35.0584 49.7201 34.0707 48.4706 34.0707ZM44.1018 15.4146C42.8524 15.4146 41.8336 14.4269 41.8336 13.2118C41.8336 11.9984 42.8506 11.009 44.1018 11.009C45.3513 11.009 46.3684 11.9967 46.3684 13.2118C46.3684 14.4252 45.3513 15.4146 44.1018 15.4146ZM63.328 18.2674C64.5775 18.2674 65.5963 17.2797 65.5963 16.0646C65.5963 14.8512 64.5792 13.8635 63.328 13.8635C62.0785 13.8635 61.0597 14.8512 61.0597 16.0646C61.0597 17.2797 62.0768 18.2674 63.328 18.2674ZM82.521 14.0077C82.7954 14.6238 83.2165 15.1651 83.7408 15.5894L77.9652 27.1907C77.6751 27.1313 77.3746 27.099 77.0652 27.099C76.3453 27.099 75.6672 27.2704 75.0678 27.5708L66.8999 18.4914C67.3351 17.889 67.6129 17.1728 67.6741 16.3972L82.521 14.0077ZM58.7243 0.0384554C58.3594 0.0205156 58.0991 0.387144 58.2363 0.725681L62.7513 11.8643C62.9401 11.8406 63.1323 11.827 63.328 11.827C65.121 11.827 66.6658 12.8826 67.3351 14.3896L82.1785 12.0001C82.2327 11.3297 82.4458 10.7035 82.7849 10.1554L73.1601 0.871926C73.073 0.787921 72.9584 0.73835 72.8375 0.732407L58.7243 0.0384554ZM48.4462 12.8266C48.3728 12.0374 48.0757 11.3094 47.6161 10.7035L55.5082 1.50058C55.752 1.21626 56.2104 1.29108 56.3511 1.63818L60.8011 12.6127C60.1405 13.0692 59.6145 13.7006 59.2982 14.4371L48.4462 12.8266ZM45.6851 17.1609C46.7895 16.7417 47.6755 15.9 48.1316 14.841L58.9837 16.4515C59.0763 17.4409 59.5184 18.3319 60.1912 19.0073L51.1775 32.9523C50.4663 32.4041 49.5751 32.0681 48.6052 32.0393L45.6851 17.1609ZM42.8787 35.7001C43.3293 35.6639 43.5045 35.0959 43.1525 34.8123L30.4979 24.6165C30.095 24.292 29.5248 24.718 29.7219 25.1963L33.2205 33.6888C33.8825 35.2957 35.5063 36.2913 37.2387 36.1523L42.8787 35.7001ZM43.6003 17.4206L46.5536 32.4652C45.9542 32.7503 45.4317 33.1661 45.0245 33.6735L29.1735 20.9026C28.874 20.6612 28.9478 20.1862 29.3064 20.0471L40.5596 15.6811C41.2586 16.628 42.3508 17.2814 43.6003 17.4206Z" fill="url(#paint0_linear_2242_22371)"/>
<path fill-rule="evenodd" clip-rule="evenodd" d="M46.0066 9.39845L51.6396 2.83035C51.9778 2.43608 51.565 1.85153 51.0803 2.03829L35.9191 7.88044C35.5201 8.03419 35.1809 8.31177 34.9512 8.67246L29.8573 16.6722C29.5979 17.0796 30.0097 17.5816 30.4599 17.4069L39.7802 13.7905C39.754 13.6021 39.7383 13.407 39.7383 13.2101C39.7383 10.8732 41.6955 8.97079 44.1018 8.97079C44.7834 8.97249 45.4299 9.12692 46.0066 9.39845ZM93.6579 30.0588C92.4067 30.0588 91.3896 31.0465 91.3896 32.2616C91.3896 33.475 92.4067 34.4644 93.6579 34.4644C94.9074 34.4644 95.9262 33.4767 95.9262 32.2616C95.9245 31.0465 94.9074 30.0588 93.6579 30.0588ZM79.3335 31.3384C79.3335 30.1249 78.3165 29.1355 77.0652 29.1355C75.8158 29.1355 74.797 30.1232 74.797 31.3384C74.797 32.5518 75.814 33.5395 77.0652 33.5395C78.3165 33.5395 79.3335 32.5518 79.3335 31.3384ZM91.2778 28.7113L86.9282 16.55C86.7972 16.5618 86.6644 16.5686 86.5298 16.5686C86.2205 16.5686 85.9199 16.5364 85.6298 16.4787L79.8543 28.08C80.6214 28.6994 81.1649 29.5683 81.3554 30.5577L89.4883 31.0091C89.7924 30.0554 90.4338 29.2459 91.2778 28.7113ZM88.7963 12.331C88.7963 11.1159 87.7793 10.1282 86.5298 10.1282C85.2803 10.1282 84.2633 11.1159 84.2633 12.331C84.2633 13.5444 85.2803 14.5321 86.5298 14.5321C87.7793 14.5321 88.7963 13.5444 88.7963 12.331ZM90.5194 10.6187C89.8396 9.13201 88.307 8.0917 86.5281 8.0917C85.6997 8.0917 84.9221 8.31741 84.2615 8.70944L79.1469 3.77465C78.762 3.40328 79.1504 2.76833 79.6563 2.94188L96.3637 8.67317C96.8538 8.8413 96.796 9.55226 96.2852 9.63905L90.5194 10.6187ZM96.045 28.7147C95.3583 28.2768 94.5387 28.0223 93.6579 28.0223C93.5234 28.0223 93.3905 28.029 93.2577 28.0409L88.9082 15.8813C90.0213 15.1753 90.7833 13.9874 90.8811 12.6246L101.343 10.8488C101.565 10.8111 101.785 10.9266 101.88 11.131L105.758 19.4703C105.85 19.6693 105.802 19.9053 105.639 20.0523L96.045 28.7147ZM97.1896 34.7461L100.138 38.1403L105.577 34.3102C106.764 33.4741 107.405 32.0603 107.251 30.6164L106.458 23.1618C106.414 22.7556 105.928 22.5699 105.625 22.8437L97.4727 30.2047C97.8223 30.814 98.0215 31.5149 98.0215 32.2599C98.0215 33.1899 97.7122 34.0486 97.1896 34.7461ZM104.859 38.4986C105.126 38.0319 104.569 37.531 104.133 37.8451L93.5497 45.4686C93.0912 45.799 93.4469 46.5172 93.9875 46.3527L101.529 44.0579C101.651 44.0207 101.754 43.9382 101.818 43.8274L104.859 38.4986ZM80.071 34.4084C80.6057 33.9145 81.0129 33.29 81.2366 32.5908L89.3695 33.0422C89.7487 35.0075 91.526 36.4992 93.6579 36.4992C94.3499 36.4992 95.0053 36.3397 95.5872 36.0613L98.4461 39.352L87.5853 47.2434L80.071 34.4084ZM78.6782 36.1496L79.9906 47.5065L85.2128 58.4506C85.4415 58.93 86.1612 58.7691 86.164 58.2379L86.212 49.291C86.213 49.1116 86.1656 48.9352 86.075 48.7803L78.6782 36.1496ZM70.1695 42.2998L77.7101 46.0215L76.4991 35.5386C76.1251 35.4911 75.7668 35.3978 75.4296 35.2637L70.1695 42.2998ZM69.6016 44.3041L69.4996 47.9519C69.4912 48.2531 69.619 48.542 69.8475 48.7384L82.3203 59.4552C82.7304 59.8076 83.3303 59.3487 83.0974 58.8607L78.1697 48.5332L69.6016 44.3041ZM67.5308 43.369L52.4724 37.9621C52.4078 38.1063 52.3344 38.2455 52.254 38.3813L54.6838 45.4097C55.0922 46.5914 56.1907 47.3958 57.4405 47.4285L66.4136 47.6636C66.9652 47.6781 67.4243 47.243 67.4394 46.6914L67.5308 43.369ZM73.0914 33.0847C73.2574 33.441 73.4741 33.7703 73.731 34.0656L68.2176 41.4428L54.3073 36.45L73.0914 33.0847ZM61.965 20.0901L52.5231 34.6986L72.7122 31.0821C72.7611 30.2777 73.0425 29.5327 73.4933 28.9098L65.3254 19.8304C64.726 20.1308 64.048 20.3022 63.328 20.3022C62.8509 20.3039 62.3931 20.2275 61.965 20.0901ZM48.4706 34.0707C47.2194 34.0707 46.2023 35.0584 46.2023 36.2735C46.2023 37.4869 47.2194 38.4746 48.4706 38.4746C49.7201 38.4746 50.7372 37.4869 50.7372 36.2735C50.7372 35.0584 49.7201 34.0707 48.4706 34.0707ZM44.1018 15.4146C42.8524 15.4146 41.8336 14.4269 41.8336 13.2118C41.8336 11.9984 42.8506 11.009 44.1018 11.009C45.3513 11.009 46.3684 11.9967 46.3684 13.2118C46.3684 14.4252 45.3513 15.4146 44.1018 15.4146ZM63.328 18.2674C64.5775 18.2674 65.5963 17.2797 65.5963 16.0646C65.5963 14.8512 64.5792 13.8635 63.328 13.8635C62.0785 13.8635 61.0597 14.8512 61.0597 16.0646C61.0597 17.2797 62.0768 18.2674 63.328 18.2674ZM82.521 14.0077C82.7954 14.6238 83.2165 15.1651 83.7408 15.5894L77.9652 27.1907C77.6751 27.1313 77.3746 27.099 77.0652 27.099C76.3453 27.099 75.6672 27.2704 75.0678 27.5708L66.8999 18.4914C67.3351 17.889 67.6129 17.1728 67.6741 16.3972L82.521 14.0077ZM58.7243 0.0384554C58.3594 0.0205156 58.0991 0.387144 58.2363 0.725681L62.7513 11.8643C62.9401 11.8406 63.1323 11.827 63.328 11.827C65.121 11.827 66.6658 12.8826 67.3351 14.3896L82.1785 12.0001C82.2327 11.3297 82.4458 10.7035 82.7849 10.1554L73.1601 0.871926C73.073 0.787921 72.9584 0.73835 72.8375 0.732407L58.7243 0.0384554ZM48.4462 12.8266C48.3728 12.0374 48.0757 11.3094 47.6161 10.7035L55.5082 1.50058C55.752 1.21626 56.2104 1.29108 56.3511 1.63818L60.8011 12.6127C60.1405 13.0692 59.6145 13.7006 59.2982 14.4371L48.4462 12.8266ZM45.6851 17.1609C46.7895 16.7417 47.6755 15.9 48.1316 14.841L58.9837 16.4515C59.0763 17.4409 59.5184 18.3319 60.1912 19.0073L51.1775 32.9523C50.4663 32.4041 49.5751 32.0681 48.6052 32.0393L45.6851 17.1609ZM42.8787 35.7001C43.3293 35.6639 43.5045 35.0959 43.1525 34.8123L30.4979 24.6165C30.095 24.292 29.5248 24.718 29.7219 25.1963L33.2205 33.6888C33.8825 35.2957 35.5063 36.2913 37.2387 36.1523L42.8787 35.7001ZM43.6003 17.4206L46.5536 32.4652C45.9542 32.7503 45.4317 33.1661 45.0245 33.6735L29.1735 20.9026C28.874 20.6612 28.9478 20.1862 29.3064 20.0471L40.5596 15.6811C41.2586 16.628 42.3508 17.2814 43.6003 17.4206Z" fill="white"/>
<path d="M22.8256 91H17.4291L7.70844 74.4062V91H2.66351V65.793H8.06L17.7807 82.4043V65.793H22.8256V91ZM35.3331 91C33.2451 91 31.4211 90.604 29.8611 89.812C28.3251 88.996 27.1251 87.892 26.2611 86.5C25.4211 85.108 25.0011 83.548 25.0011 81.82C25.0011 79.876 25.3971 78.184 26.1891 76.744C26.9811 75.304 28.0611 74.188 29.4291 73.396C30.7971 72.604 32.3451 72.208 34.0731 72.208C36.1371 72.208 37.8051 72.64 39.0771 73.504C40.3731 74.368 41.3211 75.532 41.9211 76.996C42.5211 78.436 42.8211 80.044 42.8211 81.82C42.8211 82.06 42.8091 82.348 42.7851 82.684C42.7611 82.996 42.7251 83.236 42.6771 83.404H30.2571C30.4491 84.148 30.7731 84.772 31.2291 85.276C31.7091 85.78 32.2971 86.164 32.9931 86.428C33.7131 86.668 34.5171 86.788 35.4051 86.788H40.5171V91H35.3331ZM30.2211 80.092H37.8891C37.8411 79.636 37.7571 79.216 37.6371 78.832C37.5171 78.424 37.3491 78.064 37.1331 77.752C36.9171 77.44 36.6651 77.176 36.3771 76.96C36.0891 76.744 35.7531 76.576 35.3691 76.456C34.9851 76.336 34.5651 76.276 34.1091 76.276C33.5091 76.276 32.9691 76.384 32.4891 76.6C32.0331 76.816 31.6491 77.104 31.3371 77.464C31.0251 77.824 30.7731 78.232 30.5811 78.688C30.4131 79.144 30.2931 79.612 30.2211 80.092ZM50.5079 75.196V84.844C50.5079 85.516 50.6639 86.008 50.9759 86.32C51.3119 86.608 51.8639 86.752 52.6319 86.752H54.9719V91H51.8039C47.5559 91 45.4319 88.936 45.4319 84.808V75.196H43.0559V71.056H45.4319V66.124H50.5079V71.056H54.9719V75.196H50.5079ZM80.9867 84.1973C80.9867 85.1816 80.7992 86.1133 80.4242 86.9922C80.0492 87.8594 79.5336 88.6152 78.8773 89.2598C78.2328 89.9043 77.4711 90.4141 76.5922 90.7891C75.725 91.1641 74.7934 91.3516 73.7973 91.3516C72.9066 91.3516 72.0512 91.1992 71.2309 90.8945C70.4105 90.5781 69.6664 90.1211 68.9984 89.5234C68.3422 90.1211 67.6039 90.5781 66.7836 90.8945C65.975 91.1992 65.1195 91.3516 64.2172 91.3516C63.2211 91.3516 62.2895 91.1641 61.4223 90.7891C60.5551 90.4141 59.7934 89.9043 59.1371 89.2598C58.4926 88.6152 57.9828 87.8594 57.6078 86.9922C57.2328 86.1133 57.0453 85.1816 57.0453 84.1973V72.209H61.8441V84.1973C61.8441 84.5254 61.9027 84.8359 62.0199 85.1289C62.1488 85.4102 62.3187 85.6621 62.5297 85.8848C62.7523 86.0957 63.0043 86.2656 63.2855 86.3945C63.5785 86.5117 63.8891 86.5703 64.2172 86.5703C64.5453 86.5703 64.8559 86.5117 65.1488 86.3945C65.4418 86.2656 65.6996 86.0957 65.9223 85.8848C66.1449 85.6621 66.3148 85.4102 66.432 85.1289C66.5609 84.8359 66.6254 84.5254 66.6254 84.1973V72.209H71.4066V84.1973C71.4066 84.5254 71.4711 84.8359 71.6 85.1289C71.7289 85.4102 71.8988 85.6621 72.1098 85.8848C72.3324 86.0957 72.5844 86.2656 72.8656 86.3945C73.1586 86.5117 73.4691 86.5703 73.7973 86.5703C74.1254 86.5703 74.4359 86.5117 74.7289 86.3945C75.0219 86.2656 75.2738 86.0957 75.4848 85.8848C75.7074 85.6621 75.8832 85.4102 76.0121 85.1289C76.141 84.8359 76.2055 84.5254 76.2055 84.1973V72.209H80.9867V84.1973ZM101.941 81.4199C101.941 82.8262 101.689 84.1387 101.185 85.3574C100.681 86.5645 99.9952 87.6133 99.128 88.5039C98.2609 89.3828 97.2413 90.0801 96.0695 90.5957C94.9093 91.0996 93.6612 91.3516 92.3253 91.3516C91.0011 91.3516 89.753 91.0996 88.5812 90.5957C87.421 90.0801 86.4015 89.3828 85.5226 88.5039C84.6554 87.6133 83.9698 86.5645 83.4659 85.3574C82.962 84.1387 82.7101 82.8262 82.7101 81.4199C82.7101 79.9902 82.962 78.666 83.4659 77.4473C83.9698 76.2285 84.6554 75.1797 85.5226 74.3008C86.4015 73.4102 87.421 72.7129 88.5812 72.209C89.753 71.7051 91.0011 71.4531 92.3253 71.4531C93.6612 71.4531 94.9093 71.6934 96.0695 72.1738C97.2413 72.6426 98.2609 73.3164 99.128 74.1953C99.9952 75.0625 100.681 76.1113 101.185 77.3418C101.689 78.5605 101.941 79.9199 101.941 81.4199ZM97.1066 81.4199C97.1066 80.6465 96.9777 79.9492 96.7198 79.3281C96.4737 78.6953 96.1339 78.1562 95.7003 77.7109C95.2667 77.2539 94.757 76.9082 94.171 76.6738C93.5968 76.4277 92.9816 76.3047 92.3253 76.3047C91.6691 76.3047 91.048 76.4277 90.462 76.6738C89.8878 76.9082 89.3839 77.2539 88.9503 77.7109C88.5284 78.1562 88.1945 78.6953 87.9484 79.3281C87.7023 79.9492 87.5792 80.6465 87.5792 81.4199C87.5792 82.1465 87.7023 82.8203 87.9484 83.4414C88.1945 84.0625 88.5284 84.6016 88.9503 85.0586C89.3839 85.5156 89.8878 85.8789 90.462 86.1484C91.048 86.4062 91.6691 86.5352 92.3253 86.5352C92.9816 86.5352 93.5968 86.4121 94.171 86.166C94.757 85.9199 95.2667 85.5742 95.7003 85.1289C96.1339 84.6836 96.4737 84.1445 96.7198 83.5117C96.9777 82.8789 97.1066 82.1816 97.1066 81.4199ZM104.207 91V77.86C104.207 76.228 104.663 74.956 105.575 74.044C106.511 73.108 107.795 72.64 109.427 72.64H114.503V76.852H110.291C109.979 76.852 109.703 76.96 109.463 77.176C109.247 77.392 109.139 77.668 109.139 78.004V91H104.207ZM116.499 91V64.72H121.431V79.66H124.347L128.775 72.64H134.175L129.135 80.416C130.695 81.064 131.907 82.06 132.771 83.404C133.635 84.748 134.067 86.248 134.067 87.904V91H129.135V87.904C129.135 87.16 128.943 86.488 128.559 85.888C128.199 85.264 127.719 84.772 127.119 84.412C126.519 84.052 125.847 83.872 125.103 83.872H121.431V91H116.499Z" fill="white"/>
<path d="M29.138 96.704V100.288C29.782 99.42 30.6547 98.986 31.756 98.986C32.4 98.986 32.9927 99.1447 33.534 99.462C34.0753 99.7793 34.5047 100.213 34.822 100.764C35.1393 101.305 35.298 101.893 35.298 102.528C35.298 103.163 35.1393 103.755 34.822 104.306C34.5047 104.847 34.0753 105.277 33.534 105.594C32.9927 105.911 32.4 106.07 31.756 106.07C30.692 106.07 29.8193 105.613 29.138 104.698V106H28.2V96.704H29.138ZM29.166 102.528C29.166 102.995 29.2827 103.429 29.516 103.83C29.7493 104.222 30.062 104.535 30.454 104.768C30.8553 105.001 31.2893 105.118 31.756 105.118C32.2227 105.118 32.652 105.001 33.044 104.768C33.436 104.535 33.7487 104.222 33.982 103.83C34.2153 103.429 34.332 102.995 34.332 102.528C34.332 102.061 34.2153 101.632 33.982 101.24C33.7487 100.848 33.436 100.535 33.044 100.302C32.652 100.069 32.2227 99.952 31.756 99.952C31.2893 99.952 30.8553 100.069 30.454 100.302C30.062 100.535 29.7493 100.848 29.516 101.24C29.2827 101.632 29.166 102.061 29.166 102.528ZM42.4895 99V105.944C42.4895 106.495 42.3542 107.003 42.0835 107.47C41.8128 107.937 41.4442 108.305 40.9775 108.576C40.5108 108.847 40.0022 108.982 39.4515 108.982C38.9195 108.982 38.4295 108.856 37.9815 108.604C37.5335 108.352 37.1695 108.011 36.8895 107.582L37.7295 107.106C37.9162 107.386 38.1588 107.61 38.4575 107.778C38.7655 107.946 39.0968 108.03 39.4515 108.03C39.8248 108.03 40.1702 107.937 40.4875 107.75C40.8142 107.563 41.0708 107.307 41.2575 106.98C41.4442 106.663 41.5375 106.317 41.5375 105.944V105.202C41.2575 105.463 40.9402 105.669 40.5855 105.818C40.2308 105.958 39.8528 106.028 39.4515 106.028C38.9102 106.028 38.4062 105.897 37.9395 105.636C37.4822 105.365 37.1135 105.006 36.8335 104.558C36.5628 104.11 36.4228 103.615 36.4135 103.074V99H37.3655V102.99C37.3655 103.363 37.4588 103.713 37.6455 104.04C37.8322 104.357 38.0842 104.609 38.4015 104.796C38.7282 104.983 39.0782 105.076 39.4515 105.076C39.8248 105.076 40.1702 104.983 40.4875 104.796C40.8142 104.609 41.0708 104.357 41.2575 104.04C41.4442 103.713 41.5375 103.363 41.5375 102.99V99H42.4895ZM51.136 96.704V100.288C51.78 99.42 52.6527 98.986 53.754 98.986C54.398 98.986 54.9907 99.1447 55.532 99.462C56.0734 99.7793 56.5027 100.213 56.82 100.764C57.1374 101.305 57.296 101.893 57.296 102.528C57.296 103.163 57.1374 103.755 56.82 104.306C56.5027 104.847 56.0734 105.277 55.532 105.594C54.9907 105.911 54.398 106.07 53.754 106.07C52.69 106.07 51.8174 105.613 51.136 104.698V106H50.198V96.704H51.136ZM51.164 102.528C51.164 102.995 51.2807 103.429 51.514 103.83C51.7474 104.222 52.06 104.535 52.452 104.768C52.8534 105.001 53.2874 105.118 53.754 105.118C54.2207 105.118 54.65 105.001 55.042 104.768C55.434 104.535 55.7467 104.222 55.98 103.83C56.2134 103.429 56.33 102.995 56.33 102.528C56.33 102.061 56.2134 101.632 55.98 101.24C55.7467 100.848 55.434 100.535 55.042 100.302C54.65 100.069 54.2207 99.952 53.754 99.952C53.2874 99.952 52.8534 100.069 52.452 100.302C52.06 100.535 51.7474 100.848 51.514 101.24C51.2807 101.632 51.164 102.061 51.164 102.528ZM59.1816 97.054C59.3496 97.054 59.4942 97.1147 59.6156 97.236C59.7369 97.3573 59.7976 97.502 59.7976 97.67C59.7976 97.8473 59.7369 97.9967 59.6156 98.118C59.4942 98.2393 59.3496 98.3 59.1816 98.3C59.0042 98.3 58.8549 98.2393 58.7336 98.118C58.6122 97.9967 58.5516 97.8473 58.5516 97.67C58.5516 97.502 58.6122 97.3573 58.7336 97.236C58.8549 97.1147 59.0042 97.054 59.1816 97.054ZM59.6576 99V106H58.6916V99H59.6576ZM63.9759 99C64.4799 99 64.9419 99.126 65.3619 99.378C65.7912 99.6207 66.1319 99.9567 66.3839 100.386C66.6359 100.806 66.7619 101.268 66.7619 101.772V106H65.7959V101.772C65.7959 101.445 65.7119 101.147 65.5439 100.876C65.3852 100.596 65.1659 100.377 64.8859 100.218C64.6059 100.05 64.3026 99.966 63.9759 99.966C63.6492 99.966 63.3459 100.05 63.0659 100.218C62.7859 100.377 62.5619 100.596 62.3939 100.876C62.2352 101.147 62.1559 101.445 62.1559 101.772V106H61.2039V99.182H62.1559V99.798C62.3892 99.5367 62.6599 99.3407 62.9679 99.21C63.2852 99.07 63.6212 99 63.9759 99ZM74.9842 106H74.0462V104.698C73.3648 105.613 72.4922 106.07 71.4282 106.07C70.7842 106.07 70.1915 105.911 69.6502 105.594C69.1088 105.277 68.6795 104.847 68.3622 104.306C68.0448 103.755 67.8862 103.163 67.8862 102.528C67.8862 101.893 68.0448 101.305 68.3622 100.764C68.6795 100.213 69.1088 99.7793 69.6502 99.462C70.1915 99.1447 70.7842 98.986 71.4282 98.986C72.5295 98.986 73.4022 99.42 74.0462 100.288V96.704H74.9842V106ZM74.0182 102.528C74.0182 102.061 73.9015 101.632 73.6682 101.24C73.4348 100.848 73.1175 100.535 72.7162 100.302C72.3242 100.069 71.8948 99.952 71.4282 99.952C70.9615 99.952 70.5322 100.069 70.1402 100.302C69.7482 100.535 69.4355 100.848 69.2022 101.24C68.9688 101.632 68.8522 102.061 68.8522 102.528C68.8522 102.995 68.9688 103.429 69.2022 103.83C69.4355 104.222 69.7482 104.535 70.1402 104.768C70.5322 105.001 70.9615 105.118 71.4282 105.118C71.8948 105.118 72.3242 105.001 72.7162 104.768C73.1175 104.535 73.4348 104.222 73.6682 103.83C73.9015 103.429 74.0182 102.995 74.0182 102.528ZM86.6837 99L83.9257 106H82.9177L81.4757 102.374L80.0337 106H79.0257L76.2397 99H77.2757L79.5297 104.67L80.9577 101.086L80.1317 99H81.1677L83.4217 104.67L85.6617 99H86.6837ZM94.0421 99.182V106H93.0761V104.712C92.4321 105.617 91.5734 106.07 90.5001 106.07C89.8561 106.07 89.2634 105.916 88.7221 105.608C88.1808 105.291 87.7514 104.861 87.4341 104.32C87.1261 103.779 86.9721 103.191 86.9721 102.556C86.9721 101.912 87.1261 101.319 87.4341 100.778C87.7514 100.237 88.1808 99.812 88.7221 99.504C89.2634 99.1867 89.8561 99.028 90.5001 99.028C91.1628 99.028 91.7041 99.168 92.1241 99.448C92.5534 99.7187 92.8708 100.013 93.0761 100.33V99.182H94.0421ZM90.5001 105.118C90.9668 105.118 91.3961 105.006 91.7881 104.782C92.1801 104.549 92.4881 104.236 92.7121 103.844C92.9454 103.452 93.0621 103.023 93.0621 102.556C93.0621 102.089 92.9454 101.66 92.7121 101.268C92.4881 100.867 92.1801 100.554 91.7881 100.33C91.3961 100.097 90.9668 99.98 90.5001 99.98C90.0334 99.98 89.5994 100.097 89.1981 100.33C88.8061 100.554 88.4934 100.867 88.2601 101.268C88.0361 101.66 87.9241 102.089 87.9241 102.556C87.9241 103.023 88.0361 103.452 88.2601 103.844C88.4934 104.236 88.8061 104.549 89.1981 104.782C89.5994 105.006 90.0334 105.118 90.5001 105.118ZM101.374 99V105.944C101.374 106.495 101.239 107.003 100.968 107.47C100.698 107.937 100.329 108.305 99.8623 108.576C99.3956 108.847 98.8869 108.982 98.3363 108.982C97.8043 108.982 97.3143 108.856 96.8663 108.604C96.4183 108.352 96.0543 108.011 95.7743 107.582L96.6143 107.106C96.8009 107.386 97.0436 107.61 97.3423 107.778C97.6503 107.946 97.9816 108.03 98.3363 108.03C98.7096 108.03 99.0549 107.937 99.3723 107.75C99.6989 107.563 99.9556 107.307 100.142 106.98C100.329 106.663 100.422 106.317 100.422 105.944V105.202C100.142 105.463 99.8249 105.669 99.4703 105.818C99.1156 105.958 98.7376 106.028 98.3363 106.028C97.7949 106.028 97.2909 105.897 96.8243 105.636C96.3669 105.365 95.9983 105.006 95.7183 104.558C95.4476 104.11 95.3076 103.615 95.2983 103.074V99H96.2503V102.99C96.2503 103.363 96.3436 103.713 96.5303 104.04C96.7169 104.357 96.9689 104.609 97.2863 104.796C97.6129 104.983 97.9629 105.076 98.3363 105.076C98.7096 105.076 99.0549 104.983 99.3723 104.796C99.6989 104.609 99.9556 104.357 100.142 104.04C100.329 103.713 100.422 103.363 100.422 102.99V99H101.374ZM103.483 104.124C103.558 104.385 103.675 104.591 103.833 104.74C104.095 104.983 104.477 105.104 104.981 105.104C105.42 105.104 105.775 105.001 106.045 104.796C106.316 104.591 106.451 104.325 106.451 103.998C106.451 103.69 106.391 103.461 106.269 103.312C106.148 103.163 105.989 103.069 105.793 103.032C105.607 102.985 105.345 102.957 105.009 102.948C104.524 102.92 104.127 102.869 103.819 102.794C103.511 102.71 103.231 102.528 102.979 102.248C102.671 101.865 102.517 101.445 102.517 100.988C102.517 100.876 102.522 100.792 102.531 100.736C102.606 100.148 102.853 99.7 103.273 99.392C103.693 99.0747 104.258 98.916 104.967 98.916H104.981C105.504 98.916 105.929 99.014 106.255 99.21C106.582 99.406 106.834 99.644 107.011 99.924C107.198 100.232 107.315 100.554 107.361 100.89H106.381C106.363 100.759 106.302 100.605 106.199 100.428C105.966 100.073 105.56 99.8867 104.981 99.868C104.393 99.868 104.006 99.966 103.819 100.162C103.633 100.358 103.521 100.587 103.483 100.848C103.474 100.885 103.469 100.937 103.469 101.002C103.469 101.226 103.549 101.427 103.707 101.604C103.838 101.763 104.006 101.87 104.211 101.926C104.417 101.973 104.711 102.01 105.093 102.038C105.401 102.057 105.663 102.085 105.877 102.122C106.101 102.159 106.311 102.229 106.507 102.332C107.114 102.659 107.417 103.214 107.417 103.998C107.417 104.269 107.361 104.53 107.249 104.782C107.147 105.025 106.997 105.239 106.801 105.426C106.363 105.855 105.761 106.07 104.995 106.07C104.249 106.07 103.642 105.86 103.175 105.44C102.811 105.085 102.587 104.647 102.503 104.124H103.483Z" fill="white"/>
</g>
<defs>
<linearGradient id="paint0_linear_2242_22371" x1="68" y1="0.000678834" x2="68" y2="61.0007" gradientUnits="userSpaceOnUse">
<stop stop-color="#DB8F00"/>
<stop offset="1" stop-color="#1D93F3"/>
</linearGradient>
<clipPath id="clip0_2242_22371">
<rect width="136" height="109" fill="white"/>
</clipPath>
</defs>
</svg>
