<svg width="272" height="60" viewBox="0 0 272 60" fill="none" xmlns="http://www.w3.org/2000/svg">
<g clip-path="url(#clip0_2318_8176)">
<path fill-rule="evenodd" clip-rule="evenodd" d="M17.5066 9.39845L23.1396 2.83035C23.4778 2.43608 23.065 1.85153 22.5803 2.03829L7.41913 7.88044C7.02013 8.03419 6.68091 8.31177 6.45124 8.67246L1.35733 16.6722C1.0979 17.0796 1.50965 17.5816 1.95995 17.4069L11.2802 13.7905C11.254 13.6021 11.2383 13.407 11.2383 13.2101C11.2383 10.8732 13.1955 8.97079 15.6018 8.97079C16.2834 8.97249 16.9299 9.12692 17.5066 9.39845ZM65.1579 30.0588C63.9067 30.0588 62.8896 31.0465 62.8896 32.2616C62.8896 33.475 63.9067 34.4644 65.1579 34.4644C66.4074 34.4644 67.4262 33.4767 67.4262 32.2616C67.4245 31.0465 66.4074 30.0588 65.1579 30.0588ZM50.8335 31.3384C50.8335 30.1249 49.8165 29.1355 48.5652 29.1355C47.3158 29.1355 46.297 30.1232 46.297 31.3384C46.297 32.5518 47.314 33.5395 48.5652 33.5395C49.8165 33.5395 50.8335 32.5518 50.8335 31.3384ZM62.7778 28.7113L58.4282 16.55C58.2972 16.5618 58.1644 16.5686 58.0298 16.5686C57.7205 16.5686 57.4199 16.5364 57.1298 16.4787L51.3543 28.08C52.1214 28.6994 52.6649 29.5683 52.8554 30.5577L60.9883 31.0091C61.2924 30.0554 61.9338 29.2459 62.7778 28.7113ZM60.2963 12.331C60.2963 11.1159 59.2793 10.1282 58.0298 10.1282C56.7803 10.1282 55.7633 11.1159 55.7633 12.331C55.7633 13.5444 56.7803 14.5321 58.0298 14.5321C59.2793 14.5321 60.2963 13.5444 60.2963 12.331ZM62.0194 10.6187C61.3396 9.13201 59.807 8.0917 58.0281 8.0917C57.1997 8.0917 56.4221 8.31741 55.7615 8.70944L50.6469 3.77465C50.262 3.40328 50.6504 2.76833 51.1563 2.94188L67.8637 8.67317C68.3538 8.8413 68.296 9.55226 67.7852 9.63905L62.0194 10.6187ZM67.545 28.7147C66.8583 28.2768 66.0387 28.0223 65.1579 28.0223C65.0234 28.0223 64.8905 28.029 64.7577 28.0409L60.4082 15.8813C61.5213 15.1753 62.2833 13.9874 62.3811 12.6246L72.843 10.8488C73.0652 10.8111 73.2851 10.9266 73.3801 11.131L77.2577 19.4703C77.3502 19.6693 77.3022 19.9053 77.1394 20.0523L67.545 28.7147ZM68.6896 34.7461L71.6377 38.1403L77.0765 34.3102C78.2638 33.4741 78.9047 32.0603 78.751 30.6164L77.9575 23.1618C77.9143 22.7556 77.4285 22.5699 77.1252 22.8437L68.9727 30.2047C69.3223 30.814 69.5215 31.5149 69.5215 32.2599C69.5215 33.1899 69.2122 34.0486 68.6896 34.7461ZM76.3592 38.4986C76.6256 38.0319 76.0688 37.531 75.6327 37.8451L65.0497 45.4686C64.5912 45.799 64.9469 46.5172 65.4875 46.3527L73.0291 44.0579C73.1512 44.0207 73.2545 43.9382 73.3178 43.8274L76.3592 38.4986ZM51.571 34.4084C52.1057 33.9145 52.5129 33.29 52.7366 32.5908L60.8695 33.0422C61.2487 35.0075 63.026 36.4992 65.1579 36.4992C65.8499 36.4992 66.5053 36.3397 67.0872 36.0613L69.9461 39.352L59.0853 47.2434L51.571 34.4084ZM50.1782 36.1496L51.4906 47.5065L56.7128 58.4506C56.9415 58.93 57.6612 58.7691 57.664 58.2379L57.712 49.291C57.713 49.1116 57.6656 48.9352 57.575 48.7803L50.1782 36.1496ZM41.6695 42.2998L49.2101 46.0215L47.9991 35.5386C47.6251 35.4911 47.2668 35.3978 46.9296 35.2637L41.6695 42.2998ZM41.1016 44.3041L40.9996 47.9519C40.9912 48.2531 41.119 48.542 41.3475 48.7384L53.8203 59.4552C54.2304 59.8076 54.8303 59.3487 54.5974 58.8607L49.6697 48.5332L41.1016 44.3041ZM39.0308 43.369L23.9724 37.9621C23.9078 38.1063 23.8344 38.2455 23.754 38.3813L26.1838 45.4097C26.5922 46.5914 27.6907 47.3958 28.9405 47.4285L37.9136 47.6636C38.4652 47.6781 38.9243 47.243 38.9394 46.6914L39.0308 43.369ZM44.5914 33.0847C44.7574 33.441 44.9741 33.7703 45.231 34.0656L39.7176 41.4428L25.8073 36.45L44.5914 33.0847ZM33.465 20.0901L24.0231 34.6986L44.2122 31.0821C44.2611 30.2777 44.5425 29.5327 44.9933 28.9098L36.8254 19.8304C36.226 20.1308 35.548 20.3022 34.828 20.3022C34.3509 20.3039 33.8931 20.2275 33.465 20.0901ZM19.9706 34.0707C18.7194 34.0707 17.7023 35.0584 17.7023 36.2735C17.7023 37.4869 18.7194 38.4746 19.9706 38.4746C21.2201 38.4746 22.2372 37.4869 22.2372 36.2735C22.2372 35.0584 21.2201 34.0707 19.9706 34.0707ZM15.6018 15.4146C14.3524 15.4146 13.3336 14.4269 13.3336 13.2118C13.3336 11.9984 14.3506 11.009 15.6018 11.009C16.8513 11.009 17.8684 11.9967 17.8684 13.2118C17.8684 14.4252 16.8513 15.4146 15.6018 15.4146ZM34.828 18.2674C36.0775 18.2674 37.0963 17.2797 37.0963 16.0646C37.0963 14.8512 36.0792 13.8635 34.828 13.8635C33.5785 13.8635 32.5597 14.8512 32.5597 16.0646C32.5597 17.2797 33.5768 18.2674 34.828 18.2674ZM54.021 14.0077C54.2954 14.6238 54.7165 15.1651 55.2408 15.5894L49.4652 27.1907C49.1751 27.1313 48.8746 27.099 48.5652 27.099C47.8453 27.099 47.1672 27.2704 46.5678 27.5708L38.3999 18.4914C38.8351 17.889 39.1129 17.1728 39.1741 16.3972L54.021 14.0077ZM30.2243 0.0384554C29.8594 0.0205156 29.5991 0.387144 29.7363 0.725681L34.2513 11.8643C34.4401 11.8406 34.6323 11.827 34.828 11.827C36.621 11.827 38.1658 12.8826 38.8351 14.3896L53.6785 12.0001C53.7327 11.3297 53.9458 10.7035 54.2849 10.1554L44.6601 0.871926C44.573 0.787921 44.4584 0.73835 44.3375 0.732407L30.2243 0.0384554ZM19.9462 12.8266C19.8728 12.0374 19.5757 11.3094 19.1161 10.7035L27.0082 1.50058C27.252 1.21626 27.7104 1.29108 27.8511 1.63818L32.3011 12.6127C31.6405 13.0692 31.1145 13.7006 30.7982 14.4371L19.9462 12.8266ZM17.1851 17.1609C18.2895 16.7417 19.1755 15.9 19.6316 14.841L30.4837 16.4515C30.5763 17.4409 31.0184 18.3319 31.6912 19.0073L22.6775 32.9523C21.9663 32.4041 21.0751 32.0681 20.1052 32.0393L17.1851 17.1609ZM14.3787 35.7001C14.8293 35.6639 15.0045 35.0959 14.6525 34.8123L1.9979 24.6165C1.59504 24.292 1.02484 24.718 1.2219 25.1963L4.72051 33.6888C5.3825 35.2957 7.00635 36.2913 8.7387 36.1523L14.3787 35.7001ZM15.1003 17.4206L18.0536 32.4652C17.4542 32.7503 16.9317 33.1661 16.5245 33.6735L0.673519 20.9026C0.373986 20.6612 0.447751 20.1862 0.806361 20.0471L12.0596 15.6811C12.7586 16.628 13.8508 17.2814 15.1003 17.4206Z" fill="#4D4D4D"/>
<path d="M115.25 35H107.755L94.2539 11.9531V35H87.2471V-0.00976562H94.7422L108.243 23.0615V-0.00976562H115.25V35ZM132.621 35C129.721 35 127.188 34.45 125.021 33.35C122.888 32.2167 121.221 30.6833 120.021 28.75C118.855 26.8167 118.271 24.65 118.271 22.25C118.271 19.55 118.821 17.2 119.921 15.2C121.021 13.2 122.521 11.65 124.421 10.55C126.321 9.45 128.471 8.9 130.871 8.9C133.738 8.9 136.055 9.5 137.821 10.7C139.621 11.9 140.938 13.5167 141.771 15.55C142.605 17.55 143.021 19.7833 143.021 22.25C143.021 22.5833 143.005 22.9833 142.971 23.45C142.938 23.8833 142.888 24.2167 142.821 24.45H125.571C125.838 25.4833 126.288 26.35 126.921 27.05C127.588 27.75 128.405 28.2833 129.371 28.65C130.371 28.9833 131.488 29.15 132.721 29.15H139.821V35H132.621ZM125.521 19.85H136.171C136.105 19.2167 135.988 18.6333 135.821 18.1C135.655 17.5333 135.421 17.0333 135.121 16.6C134.821 16.1667 134.471 15.8 134.071 15.5C133.671 15.2 133.205 14.9667 132.671 14.8C132.138 14.6333 131.555 14.55 130.921 14.55C130.088 14.55 129.338 14.7 128.671 15C128.038 15.3 127.505 15.7 127.071 16.2C126.638 16.7 126.288 17.2667 126.021 17.9C125.788 18.5333 125.621 19.1833 125.521 19.85ZM153.698 13.05V26.45C153.698 27.3833 153.914 28.0667 154.348 28.5C154.814 28.9 155.581 29.1 156.648 29.1H159.898V35H155.498C149.598 35 146.648 32.1333 146.648 26.4V13.05H143.348V7.3H146.648V0.449998H153.698V7.3H159.898V13.05H153.698ZM196.029 25.5518C196.029 26.9189 195.769 28.2129 195.248 29.4336C194.727 30.638 194.011 31.6878 193.1 32.583C192.204 33.4782 191.146 34.1862 189.926 34.707C188.721 35.2279 187.427 35.4883 186.044 35.4883C184.807 35.4883 183.619 35.2767 182.479 34.8535C181.34 34.4141 180.307 33.7793 179.379 32.9492C178.467 33.7793 177.442 34.4141 176.303 34.8535C175.18 35.2767 173.992 35.4883 172.738 35.4883C171.355 35.4883 170.061 35.2279 168.856 34.707C167.652 34.1862 166.594 33.4782 165.683 32.583C164.787 31.6878 164.079 30.638 163.559 29.4336C163.038 28.2129 162.777 26.9189 162.777 25.5518V8.90137H169.442V25.5518C169.442 26.0075 169.524 26.4388 169.687 26.8457C169.866 27.2363 170.102 27.5863 170.395 27.8955C170.704 28.1885 171.054 28.4245 171.444 28.6035C171.851 28.7663 172.283 28.8477 172.738 28.8477C173.194 28.8477 173.625 28.7663 174.032 28.6035C174.439 28.4245 174.797 28.1885 175.106 27.8955C175.416 27.5863 175.652 27.2363 175.814 26.8457C175.993 26.4388 176.083 26.0075 176.083 25.5518V8.90137H182.724V25.5518C182.724 26.0075 182.813 26.4388 182.992 26.8457C183.171 27.2363 183.407 27.5863 183.7 27.8955C184.009 28.1885 184.359 28.4245 184.75 28.6035C185.157 28.7663 185.588 28.8477 186.044 28.8477C186.5 28.8477 186.931 28.7663 187.338 28.6035C187.745 28.4245 188.095 28.1885 188.388 27.8955C188.697 27.5863 188.941 27.2363 189.12 26.8457C189.299 26.4388 189.389 26.0075 189.389 25.5518V8.90137H196.029V25.5518ZM225.132 21.6943C225.132 23.6475 224.782 25.4704 224.082 27.1631C223.382 28.8395 222.43 30.2962 221.226 31.5332C220.021 32.7539 218.605 33.7223 216.978 34.4385C215.366 35.1383 213.633 35.4883 211.777 35.4883C209.938 35.4883 208.205 35.1383 206.577 34.4385C204.966 33.7223 203.55 32.7539 202.329 31.5332C201.125 30.2962 200.173 28.8395 199.473 27.1631C198.773 25.4704 198.423 23.6475 198.423 21.6943C198.423 19.7087 198.773 17.8695 199.473 16.1768C200.173 14.484 201.125 13.0273 202.329 11.8066C203.55 10.5697 204.966 9.60124 206.577 8.90137C208.205 8.2015 209.938 7.85156 211.777 7.85156C213.633 7.85156 215.366 8.18522 216.978 8.85254C218.605 9.50358 220.021 10.4395 221.226 11.6602C222.43 12.8646 223.382 14.3213 224.082 16.0303C224.782 17.723 225.132 19.611 225.132 21.6943ZM218.418 21.6943C218.418 20.6201 218.239 19.6517 217.881 18.7891C217.539 17.9102 217.067 17.1615 216.465 16.543C215.863 15.9082 215.155 15.4281 214.341 15.1025C213.543 14.7607 212.689 14.5898 211.777 14.5898C210.866 14.5898 210.003 14.7607 209.189 15.1025C208.392 15.4281 207.692 15.9082 207.09 16.543C206.504 17.1615 206.04 17.9102 205.698 18.7891C205.356 19.6517 205.186 20.6201 205.186 21.6943C205.186 22.7035 205.356 23.6393 205.698 24.502C206.04 25.3646 206.504 26.1133 207.09 26.748C207.692 27.3828 208.392 27.8874 209.189 28.2617C210.003 28.6198 210.866 28.7988 211.777 28.7988C212.689 28.7988 213.543 28.6279 214.341 28.2861C215.155 27.9443 215.863 27.4642 216.465 26.8457C217.067 26.2272 217.539 25.4785 217.881 24.5996C218.239 23.7207 218.418 22.7523 218.418 21.6943ZM228.279 35V16.75C228.279 14.4833 228.913 12.7167 230.179 11.45C231.479 10.15 233.263 9.5 235.529 9.5H242.579V15.35H236.729C236.296 15.35 235.913 15.5 235.579 15.8C235.279 16.1 235.129 16.4833 235.129 16.95V35H228.279ZM245.352 35V-1.5H252.202V19.25H256.252L262.402 9.5H269.902L262.902 20.3C265.068 21.2 266.752 22.5833 267.952 24.45C269.152 26.3167 269.752 28.4 269.752 30.7V35H262.902V30.7C262.902 29.6667 262.635 28.7333 262.102 27.9C261.602 27.0333 260.935 26.35 260.102 25.85C259.268 25.35 258.335 25.1 257.302 25.1H252.202V35H245.352Z" fill="#4D4D4D"/>
<path d="M89.2752 40.392V46.024C90.2872 44.66 91.6585 43.978 93.3892 43.978C94.4012 43.978 95.3325 44.2273 96.1832 44.726C97.0338 45.2247 97.7085 45.9067 98.2072 46.772C98.7058 47.6227 98.9552 48.5467 98.9552 49.544C98.9552 50.5413 98.7058 51.4727 98.2072 52.338C97.7085 53.1887 97.0338 53.8633 96.1832 54.362C95.3325 54.8607 94.4012 55.11 93.3892 55.11C91.7172 55.11 90.3458 54.3913 89.2752 52.954V55H87.8012V40.392H89.2752ZM89.3192 49.544C89.3192 50.2773 89.5025 50.9593 89.8692 51.59C90.2358 52.206 90.7272 52.6973 91.3432 53.064C91.9738 53.4307 92.6558 53.614 93.3892 53.614C94.1225 53.614 94.7972 53.4307 95.4132 53.064C96.0292 52.6973 96.5205 52.206 96.8872 51.59C97.2538 50.9593 97.4372 50.2773 97.4372 49.544C97.4372 48.8107 97.2538 48.136 96.8872 47.52C96.5205 46.904 96.0292 46.4127 95.4132 46.046C94.7972 45.6793 94.1225 45.496 93.3892 45.496C92.6558 45.496 91.9738 45.6793 91.3432 46.046C90.7272 46.4127 90.2358 46.904 89.8692 47.52C89.5025 48.136 89.3192 48.8107 89.3192 49.544ZM110.256 44V54.912C110.256 55.7773 110.043 56.5767 109.618 57.31C109.193 58.0433 108.613 58.6227 107.88 59.048C107.147 59.4733 106.347 59.686 105.482 59.686C104.646 59.686 103.876 59.488 103.172 59.092C102.468 58.696 101.896 58.1607 101.456 57.486L102.776 56.738C103.069 57.178 103.451 57.53 103.92 57.794C104.404 58.058 104.925 58.19 105.482 58.19C106.069 58.19 106.611 58.0433 107.11 57.75C107.623 57.4567 108.027 57.0533 108.32 56.54C108.613 56.0413 108.76 55.4987 108.76 54.912V53.746C108.32 54.1567 107.821 54.4793 107.264 54.714C106.707 54.934 106.113 55.044 105.482 55.044C104.631 55.044 103.839 54.8387 103.106 54.428C102.387 54.0027 101.808 53.438 101.368 52.734C100.943 52.03 100.723 51.2527 100.708 50.402V44H102.204V50.27C102.204 50.8567 102.351 51.4067 102.644 51.92C102.937 52.4187 103.333 52.8147 103.832 53.108C104.345 53.4013 104.895 53.548 105.482 53.548C106.069 53.548 106.611 53.4013 107.11 53.108C107.623 52.8147 108.027 52.4187 108.32 51.92C108.613 51.4067 108.76 50.8567 108.76 50.27V44H110.256ZM123.844 40.392V46.024C124.856 44.66 126.227 43.978 127.958 43.978C128.97 43.978 129.901 44.2273 130.752 44.726C131.602 45.2247 132.277 45.9067 132.776 46.772C133.274 47.6227 133.524 48.5467 133.524 49.544C133.524 50.5413 133.274 51.4727 132.776 52.338C132.277 53.1887 131.602 53.8633 130.752 54.362C129.901 54.8607 128.97 55.11 127.958 55.11C126.286 55.11 124.914 54.3913 123.844 52.954V55H122.37V40.392H123.844ZM123.888 49.544C123.888 50.2773 124.071 50.9593 124.438 51.59C124.804 52.206 125.296 52.6973 125.912 53.064C126.542 53.4307 127.224 53.614 127.958 53.614C128.691 53.614 129.366 53.4307 129.982 53.064C130.598 52.6973 131.089 52.206 131.456 51.59C131.822 50.9593 132.006 50.2773 132.006 49.544C132.006 48.8107 131.822 48.136 131.456 47.52C131.089 46.904 130.598 46.4127 129.982 46.046C129.366 45.6793 128.691 45.496 127.958 45.496C127.224 45.496 126.542 45.6793 125.912 46.046C125.296 46.4127 124.804 46.904 124.438 47.52C124.071 48.136 123.888 48.8107 123.888 49.544ZM136.486 40.942C136.75 40.942 136.978 41.0373 137.168 41.228C137.359 41.4187 137.454 41.646 137.454 41.91C137.454 42.1887 137.359 42.4233 137.168 42.614C136.978 42.8047 136.75 42.9 136.486 42.9C136.208 42.9 135.973 42.8047 135.782 42.614C135.592 42.4233 135.496 42.1887 135.496 41.91C135.496 41.646 135.592 41.4187 135.782 41.228C135.973 41.0373 136.208 40.942 136.486 40.942ZM137.234 44V55H135.716V44H137.234ZM144.02 44C144.812 44 145.538 44.198 146.198 44.594C146.873 44.9753 147.408 45.5033 147.804 46.178C148.2 46.838 148.398 47.564 148.398 48.356V55H146.88V48.356C146.88 47.8427 146.748 47.3733 146.484 46.948C146.235 46.508 145.89 46.1633 145.45 45.914C145.01 45.65 144.534 45.518 144.02 45.518C143.507 45.518 143.03 45.65 142.59 45.914C142.15 46.1633 141.798 46.508 141.534 46.948C141.285 47.3733 141.16 47.8427 141.16 48.356V55H139.664V44.286H141.16V45.254C141.527 44.8433 141.952 44.5353 142.436 44.33C142.935 44.11 143.463 44 144.02 44ZM161.319 55H159.845V52.954C158.774 54.3913 157.403 55.11 155.731 55.11C154.719 55.11 153.788 54.8607 152.937 54.362C152.086 53.8633 151.412 53.1887 150.913 52.338C150.414 51.4727 150.165 50.5413 150.165 49.544C150.165 48.5467 150.414 47.6227 150.913 46.772C151.412 45.9067 152.086 45.2247 152.937 44.726C153.788 44.2273 154.719 43.978 155.731 43.978C157.462 43.978 158.833 44.66 159.845 46.024V40.392H161.319V55ZM159.801 49.544C159.801 48.8107 159.618 48.136 159.251 47.52C158.884 46.904 158.386 46.4127 157.755 46.046C157.139 45.6793 156.464 45.496 155.731 45.496C154.998 45.496 154.323 45.6793 153.707 46.046C153.091 46.4127 152.6 46.904 152.233 47.52C151.866 48.136 151.683 48.8107 151.683 49.544C151.683 50.2773 151.866 50.9593 152.233 51.59C152.6 52.206 153.091 52.6973 153.707 53.064C154.323 53.4307 154.998 53.614 155.731 53.614C156.464 53.614 157.139 53.4307 157.755 53.064C158.386 52.6973 158.884 52.206 159.251 51.59C159.618 50.9593 159.801 50.2773 159.801 49.544ZM179.704 44L175.37 55H173.786L171.52 49.302L169.254 55H167.67L163.292 44H164.92L168.462 52.91L170.706 47.278L169.408 44H171.036L174.578 52.91L178.098 44H179.704ZM191.267 44.286V55H189.749V52.976C188.737 54.3987 187.388 55.11 185.701 55.11C184.689 55.11 183.758 54.868 182.907 54.384C182.057 53.8853 181.382 53.2107 180.883 52.36C180.399 51.5093 180.157 50.5853 180.157 49.588C180.157 48.576 180.399 47.6447 180.883 46.794C181.382 45.9433 182.057 45.276 182.907 44.792C183.758 44.2933 184.689 44.044 185.701 44.044C186.743 44.044 187.593 44.264 188.253 44.704C188.928 45.1293 189.427 45.5913 189.749 46.09V44.286H191.267ZM185.701 53.614C186.435 53.614 187.109 53.438 187.725 53.086C188.341 52.7193 188.825 52.228 189.177 51.612C189.544 50.996 189.727 50.3213 189.727 49.588C189.727 48.8547 189.544 48.18 189.177 47.564C188.825 46.9333 188.341 46.442 187.725 46.09C187.109 45.7233 186.435 45.54 185.701 45.54C184.968 45.54 184.286 45.7233 183.655 46.09C183.039 46.442 182.548 46.9333 182.181 47.564C181.829 48.18 181.653 48.8547 181.653 49.588C181.653 50.3213 181.829 50.996 182.181 51.612C182.548 52.228 183.039 52.7193 183.655 53.086C184.286 53.438 184.968 53.614 185.701 53.614ZM202.789 44V54.912C202.789 55.7773 202.577 56.5767 202.151 57.31C201.726 58.0433 201.147 58.6227 200.413 59.048C199.68 59.4733 198.881 59.686 198.015 59.686C197.179 59.686 196.409 59.488 195.705 59.092C195.001 58.696 194.429 58.1607 193.989 57.486L195.309 56.738C195.603 57.178 195.984 57.53 196.453 57.794C196.937 58.058 197.458 58.19 198.015 58.19C198.602 58.19 199.145 58.0433 199.643 57.75C200.157 57.4567 200.56 57.0533 200.853 56.54C201.147 56.0413 201.293 55.4987 201.293 54.912V53.746C200.853 54.1567 200.355 54.4793 199.797 54.714C199.24 54.934 198.646 55.044 198.015 55.044C197.165 55.044 196.373 54.8387 195.639 54.428C194.921 54.0027 194.341 53.438 193.901 52.734C193.476 52.03 193.256 51.2527 193.241 50.402V44H194.737V50.27C194.737 50.8567 194.884 51.4067 195.177 51.92C195.471 52.4187 195.867 52.8147 196.365 53.108C196.879 53.4013 197.429 53.548 198.015 53.548C198.602 53.548 199.145 53.4013 199.643 53.108C200.157 52.8147 200.56 52.4187 200.853 51.92C201.147 51.4067 201.293 50.8567 201.293 50.27V44H202.789ZM206.104 52.052C206.221 52.4627 206.404 52.7853 206.654 53.02C207.064 53.4013 207.666 53.592 208.458 53.592C209.147 53.592 209.704 53.4307 210.13 53.108C210.555 52.7853 210.768 52.3673 210.768 51.854C210.768 51.37 210.672 51.0107 210.482 50.776C210.291 50.5413 210.042 50.3947 209.734 50.336C209.44 50.2627 209.03 50.2187 208.502 50.204C207.739 50.16 207.116 50.0793 206.632 49.962C206.148 49.83 205.708 49.544 205.312 49.104C204.828 48.5027 204.586 47.8427 204.586 47.124C204.586 46.948 204.593 46.816 204.608 46.728C204.725 45.804 205.114 45.1 205.774 44.616C206.434 44.1173 207.321 43.868 208.436 43.868H208.458C209.279 43.868 209.946 44.022 210.46 44.33C210.973 44.638 211.369 45.012 211.648 45.452C211.941 45.936 212.124 46.442 212.198 46.97H210.658C210.628 46.7647 210.533 46.5227 210.372 46.244C210.005 45.6867 209.367 45.3933 208.458 45.364C207.534 45.364 206.925 45.518 206.632 45.826C206.338 46.134 206.162 46.4933 206.104 46.904C206.089 46.9627 206.082 47.0433 206.082 47.146C206.082 47.498 206.206 47.8133 206.456 48.092C206.661 48.3413 206.925 48.51 207.248 48.598C207.57 48.6713 208.032 48.73 208.634 48.774C209.118 48.8033 209.528 48.8473 209.866 48.906C210.218 48.9647 210.548 49.0747 210.856 49.236C211.809 49.7493 212.286 50.622 212.286 51.854C212.286 52.2793 212.198 52.69 212.022 53.086C211.86 53.4673 211.626 53.8047 211.318 54.098C210.628 54.7727 209.682 55.11 208.48 55.11C207.306 55.11 206.353 54.78 205.62 54.12C205.048 53.5627 204.696 52.8733 204.564 52.052H206.104Z" fill="#4D4D4D"/>
</g>
<defs>
<clipPath id="clip0_2318_8176">
<rect width="272" height="60" fill="white"/>
</clipPath>
</defs>
</svg>
