<svg width="194" height="61" viewBox="0 0 194 61" fill="none" xmlns="http://www.w3.org/2000/svg">
<g clip-path="url(#clip0_6126_3389)">
<path d="M68.3457 36.6C66.0124 36.6 63.979 36 62.2457 34.8C60.5124 33.6 59.1624 32 58.1957 30C57.2624 27.9667 56.7957 25.7333 56.7957 23.3C56.7957 20.8 57.329 18.5333 58.3957 16.5C59.4957 14.4667 61.0624 12.8667 63.0957 11.7C65.129 10.5 67.5624 9.9 70.3957 9.9C73.2624 9.9 75.679 10.5 77.6457 11.7C79.6124 12.9 81.1124 14.5167 82.1457 16.55C83.179 18.5833 83.6957 20.8333 83.6957 23.3V36H76.8457V31.75H76.7457C76.2457 32.65 75.6124 33.4667 74.8457 34.2C74.1124 34.9333 73.2124 35.5167 72.1457 35.95C71.079 36.3833 69.8124 36.6 68.3457 36.6ZM70.2957 30.75C71.629 30.75 72.779 30.4167 73.7457 29.75C74.7124 29.0833 75.4457 28.1833 75.9457 27.05C76.479 25.8833 76.7457 24.6 76.7457 23.2C76.7457 21.8 76.479 20.55 75.9457 19.45C75.4457 18.3167 74.7124 17.4167 73.7457 16.75C72.779 16.0833 71.629 15.75 70.2957 15.75C68.929 15.75 67.7457 16.0833 66.7457 16.75C65.779 17.4167 65.029 18.3167 64.4957 19.45C63.9957 20.55 63.7457 21.8 63.7457 23.2C63.7457 24.6 63.9957 25.8833 64.4957 27.05C65.029 28.1833 65.779 29.0833 66.7457 29.75C67.7457 30.4167 68.929 30.75 70.2957 30.75ZM87.4305 36V17.75C87.4305 15.4833 88.0638 13.7167 89.3305 12.45C90.6305 11.15 92.4138 10.5 94.6805 10.5H101.73V16.35H95.8805C95.4471 16.35 95.0638 16.5 94.7305 16.8C94.4305 17.1 94.2805 17.4833 94.2805 17.95V36H87.4305ZM115.829 36C113.563 36 111.779 35.35 110.479 34.05C109.213 32.75 108.579 30.9833 108.579 28.75V4.1H115.429V28.55C115.429 28.9833 115.579 29.3667 115.879 29.7C116.213 30 116.596 30.15 117.029 30.15H122.579V36H115.829ZM104.229 16.35V10.5H122.579V16.35H104.229ZM125.329 36V21.35C125.329 19.25 125.812 17.3333 126.779 15.6C127.779 13.8667 129.212 12.4833 131.079 11.45C132.946 10.4167 135.179 9.9 137.779 9.9C140.412 9.9 142.646 10.4167 144.479 11.45C146.346 12.4833 147.762 13.8667 148.729 15.6C149.729 17.3333 150.229 19.25 150.229 21.35V36H143.379V21.35C143.379 20.3167 143.129 19.3833 142.629 18.55C142.129 17.6833 141.446 17 140.579 16.5C139.746 16 138.812 15.75 137.779 15.75C136.746 15.75 135.796 16 134.929 16.5C134.096 17 133.429 17.6833 132.929 18.55C132.429 19.3833 132.179 20.3167 132.179 21.35V36H125.329ZM167.075 36C164.175 36 161.642 35.45 159.475 34.35C157.342 33.2167 155.675 31.6833 154.475 29.75C153.309 27.8167 152.725 25.65 152.725 23.25C152.725 20.55 153.275 18.2 154.375 16.2C155.475 14.2 156.975 12.65 158.875 11.55C160.775 10.45 162.925 9.9 165.325 9.9C168.192 9.9 170.509 10.5 172.275 11.7C174.075 12.9 175.392 14.5167 176.225 16.55C177.059 18.55 177.475 20.7833 177.475 23.25C177.475 23.5833 177.459 23.9833 177.425 24.45C177.392 24.8833 177.342 25.2167 177.275 25.45H160.025C160.292 26.4833 160.742 27.35 161.375 28.05C162.042 28.75 162.859 29.2833 163.825 29.65C164.825 29.9833 165.942 30.15 167.175 30.15H174.275V36H167.075ZM159.975 20.85H170.625C170.559 20.2167 170.442 19.6333 170.275 19.1C170.109 18.5333 169.875 18.0333 169.575 17.6C169.275 17.1667 168.925 16.8 168.525 16.5C168.125 16.2 167.659 15.9667 167.125 15.8C166.592 15.6333 166.009 15.55 165.375 15.55C164.542 15.55 163.792 15.7 163.125 16C162.492 16.3 161.959 16.7 161.525 17.2C161.092 17.7 160.742 18.2667 160.475 18.9C160.242 19.5333 160.075 20.1833 159.975 20.85ZM179.552 36V17.75C179.552 15.4833 180.185 13.7167 181.452 12.45C182.752 11.15 184.535 10.5 186.802 10.5H193.852V16.35H188.002C187.568 16.35 187.185 16.5 186.852 16.8C186.552 17.1 186.402 17.4833 186.402 17.95V36H179.552Z" fill="#4D4D4D"/>
<path d="M33.2752 41.392V47.024C34.2872 45.66 35.6585 44.978 37.3892 44.978C38.4012 44.978 39.3325 45.2273 40.1832 45.726C41.0338 46.2247 41.7085 46.9067 42.2072 47.772C42.7058 48.6227 42.9552 49.5467 42.9552 50.544C42.9552 51.5413 42.7058 52.4727 42.2072 53.338C41.7085 54.1887 41.0338 54.8633 40.1832 55.362C39.3325 55.8607 38.4012 56.11 37.3892 56.11C35.7172 56.11 34.3458 55.3913 33.2752 53.954V56H31.8012V41.392H33.2752ZM33.3192 50.544C33.3192 51.2773 33.5025 51.9593 33.8692 52.59C34.2358 53.206 34.7272 53.6973 35.3432 54.064C35.9738 54.4307 36.6558 54.614 37.3892 54.614C38.1225 54.614 38.7972 54.4307 39.4132 54.064C40.0292 53.6973 40.5205 53.206 40.8872 52.59C41.2538 51.9593 41.4372 51.2773 41.4372 50.544C41.4372 49.8107 41.2538 49.136 40.8872 48.52C40.5205 47.904 40.0292 47.4127 39.4132 47.046C38.7972 46.6793 38.1225 46.496 37.3892 46.496C36.6558 46.496 35.9738 46.6793 35.3432 47.046C34.7272 47.4127 34.2358 47.904 33.8692 48.52C33.5025 49.136 33.3192 49.8107 33.3192 50.544ZM54.2561 45V55.912C54.2561 56.7773 54.0435 57.5767 53.6181 58.31C53.1928 59.0433 52.6135 59.6227 51.8801 60.048C51.1468 60.4733 50.3475 60.686 49.4821 60.686C48.6461 60.686 47.8761 60.488 47.1721 60.092C46.4681 59.696 45.8961 59.1607 45.4561 58.486L46.7761 57.738C47.0695 58.178 47.4508 58.53 47.9201 58.794C48.4041 59.058 48.9248 59.19 49.4821 59.19C50.0688 59.19 50.6115 59.0433 51.1101 58.75C51.6235 58.4567 52.0268 58.0533 52.3201 57.54C52.6135 57.0413 52.7601 56.4987 52.7601 55.912V54.746C52.3201 55.1567 51.8215 55.4793 51.2641 55.714C50.7068 55.934 50.1128 56.044 49.4821 56.044C48.6315 56.044 47.8395 55.8387 47.1061 55.428C46.3875 55.0027 45.8081 54.438 45.3681 53.734C44.9428 53.03 44.7228 52.2527 44.7081 51.402V45H46.2041V51.27C46.2041 51.8567 46.3508 52.4067 46.6441 52.92C46.9375 53.4187 47.3335 53.8147 47.8321 54.108C48.3455 54.4013 48.8955 54.548 49.4821 54.548C50.0688 54.548 50.6115 54.4013 51.1101 54.108C51.6235 53.8147 52.0268 53.4187 52.3201 52.92C52.6135 52.4067 52.7601 51.8567 52.7601 51.27V45H54.2561ZM67.8435 41.392V47.024C68.8555 45.66 70.2269 44.978 71.9575 44.978C72.9695 44.978 73.9009 45.2273 74.7515 45.726C75.6022 46.2247 76.2769 46.9067 76.7755 47.772C77.2742 48.6227 77.5235 49.5467 77.5235 50.544C77.5235 51.5413 77.2742 52.4727 76.7755 53.338C76.2769 54.1887 75.6022 54.8633 74.7515 55.362C73.9009 55.8607 72.9695 56.11 71.9575 56.11C70.2855 56.11 68.9142 55.3913 67.8435 53.954V56H66.3695V41.392H67.8435ZM67.8875 50.544C67.8875 51.2773 68.0709 51.9593 68.4375 52.59C68.8042 53.206 69.2955 53.6973 69.9115 54.064C70.5422 54.4307 71.2242 54.614 71.9575 54.614C72.6909 54.614 73.3655 54.4307 73.9815 54.064C74.5975 53.6973 75.0889 53.206 75.4555 52.59C75.8222 51.9593 76.0055 51.2773 76.0055 50.544C76.0055 49.8107 75.8222 49.136 75.4555 48.52C75.0889 47.904 74.5975 47.4127 73.9815 47.046C73.3655 46.6793 72.6909 46.496 71.9575 46.496C71.2242 46.496 70.5422 46.6793 69.9115 47.046C69.2955 47.4127 68.8042 47.904 68.4375 48.52C68.0709 49.136 67.8875 49.8107 67.8875 50.544ZM80.4865 41.942C80.7505 41.942 80.9778 42.0373 81.1685 42.228C81.3592 42.4187 81.4545 42.646 81.4545 42.91C81.4545 43.1887 81.3592 43.4233 81.1685 43.614C80.9778 43.8047 80.7505 43.9 80.4865 43.9C80.2078 43.9 79.9732 43.8047 79.7825 43.614C79.5918 43.4233 79.4965 43.1887 79.4965 42.91C79.4965 42.646 79.5918 42.4187 79.7825 42.228C79.9732 42.0373 80.2078 41.942 80.4865 41.942ZM81.2345 45V56H79.7165V45H81.2345ZM88.0205 45C88.8125 45 89.5385 45.198 90.1985 45.594C90.8731 45.9753 91.4085 46.5033 91.8045 47.178C92.2005 47.838 92.3985 48.564 92.3985 49.356V56H90.8805V49.356C90.8805 48.8427 90.7485 48.3733 90.4845 47.948C90.2351 47.508 89.8905 47.1633 89.4505 46.914C89.0105 46.65 88.5338 46.518 88.0205 46.518C87.5071 46.518 87.0305 46.65 86.5905 46.914C86.1505 47.1633 85.7985 47.508 85.5345 47.948C85.2851 48.3733 85.1605 48.8427 85.1605 49.356V56H83.6645V45.286H85.1605V46.254C85.5271 45.8433 85.9525 45.5353 86.4365 45.33C86.9351 45.11 87.4631 45 88.0205 45ZM105.319 56H103.845V53.954C102.774 55.3913 101.403 56.11 99.7312 56.11C98.7192 56.11 97.7878 55.8607 96.9372 55.362C96.0865 54.8633 95.4118 54.1887 94.9132 53.338C94.4145 52.4727 94.1652 51.5413 94.1652 50.544C94.1652 49.5467 94.4145 48.6227 94.9132 47.772C95.4118 46.9067 96.0865 46.2247 96.9372 45.726C97.7878 45.2273 98.7192 44.978 99.7312 44.978C101.462 44.978 102.833 45.66 103.845 47.024V41.392H105.319V56ZM103.801 50.544C103.801 49.8107 103.618 49.136 103.251 48.52C102.884 47.904 102.386 47.4127 101.755 47.046C101.139 46.6793 100.464 46.496 99.7312 46.496C98.9978 46.496 98.3232 46.6793 97.7072 47.046C97.0912 47.4127 96.5998 47.904 96.2332 48.52C95.8665 49.136 95.6832 49.8107 95.6832 50.544C95.6832 51.2773 95.8665 51.9593 96.2332 52.59C96.5998 53.206 97.0912 53.6973 97.7072 54.064C98.3232 54.4307 98.9978 54.614 99.7312 54.614C100.464 54.614 101.139 54.4307 101.755 54.064C102.386 53.6973 102.884 53.206 103.251 52.59C103.618 51.9593 103.801 51.2773 103.801 50.544ZM123.704 45L119.37 56H117.786L115.52 50.302L113.254 56H111.67L107.292 45H108.92L112.462 53.91L114.706 48.278L113.408 45H115.036L118.578 53.91L122.098 45H123.704ZM135.267 45.286V56H133.749V53.976C132.737 55.3987 131.388 56.11 129.701 56.11C128.689 56.11 127.758 55.868 126.907 55.384C126.057 54.8853 125.382 54.2107 124.883 53.36C124.399 52.5093 124.157 51.5853 124.157 50.588C124.157 49.576 124.399 48.6447 124.883 47.794C125.382 46.9433 126.057 46.276 126.907 45.792C127.758 45.2933 128.689 45.044 129.701 45.044C130.743 45.044 131.593 45.264 132.253 45.704C132.928 46.1293 133.427 46.5913 133.749 47.09V45.286H135.267ZM129.701 54.614C130.435 54.614 131.109 54.438 131.725 54.086C132.341 53.7193 132.825 53.228 133.177 52.612C133.544 51.996 133.727 51.3213 133.727 50.588C133.727 49.8547 133.544 49.18 133.177 48.564C132.825 47.9333 132.341 47.442 131.725 47.09C131.109 46.7233 130.435 46.54 129.701 46.54C128.968 46.54 128.286 46.7233 127.655 47.09C127.039 47.442 126.548 47.9333 126.181 48.564C125.829 49.18 125.653 49.8547 125.653 50.588C125.653 51.3213 125.829 51.996 126.181 52.612C126.548 53.228 127.039 53.7193 127.655 54.086C128.286 54.438 128.968 54.614 129.701 54.614ZM146.789 45V55.912C146.789 56.7773 146.577 57.5767 146.151 58.31C145.726 59.0433 145.147 59.6227 144.413 60.048C143.68 60.4733 142.881 60.686 142.015 60.686C141.179 60.686 140.409 60.488 139.705 60.092C139.001 59.696 138.429 59.1607 137.989 58.486L139.309 57.738C139.603 58.178 139.984 58.53 140.453 58.794C140.937 59.058 141.458 59.19 142.015 59.19C142.602 59.19 143.145 59.0433 143.643 58.75C144.157 58.4567 144.56 58.0533 144.853 57.54C145.147 57.0413 145.293 56.4987 145.293 55.912V54.746C144.853 55.1567 144.355 55.4793 143.797 55.714C143.24 55.934 142.646 56.044 142.015 56.044C141.165 56.044 140.373 55.8387 139.639 55.428C138.921 55.0027 138.341 54.438 137.901 53.734C137.476 53.03 137.256 52.2527 137.241 51.402V45H138.737V51.27C138.737 51.8567 138.884 52.4067 139.177 52.92C139.471 53.4187 139.867 53.8147 140.365 54.108C140.879 54.4013 141.429 54.548 142.015 54.548C142.602 54.548 143.145 54.4013 143.643 54.108C144.157 53.8147 144.56 53.4187 144.853 52.92C145.147 52.4067 145.293 51.8567 145.293 51.27V45H146.789ZM150.104 53.052C150.221 53.4627 150.404 53.7853 150.654 54.02C151.064 54.4013 151.666 54.592 152.458 54.592C153.147 54.592 153.704 54.4307 154.13 54.108C154.555 53.7853 154.768 53.3673 154.768 52.854C154.768 52.37 154.672 52.0107 154.482 51.776C154.291 51.5413 154.042 51.3947 153.734 51.336C153.44 51.2627 153.03 51.2187 152.502 51.204C151.739 51.16 151.116 51.0793 150.632 50.962C150.148 50.83 149.708 50.544 149.312 50.104C148.828 49.5027 148.586 48.8427 148.586 48.124C148.586 47.948 148.593 47.816 148.608 47.728C148.725 46.804 149.114 46.1 149.774 45.616C150.434 45.1173 151.321 44.868 152.436 44.868H152.458C153.279 44.868 153.946 45.022 154.46 45.33C154.973 45.638 155.369 46.012 155.648 46.452C155.941 46.936 156.124 47.442 156.198 47.97H154.658C154.628 47.7647 154.533 47.5227 154.372 47.244C154.005 46.6867 153.367 46.3933 152.458 46.364C151.534 46.364 150.925 46.518 150.632 46.826C150.338 47.134 150.162 47.4933 150.104 47.904C150.089 47.9627 150.082 48.0433 150.082 48.146C150.082 48.498 150.206 48.8133 150.456 49.092C150.661 49.3413 150.925 49.51 151.248 49.598C151.57 49.6713 152.032 49.73 152.634 49.774C153.118 49.8033 153.528 49.8473 153.866 49.906C154.218 49.9647 154.548 50.0747 154.856 50.236C155.809 50.7493 156.286 51.622 156.286 52.854C156.286 53.2793 156.198 53.69 156.022 54.086C155.86 54.4673 155.626 54.8047 155.318 55.098C154.628 55.7727 153.682 56.11 152.48 56.11C151.306 56.11 150.353 55.78 149.62 55.12C149.048 54.5627 148.696 53.8733 148.564 53.052H150.104Z" fill="#4D4D4D"/>
<path d="M32 25.7305L39 27.2049V36.3671H32V25.7305Z" fill="#4D4D4D"/>
<path d="M30.6328 2.56569C26.8337 3.69161 22.9561 5.19415 19.9725 7.03005C19.7999 6.76329 19.6158 6.50044 19.4237 6.24542C17.5031 3.70259 19.3028 0.0255036 22.47 2.62506e-05C22.5539 0.0132695 26.7005 -0.21363 30.6328 2.56569Z" fill="#4D4D4D"/>
<path d="M19.4276 21.6128C19.6197 21.3577 19.804 21.0988 19.9765 20.832C22.9484 22.664 26.8141 24.1626 30.6016 25.2847C28.4021 26.8539 25.7399 27.7994 22.8975 27.8581C19.15 27.9754 17.5526 24.0895 19.4276 21.6128Z" fill="#4D4D4D"/>
<path d="M30.7998 24.1299C23.364 21.8889 15.8447 18.2411 15.8447 13.9307C15.8448 9.62019 23.364 5.97239 30.7998 3.73144L30.7998 24.1299ZM55.9883 13.9307C55.9883 20.8704 50.3467 26.5156 43.4111 26.5156C41.0154 26.5156 36.6029 25.7769 32 24.4795L32 3.38281C36.603 2.08537 41.0154 1.3457 43.4111 1.3457C50.3467 1.34586 55.9883 6.99094 55.9883 13.9307ZM48.2256 13.9268C48.2256 10.3727 45.3322 7.47775 41.7803 7.47754C38.2243 7.47754 37 10.4458 37 14C37 17.5622 38.2241 20.3839 41.7803 20.3838C45.3322 20.3836 48.2256 17.4887 48.2256 13.9268Z" fill="#4D4D4D"/>
<path d="M8.50111 19.5199C9.91419 19.687 11.3362 19.2907 12.4593 18.417C13.5823 17.5432 14.316 16.2623 14.5015 14.8515C14.687 13.4407 14.3094 12.0136 13.4504 10.8792C12.5914 9.74487 11.3201 8.99449 9.91186 8.79058C7.80071 8.5131 5.58874 9.46423 3.80209 10.5985C2.78893 11.2415 1.83911 11.9792 0.965422 12.8018C0.74627 13.0108 0.869433 13.2788 0.891926 13.3242L0.900636 13.3355C0.970859 13.4344 1.99697 14.8267 3.65738 14.224C3.96481 14.1079 4.28756 14.0373 4.61539 14.0144C5.2355 13.9777 5.4792 14.8033 4.93723 15.1074C4.37603 15.4292 3.93999 15.9312 3.69982 16.5318C3.6732 16.5984 3.6671 16.6713 3.68229 16.7414C3.69749 16.8114 3.73328 16.8753 3.78508 16.9248C5.10191 18.1926 6.72246 19.2862 8.50111 19.5199Z" fill="#4D4D4D"/>
</g>
<defs>
<clipPath id="clip0_6126_3389">
<rect width="194" height="61" fill="white"/>
</clipPath>
</defs>
</svg>
