<svg width="136" height="127" viewBox="0 0 136 127" fill="none" xmlns="http://www.w3.org/2000/svg">
<g clip-path="url(#clip0_6123_22096)">
<path d="M52.2225 36.166C53.8286 41.5855 55.972 47.1169 58.5909 51.373C58.2103 51.6191 57.8354 51.8818 57.4716 52.1559C53.8442 54.8955 48.5989 52.3283 48.5625 47.8102C48.5814 47.6906 48.2578 41.7754 52.2225 36.166Z" fill="#C2C2C2"/>
<path d="M79.391 52.1516C79.0272 51.8776 78.6579 51.6147 78.2773 51.3685C80.8907 47.1291 83.0285 41.6147 84.629 36.2119C86.8676 39.3494 88.2162 43.147 88.3001 47.2018C88.4674 52.5476 82.9241 54.8263 79.391 52.1516Z" fill="#C2C2C2"/>
<path d="M83.0459 35.7197C79.8549 46.3953 74.6233 57.2645 68.4336 57.2646C62.2438 57.2646 57.0123 46.3953 53.8213 35.7197L83.0459 35.7197ZM68.4336 7.84756e-07C78.3331 8.40524e-05 86.3858 8.04786 86.3857 17.9414C86.3857 21.359 85.3313 27.6534 83.4805 34.2197L53.3857 34.2197C51.5349 27.6535 50.4805 21.3589 50.4805 17.9414C50.4806 8.04781 58.534 3.52032e-07 68.4336 7.84756e-07ZM68.4277 11.0732C63.3577 11.0733 59.2275 15.2015 59.2275 20.2686C59.2277 25.3408 63.4302 26.9999 68.5 27C73.5814 27 77.6397 25.3412 77.6396 20.2686C77.6396 15.2015 73.509 11.0732 68.4277 11.0732Z" fill="white"/>
<path d="M76.405 67.74C76.6433 65.7242 76.0781 63.6957 74.8316 62.0936C73.5852 60.4916 71.7579 59.4449 69.7455 59.1803C67.733 58.9157 65.6972 59.4544 64.0791 60.6798C62.4609 61.9052 61.3905 63.7187 61.0996 65.7275C60.7038 68.7391 62.0605 71.8944 63.6786 74.4431C64.5958 75.8884 65.6482 77.2433 66.8215 78.4896C67.1197 78.8022 67.502 78.6265 67.5667 78.5944L67.5829 78.582C67.724 78.4818 69.7101 77.0181 68.8504 74.6495C68.6847 74.211 68.584 73.7506 68.5513 73.2829C68.4991 72.3983 69.6768 72.0507 70.1105 72.8238C70.5696 73.6244 71.2856 74.2464 72.1425 74.589C72.2374 74.627 72.3415 74.6357 72.4414 74.614C72.5413 74.5923 72.6324 74.5412 72.703 74.4674C74.5116 72.5889 76.0715 70.2772 76.405 67.74Z" fill="white"/>
<path d="M10.1525 109V83.8H20.7005C22.3565 83.8 23.8565 84.184 25.2005 84.952C26.5685 85.696 27.6485 86.74 28.4405 88.084C29.2565 89.428 29.6645 90.988 29.6645 92.764C29.6645 94.516 29.2565 96.076 28.4405 97.444C27.6485 98.788 26.5685 99.844 25.2005 100.612C23.8565 101.356 22.3565 101.728 20.7005 101.728H15.3005V109H10.1525ZM15.3005 97.192H20.0885C20.9045 97.192 21.6485 97.024 22.3205 96.688C22.9925 96.328 23.5205 95.824 23.9045 95.176C24.3125 94.504 24.5165 93.7 24.5165 92.764C24.5165 91.828 24.3125 91.036 23.9045 90.388C23.5205 89.716 22.9925 89.212 22.3205 88.876C21.6485 88.516 20.9045 88.336 20.0885 88.336H15.3005V97.192ZM37.6273 109.432C35.9473 109.432 34.4833 109 33.2353 108.136C31.9873 107.272 31.0153 106.12 30.3193 104.68C29.6473 103.216 29.3113 101.608 29.3113 99.856C29.3113 98.056 29.6953 96.424 30.4633 94.96C31.2553 93.496 32.3833 92.344 33.8473 91.504C35.3113 90.64 37.0633 90.208 39.1033 90.208C41.1673 90.208 42.9073 90.64 44.3233 91.504C45.7393 92.368 46.8193 93.532 47.5633 94.996C48.3073 96.46 48.6793 98.08 48.6793 99.856V109H43.7473V105.94H43.6753C43.3153 106.588 42.8593 107.176 42.3073 107.704C41.7793 108.232 41.1313 108.652 40.3633 108.964C39.5953 109.276 38.6833 109.432 37.6273 109.432ZM39.0313 105.22C39.9913 105.22 40.8193 104.98 41.5153 104.5C42.2113 104.02 42.7393 103.372 43.0993 102.556C43.4833 101.716 43.6753 100.792 43.6753 99.784C43.6753 98.776 43.4833 97.876 43.0993 97.084C42.7393 96.268 42.2113 95.62 41.5153 95.14C40.8193 94.66 39.9913 94.42 39.0313 94.42C38.0473 94.42 37.1953 94.66 36.4753 95.14C35.7793 95.62 35.2393 96.268 34.8553 97.084C34.4953 97.876 34.3153 98.776 34.3153 99.784C34.3153 100.792 34.4953 101.716 34.8553 102.556C35.2393 103.372 35.7793 104.02 36.4753 104.5C37.1953 104.98 38.0473 105.22 39.0313 105.22ZM51.3683 109V95.86C51.3683 94.228 51.8243 92.956 52.7363 92.044C53.6723 91.108 54.9563 90.64 56.5883 90.64H61.6643V94.852H57.4523C57.1403 94.852 56.8643 94.96 56.6243 95.176C56.4083 95.392 56.3003 95.668 56.3003 96.004V109H51.3683ZM71.8154 109C70.1834 109 68.8994 108.532 67.9634 107.596C67.0514 106.66 66.5954 105.388 66.5954 103.78V86.032H71.5274V103.636C71.5274 103.948 71.6354 104.224 71.8514 104.464C72.0914 104.68 72.3674 104.788 72.6794 104.788H76.6754V109H71.8154ZM63.4634 94.852V90.64H76.6754V94.852H63.4634ZM78.6552 109V98.452C78.6552 96.94 79.0032 95.56 79.6992 94.312C80.4192 93.064 81.4512 92.068 82.7952 91.324C84.1392 90.58 85.7472 90.208 87.6192 90.208C89.5152 90.208 91.1232 90.58 92.4432 91.324C93.7872 92.068 94.8072 93.064 95.5032 94.312C96.2232 95.56 96.5832 96.94 96.5832 98.452V109H91.6512V98.452C91.6512 97.708 91.4712 97.036 91.1112 96.436C90.7512 95.812 90.2592 95.32 89.6352 94.96C89.0352 94.6 88.3632 94.42 87.6192 94.42C86.8752 94.42 86.1912 94.6 85.5672 94.96C84.9672 95.32 84.4872 95.812 84.1272 96.436C83.7672 97.036 83.5872 97.708 83.5872 98.452V109H78.6552ZM108.713 109C106.625 109 104.801 108.604 103.241 107.812C101.705 106.996 100.505 105.892 99.6406 104.5C98.8006 103.108 98.3806 101.548 98.3806 99.82C98.3806 97.876 98.7766 96.184 99.5686 94.744C100.361 93.304 101.441 92.188 102.809 91.396C104.177 90.604 105.725 90.208 107.453 90.208C109.517 90.208 111.185 90.64 112.457 91.504C113.753 92.368 114.701 93.532 115.301 94.996C115.901 96.436 116.201 98.044 116.201 99.82C116.201 100.06 116.189 100.348 116.165 100.684C116.141 100.996 116.105 101.236 116.057 101.404H103.637C103.829 102.148 104.153 102.772 104.609 103.276C105.089 103.78 105.677 104.164 106.373 104.428C107.093 104.668 107.897 104.788 108.785 104.788H113.897V109H108.713ZM103.601 98.092H111.269C111.221 97.636 111.137 97.216 111.017 96.832C110.897 96.424 110.729 96.064 110.513 95.752C110.297 95.44 110.045 95.176 109.757 94.96C109.469 94.744 109.133 94.576 108.749 94.456C108.365 94.336 107.945 94.276 107.489 94.276C106.889 94.276 106.349 94.384 105.869 94.6C105.413 94.816 105.029 95.104 104.717 95.464C104.405 95.824 104.153 96.232 103.961 96.688C103.793 97.144 103.673 97.612 103.601 98.092ZM117.695 109V95.86C117.695 94.228 118.151 92.956 119.063 92.044C119.999 91.108 121.283 90.64 122.915 90.64H127.991V94.852H123.779C123.467 94.852 123.191 94.96 122.951 95.176C122.735 95.392 122.627 95.668 122.627 96.004V109H117.695Z" fill="white"/>
<path d="M29.138 114.704V118.288C29.782 117.42 30.6547 116.986 31.756 116.986C32.4 116.986 32.9927 117.145 33.534 117.462C34.0753 117.779 34.5047 118.213 34.822 118.764C35.1393 119.305 35.298 119.893 35.298 120.528C35.298 121.163 35.1393 121.755 34.822 122.306C34.5047 122.847 34.0753 123.277 33.534 123.594C32.9927 123.911 32.4 124.07 31.756 124.07C30.692 124.07 29.8193 123.613 29.138 122.698V124H28.2V114.704H29.138ZM29.166 120.528C29.166 120.995 29.2827 121.429 29.516 121.83C29.7493 122.222 30.062 122.535 30.454 122.768C30.8553 123.001 31.2893 123.118 31.756 123.118C32.2227 123.118 32.652 123.001 33.044 122.768C33.436 122.535 33.7487 122.222 33.982 121.83C34.2153 121.429 34.332 120.995 34.332 120.528C34.332 120.061 34.2153 119.632 33.982 119.24C33.7487 118.848 33.436 118.535 33.044 118.302C32.652 118.069 32.2227 117.952 31.756 117.952C31.2893 117.952 30.8553 118.069 30.454 118.302C30.062 118.535 29.7493 118.848 29.516 119.24C29.2827 119.632 29.166 120.061 29.166 120.528ZM42.4895 117V123.944C42.4895 124.495 42.3542 125.003 42.0835 125.47C41.8128 125.937 41.4442 126.305 40.9775 126.576C40.5108 126.847 40.0022 126.982 39.4515 126.982C38.9195 126.982 38.4295 126.856 37.9815 126.604C37.5335 126.352 37.1695 126.011 36.8895 125.582L37.7295 125.106C37.9162 125.386 38.1588 125.61 38.4575 125.778C38.7655 125.946 39.0968 126.03 39.4515 126.03C39.8248 126.03 40.1702 125.937 40.4875 125.75C40.8142 125.563 41.0708 125.307 41.2575 124.98C41.4442 124.663 41.5375 124.317 41.5375 123.944V123.202C41.2575 123.463 40.9402 123.669 40.5855 123.818C40.2308 123.958 39.8528 124.028 39.4515 124.028C38.9102 124.028 38.4062 123.897 37.9395 123.636C37.4822 123.365 37.1135 123.006 36.8335 122.558C36.5628 122.11 36.4228 121.615 36.4135 121.074V117H37.3655V120.99C37.3655 121.363 37.4588 121.713 37.6455 122.04C37.8322 122.357 38.0842 122.609 38.4015 122.796C38.7282 122.983 39.0782 123.076 39.4515 123.076C39.8248 123.076 40.1702 122.983 40.4875 122.796C40.8142 122.609 41.0708 122.357 41.2575 122.04C41.4442 121.713 41.5375 121.363 41.5375 120.99V117H42.4895ZM51.136 114.704V118.288C51.78 117.42 52.6527 116.986 53.754 116.986C54.398 116.986 54.9907 117.145 55.532 117.462C56.0734 117.779 56.5027 118.213 56.82 118.764C57.1374 119.305 57.296 119.893 57.296 120.528C57.296 121.163 57.1374 121.755 56.82 122.306C56.5027 122.847 56.0734 123.277 55.532 123.594C54.9907 123.911 54.398 124.07 53.754 124.07C52.69 124.07 51.8174 123.613 51.136 122.698V124H50.198V114.704H51.136ZM51.164 120.528C51.164 120.995 51.2807 121.429 51.514 121.83C51.7474 122.222 52.06 122.535 52.452 122.768C52.8534 123.001 53.2874 123.118 53.754 123.118C54.2207 123.118 54.65 123.001 55.042 122.768C55.434 122.535 55.7467 122.222 55.98 121.83C56.2134 121.429 56.33 120.995 56.33 120.528C56.33 120.061 56.2134 119.632 55.98 119.24C55.7467 118.848 55.434 118.535 55.042 118.302C54.65 118.069 54.2207 117.952 53.754 117.952C53.2874 117.952 52.8534 118.069 52.452 118.302C52.06 118.535 51.7474 118.848 51.514 119.24C51.2807 119.632 51.164 120.061 51.164 120.528ZM59.1816 115.054C59.3496 115.054 59.4942 115.115 59.6156 115.236C59.7369 115.357 59.7976 115.502 59.7976 115.67C59.7976 115.847 59.7369 115.997 59.6156 116.118C59.4942 116.239 59.3496 116.3 59.1816 116.3C59.0042 116.3 58.8549 116.239 58.7336 116.118C58.6122 115.997 58.5516 115.847 58.5516 115.67C58.5516 115.502 58.6122 115.357 58.7336 115.236C58.8549 115.115 59.0042 115.054 59.1816 115.054ZM59.6576 117V124H58.6916V117H59.6576ZM63.9759 117C64.4799 117 64.9419 117.126 65.3619 117.378C65.7912 117.621 66.1319 117.957 66.3839 118.386C66.6359 118.806 66.7619 119.268 66.7619 119.772V124H65.7959V119.772C65.7959 119.445 65.7119 119.147 65.5439 118.876C65.3852 118.596 65.1659 118.377 64.8859 118.218C64.6059 118.05 64.3026 117.966 63.9759 117.966C63.6492 117.966 63.3459 118.05 63.0659 118.218C62.7859 118.377 62.5619 118.596 62.3939 118.876C62.2352 119.147 62.1559 119.445 62.1559 119.772V124H61.2039V117.182H62.1559V117.798C62.3892 117.537 62.6599 117.341 62.9679 117.21C63.2852 117.07 63.6212 117 63.9759 117ZM74.9842 124H74.0462V122.698C73.3648 123.613 72.4922 124.07 71.4282 124.07C70.7842 124.07 70.1915 123.911 69.6502 123.594C69.1088 123.277 68.6795 122.847 68.3622 122.306C68.0448 121.755 67.8862 121.163 67.8862 120.528C67.8862 119.893 68.0448 119.305 68.3622 118.764C68.6795 118.213 69.1088 117.779 69.6502 117.462C70.1915 117.145 70.7842 116.986 71.4282 116.986C72.5295 116.986 73.4022 117.42 74.0462 118.288V114.704H74.9842V124ZM74.0182 120.528C74.0182 120.061 73.9015 119.632 73.6682 119.24C73.4348 118.848 73.1175 118.535 72.7162 118.302C72.3242 118.069 71.8948 117.952 71.4282 117.952C70.9615 117.952 70.5322 118.069 70.1402 118.302C69.7482 118.535 69.4355 118.848 69.2022 119.24C68.9688 119.632 68.8522 120.061 68.8522 120.528C68.8522 120.995 68.9688 121.429 69.2022 121.83C69.4355 122.222 69.7482 122.535 70.1402 122.768C70.5322 123.001 70.9615 123.118 71.4282 123.118C71.8948 123.118 72.3242 123.001 72.7162 122.768C73.1175 122.535 73.4348 122.222 73.6682 121.83C73.9015 121.429 74.0182 120.995 74.0182 120.528ZM86.6837 117L83.9257 124H82.9177L81.4757 120.374L80.0337 124H79.0257L76.2397 117H77.2757L79.5297 122.67L80.9577 119.086L80.1317 117H81.1677L83.4217 122.67L85.6617 117H86.6837ZM94.0421 117.182V124H93.0761V122.712C92.4321 123.617 91.5734 124.07 90.5001 124.07C89.8561 124.07 89.2634 123.916 88.7221 123.608C88.1808 123.291 87.7514 122.861 87.4341 122.32C87.1261 121.779 86.9721 121.191 86.9721 120.556C86.9721 119.912 87.1261 119.319 87.4341 118.778C87.7514 118.237 88.1808 117.812 88.7221 117.504C89.2634 117.187 89.8561 117.028 90.5001 117.028C91.1628 117.028 91.7041 117.168 92.1241 117.448C92.5534 117.719 92.8708 118.013 93.0761 118.33V117.182H94.0421ZM90.5001 123.118C90.9668 123.118 91.3961 123.006 91.7881 122.782C92.1801 122.549 92.4881 122.236 92.7121 121.844C92.9454 121.452 93.0621 121.023 93.0621 120.556C93.0621 120.089 92.9454 119.66 92.7121 119.268C92.4881 118.867 92.1801 118.554 91.7881 118.33C91.3961 118.097 90.9668 117.98 90.5001 117.98C90.0334 117.98 89.5994 118.097 89.1981 118.33C88.8061 118.554 88.4934 118.867 88.2601 119.268C88.0361 119.66 87.9241 120.089 87.9241 120.556C87.9241 121.023 88.0361 121.452 88.2601 121.844C88.4934 122.236 88.8061 122.549 89.1981 122.782C89.5994 123.006 90.0334 123.118 90.5001 123.118ZM101.374 117V123.944C101.374 124.495 101.239 125.003 100.968 125.47C100.698 125.937 100.329 126.305 99.8623 126.576C99.3956 126.847 98.8869 126.982 98.3363 126.982C97.8043 126.982 97.3143 126.856 96.8663 126.604C96.4183 126.352 96.0543 126.011 95.7743 125.582L96.6143 125.106C96.8009 125.386 97.0436 125.61 97.3423 125.778C97.6503 125.946 97.9816 126.03 98.3363 126.03C98.7096 126.03 99.0549 125.937 99.3723 125.75C99.6989 125.563 99.9556 125.307 100.142 124.98C100.329 124.663 100.422 124.317 100.422 123.944V123.202C100.142 123.463 99.8249 123.669 99.4703 123.818C99.1156 123.958 98.7376 124.028 98.3363 124.028C97.7949 124.028 97.2909 123.897 96.8243 123.636C96.3669 123.365 95.9983 123.006 95.7183 122.558C95.4476 122.11 95.3076 121.615 95.2983 121.074V117H96.2503V120.99C96.2503 121.363 96.3436 121.713 96.5303 122.04C96.7169 122.357 96.9689 122.609 97.2863 122.796C97.6129 122.983 97.9629 123.076 98.3363 123.076C98.7096 123.076 99.0549 122.983 99.3723 122.796C99.6989 122.609 99.9556 122.357 100.142 122.04C100.329 121.713 100.422 121.363 100.422 120.99V117H101.374ZM103.483 122.124C103.558 122.385 103.675 122.591 103.833 122.74C104.095 122.983 104.477 123.104 104.981 123.104C105.42 123.104 105.775 123.001 106.045 122.796C106.316 122.591 106.451 122.325 106.451 121.998C106.451 121.69 106.391 121.461 106.269 121.312C106.148 121.163 105.989 121.069 105.793 121.032C105.607 120.985 105.345 120.957 105.009 120.948C104.524 120.92 104.127 120.869 103.819 120.794C103.511 120.71 103.231 120.528 102.979 120.248C102.671 119.865 102.517 119.445 102.517 118.988C102.517 118.876 102.522 118.792 102.531 118.736C102.606 118.148 102.853 117.7 103.273 117.392C103.693 117.075 104.258 116.916 104.967 116.916H104.981C105.504 116.916 105.929 117.014 106.255 117.21C106.582 117.406 106.834 117.644 107.011 117.924C107.198 118.232 107.315 118.554 107.361 118.89H106.381C106.363 118.759 106.302 118.605 106.199 118.428C105.966 118.073 105.56 117.887 104.981 117.868C104.393 117.868 104.006 117.966 103.819 118.162C103.633 118.358 103.521 118.587 103.483 118.848C103.474 118.885 103.469 118.937 103.469 119.002C103.469 119.226 103.549 119.427 103.707 119.604C103.838 119.763 104.006 119.87 104.211 119.926C104.417 119.973 104.711 120.01 105.093 120.038C105.401 120.057 105.663 120.085 105.877 120.122C106.101 120.159 106.311 120.229 106.507 120.332C107.114 120.659 107.417 121.214 107.417 121.998C107.417 122.269 107.361 122.53 107.249 122.782C107.147 123.025 106.997 123.239 106.801 123.426C106.363 123.855 105.761 124.07 104.995 124.07C104.249 124.07 103.642 123.86 103.175 123.44C102.811 123.085 102.587 122.647 102.503 122.124H103.483Z" fill="white"/>
</g>
<defs>
<clipPath id="clip0_6123_22096">
<rect width="136" height="127" fill="white"/>
</clipPath>
</defs>
</svg>
